<svg width="150" height="30" viewBox="0 0 150 30" fill="none" xmlns="http://www.w3.org/2000/svg">
<g clip-path="url(#clip0_2957_1640)">
<path d="M38.9575 21.2438C38.3453 21.2438 37.8422 21.0613 37.4605 20.6998C37.0806 20.3402 36.8882 19.8522 36.8882 19.25C36.8882 18.6484 37.0813 18.1554 37.4612 17.7836C37.8429 17.4118 38.346 17.2225 38.9575 17.2225C39.5563 17.2225 40.0478 17.4118 40.4164 17.7829C40.7867 18.1547 40.9735 18.6484 40.9735 19.25C40.9735 19.8529 40.7867 20.3408 40.4178 20.7009C40.0482 21.0613 39.5568 21.2438 38.9575 21.2438ZM40.5698 22.7505C41.0779 22.5729 41.5321 22.3136 41.9237 21.9804C42.3008 21.6467 42.6096 21.2466 42.84 20.7895C43.0723 20.3293 43.1891 19.8115 43.1891 19.25C43.1891 18.7859 43.1081 18.3444 42.9484 17.9397C42.8036 17.5714 42.6044 17.2272 42.3575 16.9188C42.7488 16.6099 43.0684 16.2441 43.307 15.8288C43.5644 15.3862 43.6947 14.8575 43.6947 14.2606V7.21798H41.5307V8.8467H38.8189C38.8052 8.44958 38.7001 8.12237 38.5051 7.87402C38.2902 7.60154 37.9277 7.46265 37.4253 7.46265H31.609V9.25532H36.2242C36.3956 9.25532 36.5032 9.29717 36.5442 9.38041C36.5778 9.44709 36.5995 9.58506 36.5218 9.87249C36.3548 10.4029 36.0976 10.9 35.7615 11.3419C35.4135 11.7958 35.0181 12.211 34.5821 12.5801C34.1222 12.97 33.6314 13.3215 33.1146 13.631C32.5883 13.9482 32.045 14.2361 31.4872 14.4933L31.401 14.5333L32.3384 16.3046L32.4154 16.2678C33.8669 15.5906 35.1537 14.7527 36.2408 13.7761C37.3129 12.8126 38.072 11.7447 38.4973 10.6028H41.531V12.2968H38.2061V14.0525H41.531V14.2254C41.531 14.6444 41.4855 14.9948 41.3957 15.2652C41.3188 15.5025 41.1923 15.7205 41.0247 15.9045C40.7148 15.7701 40.3942 15.6623 40.0663 15.5823C39.7035 15.4928 39.3312 15.4477 38.9577 15.448C38.3812 15.448 37.8294 15.5409 37.3163 15.7249C36.8047 15.9081 36.348 16.1703 35.956 16.5033C35.5763 16.8389 35.2672 17.2476 35.0468 17.7052C34.8216 18.1706 34.7066 18.6907 34.7066 19.2497C34.7066 19.8108 34.8216 20.331 35.0468 20.7964C35.2719 21.2611 35.578 21.6607 35.9579 21.9815C36.3474 22.3133 36.8047 22.5727 37.3181 22.7502C37.8294 22.9284 38.3808 23.0181 38.9575 23.0181C39.522 23.0181 40.0649 22.9287 40.5698 22.7505ZM53.6925 8.54547C53.5021 8.17617 53.1241 7.989 52.5684 7.989H46.387V9.79776H51.2808C51.5682 9.79776 51.5855 9.91389 51.5926 9.95781C51.6138 10.1133 51.6138 10.271 51.5926 10.4264C51.4662 11.1294 51.2641 11.7845 50.9908 12.375C50.716 12.9671 50.3576 13.5402 49.9224 14.0812C49.4984 14.6117 48.9901 15.1353 48.4109 15.6368C47.8289 16.1415 47.1667 16.6546 46.4421 17.1632L46.3678 17.2161L47.5313 18.846L47.6022 18.8027C48.577 18.2076 49.4483 17.5435 50.1937 16.8298C50.9375 16.1163 51.5798 15.3636 52.1026 14.591C52.6262 13.8198 53.0427 13.014 53.3396 12.1989C53.6368 11.3844 53.8292 10.5672 53.9115 9.7681C53.9474 9.30912 53.8736 8.89798 53.6925 8.54547Z" fill="#2056AE"/>
<path d="M58.4023 7.3932H56.2215V21.5292H58.4021L58.4023 7.3932Z" fill="#2056AE"/>
<path d="M62.3548 14.8729C63.225 14.6508 64.1834 14.3321 65.2029 13.9232C66.2015 13.5258 67.1642 13.0427 68.0806 12.4794C68.4271 12.5144 68.7197 12.584 68.9547 12.688C69.1949 12.7947 69.419 12.9346 69.6208 13.1037C69.934 13.3677 70.2439 13.6358 70.5504 13.9078C70.9408 14.2538 71.3324 14.5983 71.7252 14.9415L71.7924 14.9994L73.061 13.5684L72.9911 13.5084C72.7853 13.3352 72.583 13.1579 72.3842 12.9766C72.1975 12.8069 72.0231 12.6519 71.8624 12.5137C71.7 12.3616 71.5334 12.2141 71.3627 12.0715C71.1938 11.9314 71.0222 11.7914 70.8423 11.6461C70.6599 11.5248 70.4629 11.4274 70.256 11.3563C70.0968 11.3017 69.9331 11.2617 69.7668 11.2368C70.0866 10.9529 70.3852 10.6457 70.6601 10.3177C70.9732 9.94401 71.2196 9.55103 71.3979 9.14747C71.5449 8.78737 71.5534 8.43486 71.4242 8.09868C71.2882 7.74686 70.9751 7.56934 70.4964 7.56934H62.2252V9.37788H68.7929C68.0255 10.1868 67.0644 10.8794 65.9311 11.4389C64.7238 12.0347 63.3116 12.5659 61.7338 13.0177L61.6426 13.0437L62.2746 14.8929L62.3548 14.8729ZM66.1771 22.0381H68.3926V17.5546H74.1191V15.7633H60.5207V17.5546H66.1773L66.1771 22.0381ZM87.9024 16.587H78.4307V18.3773H86.3881C86.4768 18.3773 86.5915 18.3916 86.634 18.4587C86.677 18.5259 86.6987 18.6208 86.6987 18.7434V22.6504H88.702L88.915 17.8533C88.9264 17.5067 88.8412 17.2078 88.6613 16.9645C88.4768 16.7134 88.2213 16.587 87.9024 16.587ZM87.0466 10.4409H85.4854V7.21867H83.4957V12.7684C82.9696 13.0283 82.4084 13.2088 81.8301 13.3042C81.2346 13.4024 80.5597 13.4521 79.8255 13.4521H78.1548C77.9848 13.4521 77.9304 13.416 77.9137 13.3992C77.8977 13.3836 77.8616 13.3288 77.8616 13.1571V12.1094H81.9341V10.4409H77.8616V9.16748H82.1092V7.46334H75.8892V13.2624C75.8892 13.9168 76.0515 14.4008 76.3699 14.703C76.6869 15.0031 77.188 15.156 77.8584 15.156H79.7213C80.4321 15.156 81.1192 15.1001 81.764 14.989C82.3569 14.8883 82.9374 14.7242 83.4957 14.4997V15.8739H85.4854V12.2147H87.0466V15.8739H89.0361V7.21867H87.0466V10.4409ZM104.405 18.198H98.6971V15.4501C99.4243 15.4265 100.15 15.3693 100.872 15.2786C101.61 15.1843 102.305 15.0302 102.935 14.8196L103.011 14.7931L102.643 13.1L102.554 13.1226C101.723 13.3311 100.9 13.4776 100.103 13.5583C99.3039 13.639 98.5307 13.6802 97.8056 13.6802H95.2643C95.0666 13.6802 94.9164 13.6372 94.8177 13.5526C94.724 13.4719 94.676 13.3215 94.676 13.1046V9.55195H102.491V7.74387H92.5121V13.4201C92.5121 14.1102 92.7162 14.6292 93.1196 14.9603C93.5169 15.2875 94.1155 15.4535 94.8988 15.4535H96.4632V18.198H90.806V19.9886H104.405L104.405 18.198ZM111.364 15.3135C111.604 15.6253 111.916 16.085 112.289 16.6815C112.694 17.3269 113.092 17.9773 113.481 18.6326L113.53 18.7153L115.192 17.5431L115.149 17.4713C114.751 16.8007 114.341 16.1371 113.921 15.4807C113.556 14.9166 113.218 14.4229 112.914 14.0111C112.663 13.6979 112.37 13.4638 112.047 13.312C111.764 13.18 111.463 13.0903 111.154 13.046C111.305 12.5781 111.42 12.0993 111.497 11.6137C111.584 11.0747 111.629 10.4924 111.629 9.88261C111.629 9.49331 111.593 9.10539 111.523 8.72782C111.452 8.34703 111.314 7.96163 111.113 7.5813L111.078 7.51416L108.976 8.21848L109.022 8.31207C109.122 8.51535 109.211 8.75679 109.285 9.03181C109.36 9.31492 109.397 9.60685 109.395 9.89986C109.395 10.7178 109.314 11.455 109.154 12.0933C108.994 12.731 108.752 13.3261 108.433 13.8644C108.113 14.4163 107.705 14.947 107.219 15.4402C106.729 15.9392 106.15 16.4476 105.497 16.9556L105.425 17.0119L106.665 18.6043L106.735 18.5546C107.549 17.9692 108.279 17.3501 108.905 16.7143C109.515 16.0939 110.034 15.4117 110.449 14.6855C110.623 14.7508 110.788 14.8359 110.941 14.9392C111.112 15.056 111.255 15.1827 111.364 15.3135Z" fill="#2056AE"/>
<path d="M116.271 21.5292H118.452V7.3932H116.271V21.5292Z" fill="#2056AE"/>
<path d="M129.929 8.978C129.947 8.99341 129.986 9.05158 129.986 9.25233C129.986 9.80535 129.957 10.323 129.9 10.7911C129.843 11.2623 129.743 11.8516 129.605 12.5433L129.586 12.6404L131.52 12.8715L131.538 12.7933C131.703 12.0881 131.832 11.3747 131.923 10.6562C132.016 9.92676 132.063 9.24244 132.063 8.61974C132.05 8.06902 131.907 7.68317 131.637 7.47322C131.372 7.26995 130.982 7.16602 130.477 7.16602H122.119V8.92235H129.676C129.843 8.92235 129.906 8.9573 129.929 8.978ZM129.134 19.4089C129.134 20.0042 128.944 20.4508 128.557 20.7748C128.17 21.0983 127.667 21.2622 127.065 21.2622C126.451 21.2622 125.943 21.0983 125.555 20.7748C125.168 20.4508 124.979 20.0042 124.979 19.4089C124.979 18.8312 125.174 18.3748 125.556 18.0508C125.944 17.7217 126.452 17.5546 127.065 17.5546C127.667 17.5546 128.168 17.7217 128.557 18.0508C128.94 18.375 129.134 18.8326 129.134 19.4089ZM130.029 22.0528C130.408 21.742 130.72 21.3573 130.947 20.9219H130.948C131.18 20.4779 131.297 19.9692 131.297 19.4089C131.297 18.8487 131.182 18.3369 130.957 17.8882C130.736 17.4471 130.425 17.0577 130.044 16.7456C129.656 16.4373 129.202 16.197 128.693 16.0312C128.188 15.8654 127.64 15.7814 127.065 15.7814C126.49 15.7814 125.939 15.8654 125.428 16.0312C124.915 16.1965 124.457 16.4373 124.067 16.747C123.686 17.058 123.376 17.447 123.156 17.8882C122.93 18.3362 122.815 18.8473 122.815 19.4089C122.815 19.9692 122.93 20.4811 123.156 20.929C123.381 21.3763 123.688 21.7552 124.068 22.0542C124.459 22.3628 124.917 22.6003 125.428 22.7601C125.94 22.9197 126.49 23.0011 127.065 23.0011C127.628 23.0011 128.17 22.9197 128.676 22.7597C129.182 22.5996 129.637 22.3628 130.029 22.0528Z" fill="#2056AE"/>
<path d="M133.995 13.33H126.98V10.7737H124.817V13.3298H120.413V15.0856H133.995V13.33ZM135.977 18.5544C136.802 17.9579 137.544 17.3143 138.182 16.6424C138.804 15.9877 139.329 15.2783 139.742 14.5303C139.904 14.5927 140.057 14.6742 140.199 14.7729C140.35 14.8757 140.487 14.9987 140.606 15.1385C140.846 15.4494 141.157 15.9088 141.531 16.506C141.935 17.1519 142.332 17.8024 142.722 18.4573L142.772 18.5406L144.399 17.3672L144.356 17.2954C143.959 16.6285 143.556 15.9658 143.145 15.3075C142.793 14.7425 142.46 14.2482 142.156 13.8359C141.931 13.5498 141.648 13.315 141.326 13.1469C141.049 13.001 140.751 12.8972 140.444 12.839C140.569 12.4107 140.672 11.9574 140.747 11.4916C140.829 10.9852 140.87 10.4451 140.87 9.88215C140.87 9.49354 140.835 9.10493 140.765 8.72736C140.693 8.34863 140.556 7.96324 140.355 7.58176L140.319 7.51393L138.217 8.21825L138.263 8.31253C138.364 8.51374 138.453 8.76162 138.527 9.04698C138.599 9.33166 138.637 9.67106 138.637 10.0578C138.637 10.8279 138.562 11.5341 138.413 12.1556C138.268 12.7667 138.037 13.3538 137.727 13.8991C137.408 14.4395 137 14.964 136.513 15.4579C136.024 15.9555 135.428 16.4649 134.74 16.9721L134.665 17.0278L135.907 18.6038L135.977 18.5544ZM147.432 12.542V7.39274H145.252V21.5294H147.432V14.4027H149.887V12.5417L147.432 12.542Z" fill="#2056AE"/>
<path d="M12.2289 0.339807L10.0667 1.59742C9.76296 1.77423 9.76296 2.2151 10.0667 2.39155L20.6068 8.52188L18.6478 9.66115L7.88077 3.39905C7.74221 3.31866 7.58512 3.27634 7.42522 3.27634C7.26532 3.27634 7.10822 3.31866 6.96966 3.39905L4.45483 4.86156C4.15113 5.03872 4.15113 5.47959 4.45483 5.65604L16.3534 12.5761C16.496 12.6588 16.6144 12.7778 16.6967 12.9213C16.7791 13.0647 16.8224 13.2275 16.8225 13.3932V27.2329C16.8225 27.586 17.2014 27.8066 17.5051 27.63L20.0199 26.1675C20.1584 26.0869 20.2733 25.971 20.3532 25.8315C20.4331 25.692 20.4751 25.5337 20.4751 25.3727V13.0897L22.4338 11.9505V23.9684C22.4338 24.3215 22.8132 24.5421 23.1169 24.3657L25.2791 23.1082C25.5247 22.9653 25.7286 22.7598 25.8704 22.5124C26.0122 22.265 26.0869 21.9844 26.087 21.6987V8.39877C26.0869 8.11307 26.0122 7.83241 25.8704 7.58497C25.7286 7.33753 25.5247 7.13202 25.2791 6.98908L13.8451 0.339276C13.5994 0.196441 13.3207 0.121276 13.037 0.121338C12.7533 0.1214 12.4747 0.196687 12.229 0.33963" fill="#079AE1"/>
<path d="M14.8549 17.463V14.5374C14.8549 14.2092 14.6816 13.9062 14.4003 13.7424L2.27871 6.68131C2.14045 6.60091 1.98366 6.55859 1.82407 6.55859C1.66449 6.55859 1.5077 6.60091 1.36944 6.68131L0.806672 7.00903C0.561399 7.15194 0.35773 7.35748 0.21613 7.60498C0.074531 7.85247 -8.82917e-06 8.13321 7.84406e-10 8.41899V21.7208C0.000145944 22.0065 0.0747533 22.2871 0.216339 22.5346C0.357924 22.782 0.561508 22.9875 0.806672 23.1305L12.2249 29.782C12.4702 29.9247 12.7483 29.9998 13.0315 29.9999C13.3146 30 13.5928 29.9249 13.8381 29.7823L14.3998 29.4549C14.5382 29.3744 14.6532 29.2586 14.7331 29.119C14.813 28.9795 14.8551 28.8211 14.8551 28.66V21.0657C14.8551 20.738 14.6816 20.4345 14.4003 20.2707L6.28406 15.5428C5.98115 15.3661 5.60241 15.587 5.60241 15.9399V19.1305C5.60241 19.2943 5.68891 19.446 5.82934 19.528L11.2074 22.6606V24.9387L3.64763 20.5352V20.5053H3.64517V12.4418L3.64763 11.7288L14.1732 17.8601C14.4762 18.0368 14.8549 17.8159 14.8549 17.463Z" fill="#2056AE"/>
</g>
<defs>
<clipPath id="clip0_2957_1640">
<rect width="150" height="30" fill="white"/>
</clipPath>
</defs>
</svg>
