<svg width="330" height="230" viewBox="0 0 330 230" fill="none" xmlns="http://www.w3.org/2000/svg">
<path d="M0 0H330V30H0V0Z" fill="#E7E7E7"/>
<mask id="path-2-inside-1_3397_3184" fill="white">
<path d="M0 0H110V30H0V0Z"/>
</mask>
<path d="M0 0V1H110V0V-1H0V0ZM110 30V29H0V30V31H110V30Z" fill="#BBBFCF" mask="url(#path-2-inside-1_3397_3184)"/>
<path d="M48.2969 9.85938C49.9258 9.84766 51.1094 10.7793 51.1094 12.1211C51.1094 13.4512 49.9258 14.3945 48.2969 14.3828C46.6738 14.3945 45.4902 13.4512 45.4961 12.1211C45.4902 10.7793 46.6738 9.84766 48.2969 9.85938ZM44.8398 15.0391C46.7324 15.0332 49.4102 14.998 51.6836 14.6523L51.7773 15.7539C50.8984 15.9297 49.9961 16.041 49.1055 16.1113V19.7617H47.6172V16.1992C46.6797 16.2402 45.7949 16.2461 45.0273 16.2578L44.8398 15.0391ZM46.9375 12.1211C46.9316 12.7891 47.5 13.1758 48.2969 13.1641C49.1172 13.1758 49.6914 12.7891 49.6914 12.1211C49.6914 11.4414 49.1172 11.0488 48.2969 11.0547C47.5 11.0488 46.9316 11.4414 46.9375 12.1211ZM52.3281 20.0781V9.42578H53.8047V20.0781H52.3281ZM64.1055 9.41406V20.0781H62.6055V9.41406H64.1055ZM55.2461 16.9375C56.998 16.1699 57.8652 14.377 57.8711 12.7539V12.3438H55.5977V11.1484H57.8594V9.64844H59.3477V11.1484H61.5742V12.3438H59.3594V12.7539C59.3594 14.3008 60.2324 16.041 62.0078 16.7734L61.1992 17.9219C59.9863 17.4238 59.1191 16.4043 58.6328 15.1797C58.1582 16.4746 57.2852 17.5645 56.043 18.0859L55.2461 16.9375Z" fill="#55596C"/>
<mask id="path-5-inside-2_3397_3184" fill="white">
<path d="M110 0H160V30H110V0Z"/>
</mask>
<path d="M110 0V1H160V0V-1H110V0ZM160 30V29H110V30V31H160V30Z" fill="#BBBFCF" mask="url(#path-5-inside-2_3397_3184)"/>
<path d="M134.566 15.5664V16.7383H130.395V20.0781H128.918V16.7383H124.805V15.5664H134.566ZM125.953 14.5352V9.82422H127.43V11.0547H131.906V9.82422H133.406V14.5352H125.953ZM127.43 13.3398H131.906V12.2266H127.43V13.3398ZM138.668 9.85938C140.297 9.84766 141.48 10.7793 141.48 12.1211C141.48 13.4512 140.297 14.3945 138.668 14.3828C137.045 14.3945 135.861 13.4512 135.867 12.1211C135.861 10.7793 137.045 9.84766 138.668 9.85938ZM135.211 15.0391C137.104 15.0332 139.781 14.998 142.055 14.6523L142.148 15.7539C141.27 15.9297 140.367 16.041 139.477 16.1113V19.7617H137.988V16.1992C137.051 16.2402 136.166 16.2461 135.398 16.2578L135.211 15.0391ZM137.309 12.1211C137.303 12.7891 137.871 13.1758 138.668 13.1641C139.488 13.1758 140.062 12.7891 140.062 12.1211C140.062 11.4414 139.488 11.0488 138.668 11.0547C137.871 11.0488 137.303 11.4414 137.309 12.1211ZM142.699 20.0781V9.42578H144.176V20.0781H142.699Z" fill="#55596C"/>
<mask id="path-8-inside-3_3397_3184" fill="white">
<path d="M160 0H205V30H160V0Z"/>
</mask>
<path d="M160 0V1H205V0V-1H160V0ZM205 30V29H160V30V31H205V30Z" fill="#BBBFCF" mask="url(#path-8-inside-3_3397_3184)"/>
<path d="M172.289 10.293V11.5117H168.75V13.2695H172.137V14.4414H168.75V16.457C170.273 16.4395 171.521 16.375 172.945 16.1523L173.086 17.3594C171.457 17.6055 170.004 17.6523 168.141 17.6523H167.238V10.293H172.289ZM173.73 20.0781V9.41406H175.23V13.457H176.801V14.7109H175.23V20.0781H173.73ZM186.176 9.41406V14.8398H184.688V12.1914H182.684V11.0078H184.688V9.41406H186.176ZM177.105 13.7383C178.875 13.2168 179.666 11.916 179.672 10.5391V9.76562H181.184V10.5391C181.178 11.8105 181.922 13.0469 183.621 13.5508L182.836 14.6992C181.693 14.3359 180.896 13.6211 180.434 12.707C179.965 13.7324 179.127 14.5293 177.879 14.9219L177.105 13.7383ZM179.086 16.4336V15.2852H186.176V18.1328H180.574V18.7891H186.48V19.9609H179.098V17.043H184.699V16.4336H179.086ZM197.461 10.8438V12.0859H196.02V13.1055H197.461V14.3359H196.02V15.8594H194.52V9.42578H196.02V10.8438H197.461ZM187.934 11.2305V10.0586H192.832V13.2344H189.434V14.1719C191.191 14.1602 192.387 14.0957 193.746 13.8555L193.91 15.0508C192.381 15.3379 191.01 15.3906 188.848 15.3906H187.945V12.1094H191.379V11.2305H187.934ZM188.848 18.0742C188.848 16.791 190.248 16.0234 192.504 16.0234C194.719 16.0234 196.119 16.791 196.125 18.0742C196.119 19.334 194.719 20.0664 192.504 20.0664C190.248 20.0664 188.848 19.334 188.848 18.0742ZM190.324 18.0742C190.312 18.6543 191.08 18.9531 192.504 18.9531C193.91 18.9531 194.648 18.6543 194.648 18.0742C194.648 17.4824 193.91 17.1777 192.504 17.1836C191.08 17.1777 190.312 17.4824 190.324 18.0742Z" fill="#55596C"/>
<mask id="path-11-inside-4_3397_3184" fill="white">
<path d="M205 0H275V30H205V0Z"/>
</mask>
<path d="M205 0V1H275V0V-1H205V0ZM275 30V29H205V30V31H275V30Z" fill="#BBBFCF" mask="url(#path-11-inside-4_3397_3184)"/>
<path d="M229.789 10.293V11.5117H226.25V13.2695H229.637V14.4414H226.25V16.457C227.773 16.4395 229.021 16.375 230.445 16.1523L230.586 17.3594C228.957 17.6055 227.504 17.6523 225.641 17.6523H224.738V10.293H229.789ZM231.23 20.0781V9.41406H232.73V13.457H234.301V14.7109H232.73V20.0781H231.23ZM243.676 9.41406V14.8398H242.188V12.1914H240.184V11.0078H242.188V9.41406H243.676ZM234.605 13.7383C236.375 13.2168 237.166 11.916 237.172 10.5391V9.76562H238.684V10.5391C238.678 11.8105 239.422 13.0469 241.121 13.5508L240.336 14.6992C239.193 14.3359 238.396 13.6211 237.934 12.707C237.465 13.7324 236.627 14.5293 235.379 14.9219L234.605 13.7383ZM236.586 16.4336V15.2852H243.676V18.1328H238.074V18.7891H243.98V19.9609H236.598V17.043H242.199V16.4336H236.586ZM248.094 9.73047C249.717 9.72461 250.936 10.7441 250.941 12.168C250.936 13.5801 249.717 14.5879 248.094 14.5938C246.447 14.5879 245.223 13.5801 245.223 12.168C245.223 10.7441 246.447 9.72461 248.094 9.73047ZM246.676 12.168C246.664 12.9297 247.268 13.3809 248.094 13.3867C248.902 13.3809 249.494 12.9297 249.5 12.168C249.494 11.4004 248.902 10.9492 248.094 10.9492C247.273 10.9492 246.664 11.4004 246.676 12.168ZM246.828 16.3516V15.2031H253.988V18.0977H248.316V18.7891H254.281V19.9609H246.852V17.0078H252.5V16.3516H246.828ZM252.488 14.7578V9.41406H253.988V14.7578H252.488Z" fill="#55596C"/>
<mask id="path-14-inside-5_3397_3184" fill="white">
<path d="M275 0H330V30H275V0Z"/>
</mask>
<path d="M275 0V1H330V0V-1H275V0ZM330 30V29H275V30V31H330V30Z" fill="#BBBFCF" mask="url(#path-14-inside-5_3397_3184)"/>
<path d="M296.207 11.0898C296.201 12.3848 296.957 13.627 298.645 14.1484L297.848 15.3086C296.717 14.9336 295.926 14.207 295.469 13.2754C295.006 14.3477 294.18 15.1914 292.961 15.6016L292.152 14.4297C293.934 13.8379 294.695 12.4199 294.707 10.9492V9.97656H296.207V11.0898ZM293.629 18.0156C293.623 16.7207 295.035 15.9531 297.285 15.9531C299.494 15.9531 300.877 16.7207 300.883 18.0156C300.877 19.3223 299.494 20.084 297.285 20.0781C295.035 20.084 293.623 19.3223 293.629 18.0156ZM295.129 18.0156C295.117 18.6191 295.885 18.9062 297.285 18.9062C298.668 18.9062 299.406 18.6191 299.406 18.0156C299.406 17.4355 298.668 17.125 297.285 17.125C295.885 17.125 295.117 17.4355 295.129 18.0156ZM299.277 15.7422V9.41406H300.777V11.9102H302.219V13.1523H300.777V15.7422H299.277ZM307.398 10.5273V11.7109H304.48V13.3164H307.188V14.4648H304.48V16.3867C305.682 16.375 306.561 16.334 307.598 16.1875L307.703 17.4062C306.473 17.5996 305.424 17.6406 303.801 17.6406H303.051V10.5273H307.398ZM308.172 19.5859V9.56641H309.578V13.5508H310.504V9.41406H311.934V20.0781H310.504V14.7461H309.578V19.5859H308.172Z" fill="#55596C"/>
<path d="M41.8125 54H40.7109L43.8164 45.5156H44.9297L48.0352 54H46.9219L46.0723 51.6094H42.6621L41.8125 54ZM42.9844 50.6836H45.75L44.4023 46.8867H44.332L42.9844 50.6836ZM56.9062 45.2109V46.125C56.9062 47.1094 56.9062 48.1934 56.6074 49.6875H58.1602V50.4492H53.8594V54.9727H52.9336V50.4492H48.668V49.6875H55.6758C55.9922 48.1875 55.9922 47.0977 55.9922 46.125V45.9727H49.8633V45.2109H56.9062ZM67.6758 51.2461V54.9492H66.75V51.9844H60.668V51.2461H67.6758ZM59.2031 47.6133C59.1973 46.1602 60.3516 45.123 61.9102 45.1289C62.8125 45.123 63.5801 45.4805 64.0605 46.0664H66.75V44.5312H67.6758V50.6719H66.75V49.1719H64.0664C63.5859 49.7637 62.8184 50.1152 61.9102 50.1094C60.3516 50.1211 59.1973 49.0957 59.2031 47.6133ZM60.082 47.6133C60.082 48.627 60.8438 49.3359 61.9102 49.3359C62.9355 49.3359 63.7148 48.627 63.7148 47.6133C63.7148 46.6348 62.9355 45.9141 61.9102 45.9141C60.8438 45.9141 60.082 46.6348 60.082 47.6133ZM64.4824 48.4102H66.75V46.8281H64.4766C64.5586 47.0742 64.6055 47.332 64.6055 47.6133C64.6055 47.8945 64.5586 48.1641 64.4824 48.4102Z" fill="#333333"/>
<path d="M133.535 44.5312V54.9492H132.609V44.5312H133.535ZM125.051 52.2422C127.869 50.9062 129.311 48.9082 129.516 46.418H125.531V45.668H130.453C130.441 48.6621 129.047 51.3164 125.555 52.9922L125.051 52.2422ZM144.832 52.8633V53.6367H135.293V52.8633H139.594V50.4727H140.496V52.8633H144.832ZM135.82 50.1211C137.83 49.7988 139.57 48.5859 139.582 46.957H136.184V46.1953H139.594V44.7539H140.496V46.1953H143.918V46.957H140.52C140.52 48.5859 142.26 49.7988 144.258 50.1211L143.906 50.8477C142.242 50.5547 140.713 49.7109 140.045 48.4043C139.389 49.7109 137.859 50.5547 136.184 50.8477L135.82 50.1211Z" fill="#55596C"/>
<path d="M167.797 45.5156V54H166.73V46.6172H166.684L164.621 47.9883V46.9219L166.73 45.5156H167.797ZM172.836 54.1172C170.955 54.1172 169.865 52.5352 169.871 49.7578C169.865 47.0039 170.967 45.3984 172.836 45.3984C174.699 45.3984 175.801 47.0039 175.801 49.7578C175.801 52.5352 174.717 54.1172 172.836 54.1172ZM170.891 49.7578C170.896 51.9551 171.605 53.1797 172.836 53.1797C174.061 53.1797 174.775 51.9551 174.77 49.7578C174.775 47.5605 174.055 46.3184 172.836 46.3125C171.617 46.3184 170.896 47.5605 170.891 49.7578ZM179.984 54.1172C178.104 54.1172 177.014 52.5352 177.02 49.7578C177.014 47.0039 178.115 45.3984 179.984 45.3984C181.848 45.3984 182.949 47.0039 182.949 49.7578C182.949 52.5352 181.865 54.1172 179.984 54.1172ZM178.039 49.7578C178.045 51.9551 178.754 53.1797 179.984 53.1797C181.209 53.1797 181.924 51.9551 181.918 49.7578C181.924 47.5605 181.203 46.3184 179.984 46.3125C178.766 46.3184 178.045 47.5605 178.039 49.7578ZM187.133 54.1172C185.252 54.1172 184.162 52.5352 184.168 49.7578C184.162 47.0039 185.264 45.3984 187.133 45.3984C188.996 45.3984 190.098 47.0039 190.098 49.7578C190.098 52.5352 189.014 54.1172 187.133 54.1172ZM185.188 49.7578C185.193 51.9551 185.902 53.1797 187.133 53.1797C188.357 53.1797 189.072 51.9551 189.066 49.7578C189.072 47.5605 188.352 46.3184 187.133 46.3125C185.914 46.3184 185.193 47.5605 185.188 49.7578ZM191.926 54.0703C191.516 54.0645 191.164 53.7246 191.176 53.3086C191.164 52.8984 191.516 52.5586 191.926 52.5586C192.342 52.5586 192.682 52.8984 192.676 53.3086C192.682 53.7246 192.342 54.0645 191.926 54.0703ZM194.246 54L194.234 53.2266L197.129 50.1797C198.131 49.1133 198.611 48.5391 198.617 47.7539C198.611 46.8809 197.885 46.3184 196.93 46.3125C195.916 46.3184 195.283 46.957 195.277 47.9062H194.281C194.27 46.4062 195.43 45.3984 196.965 45.3984C198.506 45.3984 199.596 46.4355 199.602 47.7539C199.596 48.7031 199.156 49.4414 197.656 50.9883L195.711 52.9922V53.0625H199.754V54H194.246Z" fill="#55596C"/>
<path d="M216.297 54L216.285 53.2266L219.18 50.1797C220.182 49.1133 220.662 48.5391 220.668 47.7539C220.662 46.8809 219.936 46.3184 218.98 46.3125C217.967 46.3184 217.334 46.957 217.328 47.9062H216.332C216.32 46.4062 217.48 45.3984 219.016 45.3984C220.557 45.3984 221.646 46.4355 221.652 47.7539C221.646 48.7031 221.207 49.4414 219.707 50.9883L217.762 52.9922V53.0625H221.805V54H216.297ZM226.293 54.1172C224.822 54.0996 223.199 53.2266 223.199 50.0859C223.199 47.0801 224.43 45.3984 226.422 45.3984C227.916 45.3984 228.959 46.3184 229.176 47.6484H228.133C227.939 46.8984 227.365 46.3359 226.422 46.3359C225.027 46.3359 224.189 47.5254 224.195 49.5703H224.301C224.787 48.8613 225.566 48.4453 226.48 48.4453C227.986 48.4453 229.246 49.6172 229.246 51.2578C229.246 52.8574 228.08 54.1348 226.293 54.1172ZM224.336 51.2812C224.342 52.2773 225.156 53.1855 226.293 53.1914C227.389 53.1855 228.221 52.3242 228.227 51.2695C228.221 50.2266 227.424 49.377 226.316 49.3711C225.203 49.377 224.348 50.2793 224.336 51.2812ZM231.027 54.0703C230.617 54.0645 230.266 53.7246 230.277 53.3086C230.266 52.8984 230.617 52.5586 231.027 52.5586C231.443 52.5586 231.783 52.8984 231.777 53.3086C231.783 53.7246 231.443 54.0645 231.027 54.0703ZM235.82 54.1172C233.939 54.1172 232.85 52.5352 232.855 49.7578C232.85 47.0039 233.951 45.3984 235.82 45.3984C237.684 45.3984 238.785 47.0039 238.785 49.7578C238.785 52.5352 237.701 54.1172 235.82 54.1172ZM233.875 49.7578C233.881 51.9551 234.59 53.1797 235.82 53.1797C237.045 53.1797 237.76 51.9551 237.754 49.7578C237.76 47.5605 237.039 46.3184 235.82 46.3125C234.602 46.3184 233.881 47.5605 233.875 49.7578ZM240.191 54L240.18 53.2266L243.074 50.1797C244.076 49.1133 244.557 48.5391 244.562 47.7539C244.557 46.8809 243.83 46.3184 242.875 46.3125C241.861 46.3184 241.229 46.957 241.223 47.9062H240.227C240.215 46.4062 241.375 45.3984 242.91 45.3984C244.451 45.3984 245.541 46.4355 245.547 47.7539C245.541 48.7031 245.102 49.4414 243.602 50.9883L241.656 52.9922V53.0625H245.699V54H240.191ZM247.961 54.0703C247.551 54.0645 247.199 53.7246 247.211 53.3086C247.199 52.8984 247.551 52.5586 247.961 52.5586C248.377 52.5586 248.717 52.8984 248.711 53.3086C248.717 53.7246 248.377 54.0645 247.961 54.0703ZM250.281 54L250.27 53.2266L253.164 50.1797C254.166 49.1133 254.646 48.5391 254.652 47.7539C254.646 46.8809 253.92 46.3184 252.965 46.3125C251.951 46.3184 251.318 46.957 251.312 47.9062H250.316C250.305 46.4062 251.465 45.3984 253 45.3984C254.541 45.3984 255.631 46.4355 255.637 47.7539C255.631 48.7031 255.191 49.4414 253.691 50.9883L251.746 52.9922V53.0625H255.789V54H250.281ZM260.16 54.1172C258.373 54.1172 257.143 53.127 257.148 51.75C257.143 50.6543 257.904 49.7461 258.871 49.5938V49.5469C258.027 49.3535 257.471 48.5742 257.477 47.6484C257.471 46.3535 258.607 45.3984 260.16 45.3984C261.707 45.3984 262.844 46.3535 262.855 47.6484C262.844 48.5742 262.281 49.3535 261.449 49.5469V49.5938C262.41 49.7461 263.172 50.6543 263.184 51.75C263.172 53.127 261.93 54.1172 260.16 54.1172ZM258.203 51.6914C258.186 52.582 258.941 53.1855 260.16 53.1914C261.373 53.1855 262.129 52.582 262.129 51.6914C262.129 50.7539 261.303 50.0625 260.16 50.0625C259.023 50.0625 258.186 50.7539 258.203 51.6914ZM258.496 47.7305C258.502 48.5859 259.188 49.166 260.16 49.1719C261.127 49.166 261.824 48.5859 261.824 47.7305C261.824 46.8809 261.15 46.3066 260.16 46.3125C259.152 46.3066 258.502 46.8809 258.496 47.7305Z" fill="#55596C"/>
<path d="M291.613 46.1133V46.875H290.066V48.3281H291.613V49.1016H290.066V50.7188H289.152V44.5312H290.066V46.1133H291.613ZM282.121 47.6133C282.115 46.1602 283.275 45.1582 284.852 45.1641C286.439 45.1582 287.582 46.1602 287.594 47.6133C287.582 49.0605 286.439 50.0566 284.852 50.0625C283.275 50.0566 282.115 49.0605 282.121 47.6133ZM283.023 47.6133C283.018 48.5977 283.797 49.2773 284.852 49.2891C285.918 49.2773 286.686 48.5977 286.691 47.6133C286.686 46.6348 285.918 45.9375 284.852 45.9492C283.797 45.9375 283.018 46.6348 283.023 47.6133ZM283.27 52.9922C283.275 51.7559 284.6 51.041 286.727 51.0352C288.854 51.041 290.16 51.7559 290.16 52.9922C290.16 54.2051 288.854 54.9258 286.727 54.9258C284.6 54.9258 283.275 54.2051 283.27 52.9922ZM284.195 52.9922C284.184 53.7422 285.156 54.1816 286.727 54.1875C288.303 54.1816 289.264 53.7422 289.27 52.9922C289.264 52.2363 288.303 51.7852 286.727 51.7852C285.156 51.7852 284.184 52.2363 284.195 52.9922ZM295.398 46.6055C295.404 47.7598 296.207 48.9258 297.543 49.4297L297.062 50.1328C296.061 49.7461 295.34 49.002 294.965 48.1055C294.584 49.0957 293.834 49.9805 292.809 50.4258L292.305 49.7109C293.676 49.1133 294.514 47.7656 294.52 46.6055V45.1875H295.398V46.6055ZM294.203 53.0742C294.191 51.8965 295.527 51.2051 297.695 51.2109C299.852 51.2051 301.193 51.8965 301.199 53.0742C301.193 54.2402 299.852 54.9258 297.695 54.9258C295.527 54.9258 294.191 54.2402 294.203 53.0742ZM295.117 53.0742C295.105 53.7832 296.096 54.2168 297.695 54.2109C299.277 54.2168 300.273 53.7832 300.285 53.0742C300.273 52.3535 299.277 51.9199 297.695 51.9141C296.096 51.9199 295.105 52.3535 295.117 53.0742ZM298.012 50.6484V44.7422H298.879V47.3438H300.262V44.543H301.141V50.9766H300.262V48.1055H298.879V50.6484H298.012ZM305.84 45.0234C307.363 45.0234 308.424 45.8438 308.43 47.0859C308.424 48.1641 307.586 48.9375 306.332 49.0957V50.1152C307.305 50.0625 308.295 49.9746 309.203 49.8398L309.273 50.5312C307.064 50.9238 304.568 50.959 302.77 50.9531L302.652 50.1914C303.461 50.1973 304.41 50.1914 305.406 50.1562V49.1016C304.117 48.9609 303.256 48.1816 303.262 47.0859C303.256 45.8438 304.316 45.0234 305.84 45.0234ZM304.129 47.0859C304.117 47.877 304.826 48.416 305.84 48.4219C306.859 48.416 307.557 47.877 307.562 47.0859C307.557 46.2773 306.859 45.7383 305.84 45.7383C304.826 45.7383 304.117 46.2773 304.129 47.0859ZM304.176 54.7148V51.8203H305.102V53.9414H311.172V54.7148H304.176ZM309.871 52.5117V44.543H310.797V48.0703H312.355V48.8555H310.797V52.5117H309.871ZM322.574 52.8867V53.6602H313.035V52.8867H315.719V50.9062H314.23V47.6953H320.465V46.0664H314.207V45.3047H321.367V48.457H315.145V50.1445H321.613V50.9062H319.984V52.8867H322.574ZM316.621 52.8867H319.082V50.9062H316.621V52.8867Z" fill="#55596C"/>
<path d="M41.4375 94V85.5156H44.4141C46.1953 85.5156 47.0332 86.5176 47.0273 87.7656C47.0332 88.8555 46.3828 89.3418 45.6445 89.5469V89.6289C46.4355 89.6758 47.3613 90.4023 47.3672 91.75C47.3613 93.0215 46.5234 94 44.5195 94H41.4375ZM42.4922 93.0625H44.5078C45.8379 93.0625 46.3535 92.4766 46.3477 91.7383C46.3535 90.877 45.6562 90.1445 44.5664 90.1445H42.4922V93.0625ZM42.4922 89.2305H44.3789C45.2988 89.2363 46.0195 88.6621 46.0195 87.7773C46.0195 87.0391 45.5215 86.4531 44.4141 86.4531H42.4922V89.2305ZM56.5898 85.2109V86.125C56.5898 87.1094 56.5898 88.1934 56.291 89.6875H57.8438V90.4492H53.543V94.9727H52.6172V90.4492H48.3516V89.6875H55.3594C55.6758 88.1875 55.6758 87.0977 55.6758 86.125V85.9727H49.5469V85.2109H56.5898ZM67.3594 91.2461V94.9492H66.4336V91.9844H60.3516V91.2461H67.3594ZM58.8867 87.6133C58.8809 86.1602 60.0352 85.123 61.5938 85.1289C62.4961 85.123 63.2637 85.4805 63.7441 86.0664H66.4336V84.5312H67.3594V90.6719H66.4336V89.1719H63.75C63.2695 89.7637 62.502 90.1152 61.5938 90.1094C60.0352 90.1211 58.8809 89.0957 58.8867 87.6133ZM59.7656 87.6133C59.7656 88.627 60.5273 89.3359 61.5938 89.3359C62.6191 89.3359 63.3984 88.627 63.3984 87.6133C63.3984 86.6348 62.6191 85.9141 61.5938 85.9141C60.5273 85.9141 59.7656 86.6348 59.7656 87.6133ZM64.166 88.4102H66.4336V86.8281H64.1602C64.2422 87.0742 64.2891 87.332 64.2891 87.6133C64.2891 87.8945 64.2422 88.1641 64.166 88.4102Z" fill="#333333"/>
<path d="M126.363 85.1523V86.8867H129.27V85.1523H130.172V86.207H132.633V84.5312H133.559V90.7305H132.633V89.0898H130.172V90.1328H125.449V85.1523H126.363ZM126.363 89.3711H129.27V87.6133H126.363V89.3711ZM126.551 92.0312V91.2812H133.559V94.9492H132.633V92.0312H126.551ZM130.172 88.3281H132.633V86.9688H130.172V88.3281ZM138.34 87.7422C138.346 89.418 139.195 91.1348 140.613 91.8906L140.086 92.582C139.049 92.0137 138.299 90.9355 137.918 89.6816C137.549 91.0176 136.805 92.1895 135.762 92.8164L135.211 92.1133C136.629 91.293 137.467 89.4648 137.473 87.7422V87.2266H135.492V86.4648H137.473V84.918H138.352V86.4648H140.297V87.2266H138.34V87.7422ZM139.582 89.4297V88.6445H141.223V84.7891H142.09V94.4102H141.223V89.4297H139.582ZM143.32 94.9492V84.5312H144.199V94.9492H143.32Z" fill="#55596C"/>
<path d="M172.562 94.1172C171.033 94.1172 169.873 93.1738 169.809 91.8672H170.828C170.904 92.623 171.643 93.1855 172.562 93.1914C173.664 93.1855 174.461 92.3828 174.461 91.3164C174.461 90.2148 173.635 89.4004 172.492 89.3945C171.777 89.3828 171.221 89.6055 170.91 90.1562H169.891L170.488 85.5156H175.082V86.4531H171.367L171.051 88.9375H171.133C171.514 88.6445 172.082 88.4453 172.68 88.4453C174.297 88.4453 175.486 89.6406 175.492 91.293C175.486 92.9336 174.256 94.1172 172.562 94.1172ZM176.957 94L176.945 93.2266L179.84 90.1797C180.842 89.1133 181.322 88.5391 181.328 87.7539C181.322 86.8809 180.596 86.3184 179.641 86.3125C178.627 86.3184 177.994 86.957 177.988 87.9062H176.992C176.98 86.4062 178.141 85.3984 179.676 85.3984C181.217 85.3984 182.307 86.4355 182.312 87.7539C182.307 88.7031 181.867 89.4414 180.367 90.9883L178.422 92.9922V93.0625H182.465V94H176.957ZM187 85.5156V94H185.934V86.6172H185.887L183.824 87.9883V86.9219L185.934 85.5156H187ZM189.484 94.0703C189.074 94.0645 188.723 93.7246 188.734 93.3086C188.723 92.8984 189.074 92.5586 189.484 92.5586C189.9 92.5586 190.24 92.8984 190.234 93.3086C190.24 93.7246 189.9 94.0645 189.484 94.0703ZM193.785 85.5156V94H192.719V86.6172H192.672L190.609 87.9883V86.9219L192.719 85.5156H193.785Z" fill="#55596C"/>
<path d="M216.297 94L216.285 93.2266L219.18 90.1797C220.182 89.1133 220.662 88.5391 220.668 87.7539C220.662 86.8809 219.936 86.3184 218.98 86.3125C217.967 86.3184 217.334 86.957 217.328 87.9062H216.332C216.32 86.4062 217.48 85.3984 219.016 85.3984C220.557 85.3984 221.646 86.4355 221.652 87.7539C221.646 88.7031 221.207 89.4414 219.707 90.9883L217.762 92.9922V93.0625H221.805V94H216.297ZM226.293 94.1172C224.822 94.0996 223.199 93.2266 223.199 90.0859C223.199 87.0801 224.43 85.3984 226.422 85.3984C227.916 85.3984 228.959 86.3184 229.176 87.6484H228.133C227.939 86.8984 227.365 86.3359 226.422 86.3359C225.027 86.3359 224.189 87.5254 224.195 89.5703H224.301C224.787 88.8613 225.566 88.4453 226.48 88.4453C227.986 88.4453 229.246 89.6172 229.246 91.2578C229.246 92.8574 228.08 94.1348 226.293 94.1172ZM224.336 91.2812C224.342 92.2773 225.156 93.1855 226.293 93.1914C227.389 93.1855 228.221 92.3242 228.227 91.2695C228.221 90.2266 227.424 89.377 226.316 89.3711C225.203 89.377 224.348 90.2793 224.336 91.2812ZM231.027 94.0703C230.617 94.0645 230.266 93.7246 230.277 93.3086C230.266 92.8984 230.617 92.5586 231.027 92.5586C231.443 92.5586 231.783 92.8984 231.777 93.3086C231.783 93.7246 231.443 94.0645 231.027 94.0703ZM235.82 94.1172C233.939 94.1172 232.85 92.5352 232.855 89.7578C232.85 87.0039 233.951 85.3984 235.82 85.3984C237.684 85.3984 238.785 87.0039 238.785 89.7578C238.785 92.5352 237.701 94.1172 235.82 94.1172ZM233.875 89.7578C233.881 91.9551 234.59 93.1797 235.82 93.1797C237.045 93.1797 237.76 91.9551 237.754 89.7578C237.76 87.5605 237.039 86.3184 235.82 86.3125C234.602 86.3184 233.881 87.5605 233.875 89.7578ZM240.191 94L240.18 93.2266L243.074 90.1797C244.076 89.1133 244.557 88.5391 244.562 87.7539C244.557 86.8809 243.83 86.3184 242.875 86.3125C241.861 86.3184 241.229 86.957 241.223 87.9062H240.227C240.215 86.4062 241.375 85.3984 242.91 85.3984C244.451 85.3984 245.541 86.4355 245.547 87.7539C245.541 88.7031 245.102 89.4414 243.602 90.9883L241.656 92.9922V93.0625H245.699V94H240.191ZM247.961 94.0703C247.551 94.0645 247.199 93.7246 247.211 93.3086C247.199 92.8984 247.551 92.5586 247.961 92.5586C248.377 92.5586 248.717 92.8984 248.711 93.3086C248.717 93.7246 248.377 94.0645 247.961 94.0703ZM250.281 94L250.27 93.2266L253.164 90.1797C254.166 89.1133 254.646 88.5391 254.652 87.7539C254.646 86.8809 253.92 86.3184 252.965 86.3125C251.951 86.3184 251.318 86.957 251.312 87.9062H250.316C250.305 86.4062 251.465 85.3984 253 85.3984C254.541 85.3984 255.631 86.4355 255.637 87.7539C255.631 88.7031 255.191 89.4414 253.691 90.9883L251.746 92.9922V93.0625H255.789V94H250.281ZM260.16 94.1172C258.373 94.1172 257.143 93.127 257.148 91.75C257.143 90.6543 257.904 89.7461 258.871 89.5938V89.5469C258.027 89.3535 257.471 88.5742 257.477 87.6484C257.471 86.3535 258.607 85.3984 260.16 85.3984C261.707 85.3984 262.844 86.3535 262.855 87.6484C262.844 88.5742 262.281 89.3535 261.449 89.5469V89.5938C262.41 89.7461 263.172 90.6543 263.184 91.75C263.172 93.127 261.93 94.1172 260.16 94.1172ZM258.203 91.6914C258.186 92.582 258.941 93.1855 260.16 93.1914C261.373 93.1855 262.129 92.582 262.129 91.6914C262.129 90.7539 261.303 90.0625 260.16 90.0625C259.023 90.0625 258.186 90.7539 258.203 91.6914ZM258.496 87.7305C258.502 88.5859 259.188 89.166 260.16 89.1719C261.127 89.166 261.824 88.5859 261.824 87.7305C261.824 86.8809 261.15 86.3066 260.16 86.3125C259.152 86.3066 258.502 86.8809 258.496 87.7305Z" fill="#55596C"/>
<path d="M291.613 86.1133V86.875H290.066V88.3281H291.613V89.1016H290.066V90.7188H289.152V84.5312H290.066V86.1133H291.613ZM282.121 87.6133C282.115 86.1602 283.275 85.1582 284.852 85.1641C286.439 85.1582 287.582 86.1602 287.594 87.6133C287.582 89.0605 286.439 90.0566 284.852 90.0625C283.275 90.0566 282.115 89.0605 282.121 87.6133ZM283.023 87.6133C283.018 88.5977 283.797 89.2773 284.852 89.2891C285.918 89.2773 286.686 88.5977 286.691 87.6133C286.686 86.6348 285.918 85.9375 284.852 85.9492C283.797 85.9375 283.018 86.6348 283.023 87.6133ZM283.27 92.9922C283.275 91.7559 284.6 91.041 286.727 91.0352C288.854 91.041 290.16 91.7559 290.16 92.9922C290.16 94.2051 288.854 94.9258 286.727 94.9258C284.6 94.9258 283.275 94.2051 283.27 92.9922ZM284.195 92.9922C284.184 93.7422 285.156 94.1816 286.727 94.1875C288.303 94.1816 289.264 93.7422 289.27 92.9922C289.264 92.2363 288.303 91.7852 286.727 91.7852C285.156 91.7852 284.184 92.2363 284.195 92.9922ZM295.398 86.6055C295.404 87.7598 296.207 88.9258 297.543 89.4297L297.062 90.1328C296.061 89.7461 295.34 89.002 294.965 88.1055C294.584 89.0957 293.834 89.9805 292.809 90.4258L292.305 89.7109C293.676 89.1133 294.514 87.7656 294.52 86.6055V85.1875H295.398V86.6055ZM294.203 93.0742C294.191 91.8965 295.527 91.2051 297.695 91.2109C299.852 91.2051 301.193 91.8965 301.199 93.0742C301.193 94.2402 299.852 94.9258 297.695 94.9258C295.527 94.9258 294.191 94.2402 294.203 93.0742ZM295.117 93.0742C295.105 93.7832 296.096 94.2168 297.695 94.2109C299.277 94.2168 300.273 93.7832 300.285 93.0742C300.273 92.3535 299.277 91.9199 297.695 91.9141C296.096 91.9199 295.105 92.3535 295.117 93.0742ZM298.012 90.6484V84.7422H298.879V87.3438H300.262V84.543H301.141V90.9766H300.262V88.1055H298.879V90.6484H298.012ZM305.84 85.0234C307.363 85.0234 308.424 85.8438 308.43 87.0859C308.424 88.1641 307.586 88.9375 306.332 89.0957V90.1152C307.305 90.0625 308.295 89.9746 309.203 89.8398L309.273 90.5312C307.064 90.9238 304.568 90.959 302.77 90.9531L302.652 90.1914C303.461 90.1973 304.41 90.1914 305.406 90.1562V89.1016C304.117 88.9609 303.256 88.1816 303.262 87.0859C303.256 85.8438 304.316 85.0234 305.84 85.0234ZM304.129 87.0859C304.117 87.877 304.826 88.416 305.84 88.4219C306.859 88.416 307.557 87.877 307.562 87.0859C307.557 86.2773 306.859 85.7383 305.84 85.7383C304.826 85.7383 304.117 86.2773 304.129 87.0859ZM304.176 94.7148V91.8203H305.102V93.9414H311.172V94.7148H304.176ZM309.871 92.5117V84.543H310.797V88.0703H312.355V88.8555H310.797V92.5117H309.871ZM322.574 92.8867V93.6602H313.035V92.8867H315.719V90.9062H314.23V87.6953H320.465V86.0664H314.207V85.3047H321.367V88.457H315.145V90.1445H321.613V90.9062H319.984V92.8867H322.574ZM316.621 92.8867H319.082V90.9062H316.621V92.8867Z" fill="#55596C"/>
<path d="M46.7266 128.188C46.4805 127.016 45.4785 126.383 44.3594 126.383C42.8242 126.383 41.6348 127.566 41.6289 129.758C41.6348 131.943 42.8242 133.127 44.3594 133.133C45.4785 133.127 46.4746 132.5 46.7266 131.34H47.7812C47.4766 133.074 46.082 134.117 44.3594 134.117C42.1797 134.117 40.6035 132.441 40.6094 129.758C40.6035 127.074 42.1797 125.398 44.3594 125.398C46.0762 125.398 47.4648 126.424 47.7812 128.188H46.7266ZM56.9805 125.211V126.125C56.9805 127.109 56.9805 128.193 56.6816 129.688H58.2344V130.449H53.9336V134.973H53.0078V130.449H48.7422V129.688H55.75C56.0664 128.188 56.0664 127.098 56.0664 126.125V125.973H49.9375V125.211H56.9805ZM67.75 131.246V134.949H66.8242V131.984H60.7422V131.246H67.75ZM59.2773 127.613C59.2715 126.16 60.4258 125.123 61.9844 125.129C62.8867 125.123 63.6543 125.48 64.1348 126.066H66.8242V124.531H67.75V130.672H66.8242V129.172H64.1406C63.6602 129.764 62.8926 130.115 61.9844 130.109C60.4258 130.121 59.2715 129.096 59.2773 127.613ZM60.1562 127.613C60.1562 128.627 60.918 129.336 61.9844 129.336C63.0098 129.336 63.7891 128.627 63.7891 127.613C63.7891 126.635 63.0098 125.914 61.9844 125.914C60.918 125.914 60.1562 126.635 60.1562 127.613ZM64.5566 128.41H66.8242V126.828H64.5508C64.6328 127.074 64.6797 127.332 64.6797 127.613C64.6797 127.895 64.6328 128.164 64.5566 128.41Z" fill="#333333"/>
<path d="M133.535 124.531V134.949H132.609V124.531H133.535ZM125.051 132.242C127.869 130.906 129.311 128.908 129.516 126.418H125.531V125.668H130.453C130.441 128.662 129.047 131.316 125.555 132.992L125.051 132.242ZM144.832 132.863V133.637H135.293V132.863H139.594V130.473H140.496V132.863H144.832ZM135.82 130.121C137.83 129.799 139.57 128.586 139.582 126.957H136.184V126.195H139.594V124.754H140.496V126.195H143.918V126.957H140.52C140.52 128.586 142.26 129.799 144.258 130.121L143.906 130.848C142.242 130.555 140.713 129.711 140.045 128.404C139.389 129.711 137.859 130.555 136.184 130.848L135.82 130.121Z" fill="#55596C"/>
<path d="M172.797 125.516V134H171.73V126.617H171.684L169.621 127.988V126.922L171.73 125.516H172.797ZM175.059 134L175.047 133.227L177.941 130.18C178.943 129.113 179.424 128.539 179.43 127.754C179.424 126.881 178.697 126.318 177.742 126.312C176.729 126.318 176.096 126.957 176.09 127.906H175.094C175.082 126.406 176.242 125.398 177.777 125.398C179.318 125.398 180.408 126.436 180.414 127.754C180.408 128.703 179.969 129.441 178.469 130.988L176.523 132.992V133.062H180.566V134H175.059ZM185.031 134.117C183.344 134.117 182.131 133.215 182.078 131.867H183.145C183.203 132.676 184.006 133.18 185.02 133.18C186.139 133.18 186.947 132.576 186.953 131.691C186.947 130.766 186.209 130.115 184.891 130.109H184.199V129.184H184.891C185.922 129.184 186.643 128.604 186.637 127.73C186.643 126.881 186.021 126.318 185.055 126.312C184.146 126.318 183.32 126.816 183.273 127.648H182.254C182.307 126.301 183.561 125.398 185.066 125.398C186.684 125.398 187.668 126.459 187.656 127.672C187.668 128.639 187.105 129.342 186.215 129.594V129.652C187.322 129.822 187.99 130.613 187.984 131.691C187.99 133.086 186.725 134.117 185.031 134.117ZM189.965 134.07C189.555 134.064 189.203 133.725 189.215 133.309C189.203 132.898 189.555 132.559 189.965 132.559C190.381 132.559 190.721 132.898 190.715 133.309C190.721 133.725 190.381 134.064 189.965 134.07ZM194.266 125.516V134H193.199V126.617H193.152L191.09 127.988V126.922L193.199 125.516H194.266Z" fill="#55596C"/>
<path d="M216.297 134L216.285 133.227L219.18 130.18C220.182 129.113 220.662 128.539 220.668 127.754C220.662 126.881 219.936 126.318 218.98 126.312C217.967 126.318 217.334 126.957 217.328 127.906H216.332C216.32 126.406 217.48 125.398 219.016 125.398C220.557 125.398 221.646 126.436 221.652 127.754C221.646 128.703 221.207 129.441 219.707 130.988L217.762 132.992V133.062H221.805V134H216.297ZM226.293 134.117C224.822 134.1 223.199 133.227 223.199 130.086C223.199 127.08 224.43 125.398 226.422 125.398C227.916 125.398 228.959 126.318 229.176 127.648H228.133C227.939 126.898 227.365 126.336 226.422 126.336C225.027 126.336 224.189 127.525 224.195 129.57H224.301C224.787 128.861 225.566 128.445 226.48 128.445C227.986 128.445 229.246 129.617 229.246 131.258C229.246 132.857 228.08 134.135 226.293 134.117ZM224.336 131.281C224.342 132.277 225.156 133.186 226.293 133.191C227.389 133.186 228.221 132.324 228.227 131.27C228.221 130.227 227.424 129.377 226.316 129.371C225.203 129.377 224.348 130.279 224.336 131.281ZM231.027 134.07C230.617 134.064 230.266 133.725 230.277 133.309C230.266 132.898 230.617 132.559 231.027 132.559C231.443 132.559 231.783 132.898 231.777 133.309C231.783 133.725 231.443 134.064 231.027 134.07ZM235.82 134.117C233.939 134.117 232.85 132.535 232.855 129.758C232.85 127.004 233.951 125.398 235.82 125.398C237.684 125.398 238.785 127.004 238.785 129.758C238.785 132.535 237.701 134.117 235.82 134.117ZM233.875 129.758C233.881 131.955 234.59 133.18 235.82 133.18C237.045 133.18 237.76 131.955 237.754 129.758C237.76 127.561 237.039 126.318 235.82 126.312C234.602 126.318 233.881 127.561 233.875 129.758ZM240.191 134L240.18 133.227L243.074 130.18C244.076 129.113 244.557 128.539 244.562 127.754C244.557 126.881 243.83 126.318 242.875 126.312C241.861 126.318 241.229 126.957 241.223 127.906H240.227C240.215 126.406 241.375 125.398 242.91 125.398C244.451 125.398 245.541 126.436 245.547 127.754C245.541 128.703 245.102 129.441 243.602 130.988L241.656 132.992V133.062H245.699V134H240.191ZM247.961 134.07C247.551 134.064 247.199 133.725 247.211 133.309C247.199 132.898 247.551 132.559 247.961 132.559C248.377 132.559 248.717 132.898 248.711 133.309C248.717 133.725 248.377 134.064 247.961 134.07ZM250.281 134L250.27 133.227L253.164 130.18C254.166 129.113 254.646 128.539 254.652 127.754C254.646 126.881 253.92 126.318 252.965 126.312C251.951 126.318 251.318 126.957 251.312 127.906H250.316C250.305 126.406 251.465 125.398 253 125.398C254.541 125.398 255.631 126.436 255.637 127.754C255.631 128.703 255.191 129.441 253.691 130.988L251.746 132.992V133.062H255.789V134H250.281ZM260.16 134.117C258.373 134.117 257.143 133.127 257.148 131.75C257.143 130.654 257.904 129.746 258.871 129.594V129.547C258.027 129.354 257.471 128.574 257.477 127.648C257.471 126.354 258.607 125.398 260.16 125.398C261.707 125.398 262.844 126.354 262.855 127.648C262.844 128.574 262.281 129.354 261.449 129.547V129.594C262.41 129.746 263.172 130.654 263.184 131.75C263.172 133.127 261.93 134.117 260.16 134.117ZM258.203 131.691C258.186 132.582 258.941 133.186 260.16 133.191C261.373 133.186 262.129 132.582 262.129 131.691C262.129 130.754 261.303 130.062 260.16 130.062C259.023 130.062 258.186 130.754 258.203 131.691ZM258.496 127.73C258.502 128.586 259.188 129.166 260.16 129.172C261.127 129.166 261.824 128.586 261.824 127.73C261.824 126.881 261.15 126.307 260.16 126.312C259.152 126.307 258.502 126.881 258.496 127.73Z" fill="#55596C"/>
<path d="M291.613 126.113V126.875H290.066V128.328H291.613V129.102H290.066V130.719H289.152V124.531H290.066V126.113H291.613ZM282.121 127.613C282.115 126.16 283.275 125.158 284.852 125.164C286.439 125.158 287.582 126.16 287.594 127.613C287.582 129.061 286.439 130.057 284.852 130.062C283.275 130.057 282.115 129.061 282.121 127.613ZM283.023 127.613C283.018 128.598 283.797 129.277 284.852 129.289C285.918 129.277 286.686 128.598 286.691 127.613C286.686 126.635 285.918 125.938 284.852 125.949C283.797 125.938 283.018 126.635 283.023 127.613ZM283.27 132.992C283.275 131.756 284.6 131.041 286.727 131.035C288.854 131.041 290.16 131.756 290.16 132.992C290.16 134.205 288.854 134.926 286.727 134.926C284.6 134.926 283.275 134.205 283.27 132.992ZM284.195 132.992C284.184 133.742 285.156 134.182 286.727 134.188C288.303 134.182 289.264 133.742 289.27 132.992C289.264 132.236 288.303 131.785 286.727 131.785C285.156 131.785 284.184 132.236 284.195 132.992ZM295.398 126.605C295.404 127.76 296.207 128.926 297.543 129.43L297.062 130.133C296.061 129.746 295.34 129.002 294.965 128.105C294.584 129.096 293.834 129.98 292.809 130.426L292.305 129.711C293.676 129.113 294.514 127.766 294.52 126.605V125.188H295.398V126.605ZM294.203 133.074C294.191 131.896 295.527 131.205 297.695 131.211C299.852 131.205 301.193 131.896 301.199 133.074C301.193 134.24 299.852 134.926 297.695 134.926C295.527 134.926 294.191 134.24 294.203 133.074ZM295.117 133.074C295.105 133.783 296.096 134.217 297.695 134.211C299.277 134.217 300.273 133.783 300.285 133.074C300.273 132.354 299.277 131.92 297.695 131.914C296.096 131.92 295.105 132.354 295.117 133.074ZM298.012 130.648V124.742H298.879V127.344H300.262V124.543H301.141V130.977H300.262V128.105H298.879V130.648H298.012ZM305.84 125.023C307.363 125.023 308.424 125.844 308.43 127.086C308.424 128.164 307.586 128.938 306.332 129.096V130.115C307.305 130.062 308.295 129.975 309.203 129.84L309.273 130.531C307.064 130.924 304.568 130.959 302.77 130.953L302.652 130.191C303.461 130.197 304.41 130.191 305.406 130.156V129.102C304.117 128.961 303.256 128.182 303.262 127.086C303.256 125.844 304.316 125.023 305.84 125.023ZM304.129 127.086C304.117 127.877 304.826 128.416 305.84 128.422C306.859 128.416 307.557 127.877 307.562 127.086C307.557 126.277 306.859 125.738 305.84 125.738C304.826 125.738 304.117 126.277 304.129 127.086ZM304.176 134.715V131.82H305.102V133.941H311.172V134.715H304.176ZM309.871 132.512V124.543H310.797V128.07H312.355V128.855H310.797V132.512H309.871ZM322.574 132.887V133.66H313.035V132.887H315.719V130.906H314.23V127.695H320.465V126.066H314.207V125.305H321.367V128.457H315.145V130.145H321.613V130.906H319.984V132.887H322.574ZM316.621 132.887H319.082V130.906H316.621V132.887Z" fill="#55596C"/>
<path d="M44.0742 174H41.4375V165.516H44.1797C46.6582 165.516 48.1172 167.104 48.1172 169.746C48.1172 172.395 46.6582 174 44.0742 174ZM42.4922 173.062H44.0039C46.084 173.062 47.0859 171.803 47.0859 169.746C47.0859 167.695 46.084 166.453 44.1094 166.453H42.4922V173.062ZM57.3867 165.211V166.125C57.3867 167.109 57.3867 168.193 57.0879 169.688H58.6406V170.449H54.3398V174.973H53.4141V170.449H49.1484V169.688H56.1562C56.4727 168.188 56.4727 167.098 56.4727 166.125V165.973H50.3438V165.211H57.3867ZM68.1562 171.246V174.949H67.2305V171.984H61.1484V171.246H68.1562ZM59.6836 167.613C59.6777 166.16 60.832 165.123 62.3906 165.129C63.293 165.123 64.0605 165.48 64.541 166.066H67.2305V164.531H68.1562V170.672H67.2305V169.172H64.5469C64.0664 169.764 63.2988 170.115 62.3906 170.109C60.832 170.121 59.6777 169.096 59.6836 167.613ZM60.5625 167.613C60.5625 168.627 61.3242 169.336 62.3906 169.336C63.416 169.336 64.1953 168.627 64.1953 167.613C64.1953 166.635 63.416 165.914 62.3906 165.914C61.3242 165.914 60.5625 166.635 60.5625 167.613ZM64.9629 168.41H67.2305V166.828H64.957C65.0391 167.074 65.0859 167.332 65.0859 167.613C65.0859 167.895 65.0391 168.164 64.9629 168.41Z" fill="#333333"/>
<path d="M133.535 164.531V174.949H132.609V164.531H133.535ZM125.051 172.242C127.869 170.906 129.311 168.908 129.516 166.418H125.531V165.668H130.453C130.441 168.662 129.047 171.316 125.555 172.992L125.051 172.242ZM144.832 172.863V173.637H135.293V172.863H139.594V170.473H140.496V172.863H144.832ZM135.82 170.121C137.83 169.799 139.57 168.586 139.582 166.957H136.184V166.195H139.594V164.754H140.496V166.195H143.918V166.957H140.52C140.52 168.586 142.26 169.799 144.258 170.121L143.906 170.848C142.242 170.555 140.713 169.711 140.045 168.404C139.389 169.711 137.859 170.555 136.184 170.848L135.82 170.121Z" fill="#55596C"/>
<path d="M175.797 174L175.785 173.227L178.68 170.18C179.682 169.113 180.162 168.539 180.168 167.754C180.162 166.881 179.436 166.318 178.48 166.312C177.467 166.318 176.834 166.957 176.828 167.906H175.832C175.82 166.406 176.98 165.398 178.516 165.398C180.057 165.398 181.146 166.436 181.152 167.754C181.146 168.703 180.707 169.441 179.207 170.988L177.262 172.992V173.062H181.305V174H175.797ZM185.605 174.117C184.076 174.117 182.916 173.174 182.852 171.867H183.871C183.947 172.623 184.686 173.186 185.605 173.191C186.707 173.186 187.504 172.383 187.504 171.316C187.504 170.215 186.678 169.4 185.535 169.395C184.82 169.383 184.264 169.605 183.953 170.156H182.934L183.531 165.516H188.125V166.453H184.41L184.094 168.938H184.176C184.557 168.645 185.125 168.445 185.723 168.445C187.34 168.445 188.529 169.641 188.535 171.293C188.529 172.934 187.299 174.117 185.605 174.117Z" fill="#55596C"/>
<path d="M216.297 174L216.285 173.227L219.18 170.18C220.182 169.113 220.662 168.539 220.668 167.754C220.662 166.881 219.936 166.318 218.98 166.312C217.967 166.318 217.334 166.957 217.328 167.906H216.332C216.32 166.406 217.48 165.398 219.016 165.398C220.557 165.398 221.646 166.436 221.652 167.754C221.646 168.703 221.207 169.441 219.707 170.988L217.762 172.992V173.062H221.805V174H216.297ZM226.293 174.117C224.822 174.1 223.199 173.227 223.199 170.086C223.199 167.08 224.43 165.398 226.422 165.398C227.916 165.398 228.959 166.318 229.176 167.648H228.133C227.939 166.898 227.365 166.336 226.422 166.336C225.027 166.336 224.189 167.525 224.195 169.57H224.301C224.787 168.861 225.566 168.445 226.48 168.445C227.986 168.445 229.246 169.617 229.246 171.258C229.246 172.857 228.08 174.135 226.293 174.117ZM224.336 171.281C224.342 172.277 225.156 173.186 226.293 173.191C227.389 173.186 228.221 172.324 228.227 171.27C228.221 170.227 227.424 169.377 226.316 169.371C225.203 169.377 224.348 170.279 224.336 171.281ZM231.027 174.07C230.617 174.064 230.266 173.725 230.277 173.309C230.266 172.898 230.617 172.559 231.027 172.559C231.443 172.559 231.783 172.898 231.777 173.309C231.783 173.725 231.443 174.064 231.027 174.07ZM235.82 174.117C233.939 174.117 232.85 172.535 232.855 169.758C232.85 167.004 233.951 165.398 235.82 165.398C237.684 165.398 238.785 167.004 238.785 169.758C238.785 172.535 237.701 174.117 235.82 174.117ZM233.875 169.758C233.881 171.955 234.59 173.18 235.82 173.18C237.045 173.18 237.76 171.955 237.754 169.758C237.76 167.561 237.039 166.318 235.82 166.312C234.602 166.318 233.881 167.561 233.875 169.758ZM240.191 174L240.18 173.227L243.074 170.18C244.076 169.113 244.557 168.539 244.562 167.754C244.557 166.881 243.83 166.318 242.875 166.312C241.861 166.318 241.229 166.957 241.223 167.906H240.227C240.215 166.406 241.375 165.398 242.91 165.398C244.451 165.398 245.541 166.436 245.547 167.754C245.541 168.703 245.102 169.441 243.602 170.988L241.656 172.992V173.062H245.699V174H240.191ZM247.961 174.07C247.551 174.064 247.199 173.725 247.211 173.309C247.199 172.898 247.551 172.559 247.961 172.559C248.377 172.559 248.717 172.898 248.711 173.309C248.717 173.725 248.377 174.064 247.961 174.07ZM250.281 174L250.27 173.227L253.164 170.18C254.166 169.113 254.646 168.539 254.652 167.754C254.646 166.881 253.92 166.318 252.965 166.312C251.951 166.318 251.318 166.957 251.312 167.906H250.316C250.305 166.406 251.465 165.398 253 165.398C254.541 165.398 255.631 166.436 255.637 167.754C255.631 168.703 255.191 169.441 253.691 170.988L251.746 172.992V173.062H255.789V174H250.281ZM260.16 174.117C258.373 174.117 257.143 173.127 257.148 171.75C257.143 170.654 257.904 169.746 258.871 169.594V169.547C258.027 169.354 257.471 168.574 257.477 167.648C257.471 166.354 258.607 165.398 260.16 165.398C261.707 165.398 262.844 166.354 262.855 167.648C262.844 168.574 262.281 169.354 261.449 169.547V169.594C262.41 169.746 263.172 170.654 263.184 171.75C263.172 173.127 261.93 174.117 260.16 174.117ZM258.203 171.691C258.186 172.582 258.941 173.186 260.16 173.191C261.373 173.186 262.129 172.582 262.129 171.691C262.129 170.754 261.303 170.062 260.16 170.062C259.023 170.062 258.186 170.754 258.203 171.691ZM258.496 167.73C258.502 168.586 259.188 169.166 260.16 169.172C261.127 169.166 261.824 168.586 261.824 167.73C261.824 166.881 261.15 166.307 260.16 166.312C259.152 166.307 258.502 166.881 258.496 167.73Z" fill="#55596C"/>
<path d="M296.613 166.113V166.875H295.066V168.328H296.613V169.102H295.066V170.719H294.152V164.531H295.066V166.113H296.613ZM287.121 167.613C287.115 166.16 288.275 165.158 289.852 165.164C291.439 165.158 292.582 166.16 292.594 167.613C292.582 169.061 291.439 170.057 289.852 170.062C288.275 170.057 287.115 169.061 287.121 167.613ZM288.023 167.613C288.018 168.598 288.797 169.277 289.852 169.289C290.918 169.277 291.686 168.598 291.691 167.613C291.686 166.635 290.918 165.938 289.852 165.949C288.797 165.938 288.018 166.635 288.023 167.613ZM288.27 172.992C288.275 171.756 289.6 171.041 291.727 171.035C293.854 171.041 295.16 171.756 295.16 172.992C295.16 174.205 293.854 174.926 291.727 174.926C289.6 174.926 288.275 174.205 288.27 172.992ZM289.195 172.992C289.184 173.742 290.156 174.182 291.727 174.188C293.303 174.182 294.264 173.742 294.27 172.992C294.264 172.236 293.303 171.785 291.727 171.785C290.156 171.785 289.184 172.236 289.195 172.992ZM300.398 166.605C300.404 167.76 301.207 168.926 302.543 169.43L302.062 170.133C301.061 169.746 300.34 169.002 299.965 168.105C299.584 169.096 298.834 169.98 297.809 170.426L297.305 169.711C298.676 169.113 299.514 167.766 299.52 166.605V165.188H300.398V166.605ZM299.203 173.074C299.191 171.896 300.527 171.205 302.695 171.211C304.852 171.205 306.193 171.896 306.199 173.074C306.193 174.24 304.852 174.926 302.695 174.926C300.527 174.926 299.191 174.24 299.203 173.074ZM300.117 173.074C300.105 173.783 301.096 174.217 302.695 174.211C304.277 174.217 305.273 173.783 305.285 173.074C305.273 172.354 304.277 171.92 302.695 171.914C301.096 171.92 300.105 172.354 300.117 173.074ZM303.012 170.648V164.742H303.879V167.344H305.262V164.543H306.141V170.977H305.262V168.105H303.879V170.648H303.012ZM317.156 169.406V170.168H312.855V171.281C314.818 171.369 315.984 172.008 315.996 173.109C315.984 174.275 314.643 174.926 312.41 174.926C310.148 174.926 308.807 174.275 308.812 173.109C308.807 172.008 309.967 171.369 311.953 171.281V170.168H307.664V169.406H317.156ZM308.203 168.047C310.008 167.859 311.748 166.939 311.812 165.773H308.531V165.023H316.312V165.773H313.008C313.072 166.939 314.795 167.859 316.629 168.047L316.289 168.773C314.584 168.568 312.984 167.801 312.41 166.646C311.836 167.801 310.248 168.568 308.531 168.773L308.203 168.047ZM309.75 173.109C309.738 173.801 310.74 174.217 312.41 174.211C314.062 174.217 315.064 173.801 315.07 173.109C315.064 172.4 314.062 171.996 312.41 171.984C310.74 171.996 309.738 172.4 309.75 173.109Z" fill="#55596C"/>
<path d="M41.9375 214V205.516H47.082V206.453H42.9922V209.289H46.8125V210.215H42.9922V213.062H47.1406V214H41.9375ZM56.4688 205.211V206.125C56.4688 207.109 56.4688 208.193 56.1699 209.688H57.7227V210.449H53.4219V214.973H52.4961V210.449H48.2305V209.688H55.2383C55.5547 208.188 55.5547 207.098 55.5547 206.125V205.973H49.4258V205.211H56.4688ZM67.2383 211.246V214.949H66.3125V211.984H60.2305V211.246H67.2383ZM58.7656 207.613C58.7598 206.16 59.9141 205.123 61.4727 205.129C62.375 205.123 63.1426 205.48 63.623 206.066H66.3125V204.531H67.2383V210.672H66.3125V209.172H63.6289C63.1484 209.764 62.3809 210.115 61.4727 210.109C59.9141 210.121 58.7598 209.096 58.7656 207.613ZM59.6445 207.613C59.6445 208.627 60.4062 209.336 61.4727 209.336C62.498 209.336 63.2773 208.627 63.2773 207.613C63.2773 206.635 62.498 205.914 61.4727 205.914C60.4062 205.914 59.6445 206.635 59.6445 207.613ZM64.0449 208.41H66.3125V206.828H64.0391C64.1211 207.074 64.168 207.332 64.168 207.613C64.168 207.895 64.1211 208.164 64.0449 208.41Z" fill="#333333"/>
<path d="M126.363 205.152V206.887H129.27V205.152H130.172V206.207H132.633V204.531H133.559V210.73H132.633V209.09H130.172V210.133H125.449V205.152H126.363ZM126.363 209.371H129.27V207.613H126.363V209.371ZM126.551 212.031V211.281H133.559V214.949H132.633V212.031H126.551ZM130.172 208.328H132.633V206.969H130.172V208.328ZM138.34 207.742C138.346 209.418 139.195 211.135 140.613 211.891L140.086 212.582C139.049 212.014 138.299 210.936 137.918 209.682C137.549 211.018 136.805 212.189 135.762 212.816L135.211 212.113C136.629 211.293 137.467 209.465 137.473 207.742V207.227H135.492V206.465H137.473V204.918H138.352V206.465H140.297V207.227H138.34V207.742ZM139.582 209.43V208.645H141.223V204.789H142.09V214.41H141.223V209.43H139.582ZM143.32 214.949V204.531H144.199V214.949H143.32Z" fill="#55596C"/>
<path d="M172.797 205.516V214H171.73V206.617H171.684L169.621 207.988V206.922L171.73 205.516H172.797ZM174.848 212.266V211.398L178.668 205.516H179.969V211.34H181.152V212.266H179.969V214H178.961V212.266H174.848ZM175.984 211.34H178.961V206.852H178.855L175.984 211.27V211.34ZM185.312 214.117C183.783 214.117 182.623 213.174 182.559 211.867H183.578C183.654 212.623 184.393 213.186 185.312 213.191C186.414 213.186 187.211 212.383 187.211 211.316C187.211 210.215 186.385 209.4 185.242 209.395C184.527 209.383 183.971 209.605 183.66 210.156H182.641L183.238 205.516H187.832V206.453H184.117L183.801 208.938H183.883C184.264 208.645 184.832 208.445 185.43 208.445C187.047 208.445 188.236 209.641 188.242 211.293C188.236 212.934 187.006 214.117 185.312 214.117ZM190.117 214.07C189.707 214.064 189.355 213.725 189.367 213.309C189.355 212.898 189.707 212.559 190.117 212.559C190.533 212.559 190.873 212.898 190.867 213.309C190.873 213.725 190.533 214.064 190.117 214.07ZM194.418 205.516V214H193.352V206.617H193.305L191.242 207.988V206.922L193.352 205.516H194.418Z" fill="#55596C"/>
<path d="M216.297 214L216.285 213.227L219.18 210.18C220.182 209.113 220.662 208.539 220.668 207.754C220.662 206.881 219.936 206.318 218.98 206.312C217.967 206.318 217.334 206.957 217.328 207.906H216.332C216.32 206.406 217.48 205.398 219.016 205.398C220.557 205.398 221.646 206.436 221.652 207.754C221.646 208.703 221.207 209.441 219.707 210.988L217.762 212.992V213.062H221.805V214H216.297ZM226.293 214.117C224.822 214.1 223.199 213.227 223.199 210.086C223.199 207.08 224.43 205.398 226.422 205.398C227.916 205.398 228.959 206.318 229.176 207.648H228.133C227.939 206.898 227.365 206.336 226.422 206.336C225.027 206.336 224.189 207.525 224.195 209.57H224.301C224.787 208.861 225.566 208.445 226.48 208.445C227.986 208.445 229.246 209.617 229.246 211.258C229.246 212.857 228.08 214.135 226.293 214.117ZM224.336 211.281C224.342 212.277 225.156 213.186 226.293 213.191C227.389 213.186 228.221 212.324 228.227 211.27C228.221 210.227 227.424 209.377 226.316 209.371C225.203 209.377 224.348 210.279 224.336 211.281ZM231.027 214.07C230.617 214.064 230.266 213.725 230.277 213.309C230.266 212.898 230.617 212.559 231.027 212.559C231.443 212.559 231.783 212.898 231.777 213.309C231.783 213.725 231.443 214.064 231.027 214.07ZM235.82 214.117C233.939 214.117 232.85 212.535 232.855 209.758C232.85 207.004 233.951 205.398 235.82 205.398C237.684 205.398 238.785 207.004 238.785 209.758C238.785 212.535 237.701 214.117 235.82 214.117ZM233.875 209.758C233.881 211.955 234.59 213.18 235.82 213.18C237.045 213.18 237.76 211.955 237.754 209.758C237.76 207.561 237.039 206.318 235.82 206.312C234.602 206.318 233.881 207.561 233.875 209.758ZM240.191 214L240.18 213.227L243.074 210.18C244.076 209.113 244.557 208.539 244.562 207.754C244.557 206.881 243.83 206.318 242.875 206.312C241.861 206.318 241.229 206.957 241.223 207.906H240.227C240.215 206.406 241.375 205.398 242.91 205.398C244.451 205.398 245.541 206.436 245.547 207.754C245.541 208.703 245.102 209.441 243.602 210.988L241.656 212.992V213.062H245.699V214H240.191ZM247.961 214.07C247.551 214.064 247.199 213.725 247.211 213.309C247.199 212.898 247.551 212.559 247.961 212.559C248.377 212.559 248.717 212.898 248.711 213.309C248.717 213.725 248.377 214.064 247.961 214.07ZM250.281 214L250.27 213.227L253.164 210.18C254.166 209.113 254.646 208.539 254.652 207.754C254.646 206.881 253.92 206.318 252.965 206.312C251.951 206.318 251.318 206.957 251.312 207.906H250.316C250.305 206.406 251.465 205.398 253 205.398C254.541 205.398 255.631 206.436 255.637 207.754C255.631 208.703 255.191 209.441 253.691 210.988L251.746 212.992V213.062H255.789V214H250.281ZM260.16 214.117C258.373 214.117 257.143 213.127 257.148 211.75C257.143 210.654 257.904 209.746 258.871 209.594V209.547C258.027 209.354 257.471 208.574 257.477 207.648C257.471 206.354 258.607 205.398 260.16 205.398C261.707 205.398 262.844 206.354 262.855 207.648C262.844 208.574 262.281 209.354 261.449 209.547V209.594C262.41 209.746 263.172 210.654 263.184 211.75C263.172 213.127 261.93 214.117 260.16 214.117ZM258.203 211.691C258.186 212.582 258.941 213.186 260.16 213.191C261.373 213.186 262.129 212.582 262.129 211.691C262.129 210.754 261.303 210.062 260.16 210.062C259.023 210.062 258.186 210.754 258.203 211.691ZM258.496 207.73C258.502 208.586 259.188 209.166 260.16 209.172C261.127 209.166 261.824 208.586 261.824 207.73C261.824 206.881 261.15 206.307 260.16 206.312C259.152 206.307 258.502 206.881 258.496 207.73Z" fill="#55596C"/>
<path d="M291.613 206.113V206.875H290.066V208.328H291.613V209.102H290.066V210.719H289.152V204.531H290.066V206.113H291.613ZM282.121 207.613C282.115 206.16 283.275 205.158 284.852 205.164C286.439 205.158 287.582 206.16 287.594 207.613C287.582 209.061 286.439 210.057 284.852 210.062C283.275 210.057 282.115 209.061 282.121 207.613ZM283.023 207.613C283.018 208.598 283.797 209.277 284.852 209.289C285.918 209.277 286.686 208.598 286.691 207.613C286.686 206.635 285.918 205.938 284.852 205.949C283.797 205.938 283.018 206.635 283.023 207.613ZM283.27 212.992C283.275 211.756 284.6 211.041 286.727 211.035C288.854 211.041 290.16 211.756 290.16 212.992C290.16 214.205 288.854 214.926 286.727 214.926C284.6 214.926 283.275 214.205 283.27 212.992ZM284.195 212.992C284.184 213.742 285.156 214.182 286.727 214.188C288.303 214.182 289.264 213.742 289.27 212.992C289.264 212.236 288.303 211.785 286.727 211.785C285.156 211.785 284.184 212.236 284.195 212.992ZM295.398 206.605C295.404 207.76 296.207 208.926 297.543 209.43L297.062 210.133C296.061 209.746 295.34 209.002 294.965 208.105C294.584 209.096 293.834 209.98 292.809 210.426L292.305 209.711C293.676 209.113 294.514 207.766 294.52 206.605V205.188H295.398V206.605ZM294.203 213.074C294.191 211.896 295.527 211.205 297.695 211.211C299.852 211.205 301.193 211.896 301.199 213.074C301.193 214.24 299.852 214.926 297.695 214.926C295.527 214.926 294.191 214.24 294.203 213.074ZM295.117 213.074C295.105 213.783 296.096 214.217 297.695 214.211C299.277 214.217 300.273 213.783 300.285 213.074C300.273 212.354 299.277 211.92 297.695 211.914C296.096 211.92 295.105 212.354 295.117 213.074ZM298.012 210.648V204.742H298.879V207.344H300.262V204.543H301.141V210.977H300.262V208.105H298.879V210.648H298.012ZM305.84 205.023C307.363 205.023 308.424 205.844 308.43 207.086C308.424 208.164 307.586 208.938 306.332 209.096V210.115C307.305 210.062 308.295 209.975 309.203 209.84L309.273 210.531C307.064 210.924 304.568 210.959 302.77 210.953L302.652 210.191C303.461 210.197 304.41 210.191 305.406 210.156V209.102C304.117 208.961 303.256 208.182 303.262 207.086C303.256 205.844 304.316 205.023 305.84 205.023ZM304.129 207.086C304.117 207.877 304.826 208.416 305.84 208.422C306.859 208.416 307.557 207.877 307.562 207.086C307.557 206.277 306.859 205.738 305.84 205.738C304.826 205.738 304.117 206.277 304.129 207.086ZM304.176 214.715V211.82H305.102V213.941H311.172V214.715H304.176ZM309.871 212.512V204.543H310.797V208.07H312.355V208.855H310.797V212.512H309.871ZM322.574 212.887V213.66H313.035V212.887H315.719V210.906H314.23V207.695H320.465V206.066H314.207V205.305H321.367V208.457H315.145V210.145H321.613V210.906H319.984V212.887H322.574ZM316.621 212.887H319.082V210.906H316.621V212.887Z" fill="#55596C"/>
</svg>
