<svg width="330" height="237" viewBox="0 0 330 237" fill="none" xmlns="http://www.w3.org/2000/svg">
<path d="M0 0H330V37H0V0Z" fill="#E7E7E7"/>
<path d="M23.2969 13.3594C24.9258 13.3477 26.1094 14.2793 26.1094 15.6211C26.1094 16.9512 24.9258 17.8945 23.2969 17.8828C21.6738 17.8945 20.4902 16.9512 20.4961 15.6211C20.4902 14.2793 21.6738 13.3477 23.2969 13.3594ZM19.8398 18.5391C21.7324 18.5332 24.4102 18.498 26.6836 18.1523L26.7773 19.2539C25.8984 19.4297 24.9961 19.541 24.1055 19.6113V23.2617H22.6172V19.6992C21.6797 19.7402 20.7949 19.7461 20.0273 19.7578L19.8398 18.5391ZM21.9375 15.6211C21.9316 16.2891 22.5 16.6758 23.2969 16.6641C24.1172 16.6758 24.6914 16.2891 24.6914 15.6211C24.6914 14.9414 24.1172 14.5488 23.2969 14.5547C22.5 14.5488 21.9316 14.9414 21.9375 15.6211ZM27.3281 23.5781V12.9258H28.8047V23.5781H27.3281ZM39.1055 12.9141V23.5781H37.6055V12.9141H39.1055ZM30.2461 20.4375C31.998 19.6699 32.8652 17.877 32.8711 16.2539V15.8438H30.5977V14.6484H32.8594V13.1484H34.3477V14.6484H36.5742V15.8438H34.3594V16.2539C34.3594 17.8008 35.2324 19.541 37.0078 20.2734L36.1992 21.4219C34.9863 20.9238 34.1191 19.9043 33.6328 18.6797C33.1582 19.9746 32.2852 21.0645 31.043 21.5859L30.2461 20.4375Z" fill="#55596C"/>
<path d="M87.6328 8.74219C87.627 10.1074 88.4004 11.4316 90.1289 11.9883L89.3438 13.1602C88.1777 12.7676 87.3691 12.0059 86.9062 11.0332C86.4316 12.0996 85.582 12.9375 84.3516 13.3594L83.5195 12.1758C85.3418 11.6133 86.1211 10.1836 86.1328 8.73047V7.57031H87.6328V8.74219ZM85.2305 17.3906V13.957H86.7539V16.1953H92.5547V17.3906H85.2305ZM90.6562 14.7305V6.91406H92.1562V9.99609H93.5977V11.2617H92.1562V14.7305H90.6562ZM103.828 15.1055V16.3008H94.0664V15.1055H98.1445V12.6914H99.6328V15.1055H103.828ZM94.3008 11.7891C96.7148 11.4141 98.0742 9.79102 98.0859 8.28516V7.52344H99.6797V8.28516C99.6738 9.80859 101.051 11.4141 103.488 11.7891L102.855 13.0312C100.98 12.6914 99.5859 11.6895 98.8828 10.3594C98.1855 11.6836 96.7969 12.6973 94.9336 13.0312L94.3008 11.7891ZM86.9189 25.8047C86.9287 23.9639 87.4268 22.4307 88.3252 21.127H89.0674C88.4082 22.0889 87.793 24.0664 87.7881 25.8047C87.793 27.5479 88.4082 29.5205 89.0674 30.4922H88.3252C87.4268 29.1836 86.9287 27.6504 86.9189 25.8047ZM91.5967 24.7109C90.6836 24.7158 90.1758 24.0225 90.1807 23.0117C90.1758 22.0156 90.7031 21.3223 91.5967 21.3223C92.5244 21.3223 93.0078 22.0156 93.0127 23.0117C93.0078 24.0225 92.5049 24.7158 91.5967 24.7109ZM90.874 28.5L95.7373 21.4297H96.5283L91.665 28.5H90.874ZM90.8936 23.0117C90.8936 23.6709 91.123 24.1055 91.5967 24.1055C92.0752 24.1055 92.2998 23.6709 92.2998 23.0117C92.2998 22.3623 92.0898 21.918 91.5967 21.9277C91.1328 21.9326 90.8936 22.3623 90.8936 23.0117ZM94.4971 26.9082C94.4873 25.9023 95.0098 25.2139 95.9131 25.209C96.8262 25.2139 97.3193 25.9023 97.3193 26.9082C97.3193 27.9141 96.8164 28.6025 95.9131 28.5977C94.9902 28.6025 94.4873 27.9141 94.4971 26.9082ZM95.2002 26.9082C95.2051 27.5625 95.4346 27.9971 95.9131 27.9922C96.3867 27.9971 96.6064 27.5625 96.6064 26.9082C96.6064 26.249 96.4014 25.8047 95.9131 25.8145C95.4395 25.8193 95.2051 26.249 95.2002 26.9082ZM100.581 25.8047C100.571 27.6504 100.073 29.1836 99.1748 30.4922H98.4326C99.0918 29.5205 99.707 27.5479 99.7119 25.8047C99.707 24.0664 99.0918 22.0889 98.4326 21.127H99.1748C100.073 22.4307 100.571 23.9639 100.581 25.8047Z" fill="#55596C"/>
<path d="M144.568 6.41406V17.1016H143.057V6.41406H144.568ZM135.955 10.9609C135.949 8.63477 137.139 7.16406 138.779 7.16406C140.385 7.16406 141.58 8.63477 141.58 10.9609C141.58 13.3047 140.385 14.7695 138.779 14.7695C137.139 14.7695 135.949 13.3047 135.955 10.9609ZM137.396 10.9609C137.391 12.5488 137.947 13.416 138.779 13.4102C139.588 13.416 140.133 12.5488 140.139 10.9609C140.133 9.37891 139.588 8.51172 138.779 8.51172C137.947 8.51172 137.391 9.37891 137.396 10.9609ZM149.947 8.24219C149.941 9.60742 150.715 10.9316 152.443 11.4883L151.658 12.6602C150.492 12.2676 149.684 11.5059 149.221 10.5332C148.746 11.5996 147.896 12.4375 146.666 12.8594L145.834 11.6758C147.656 11.1133 148.436 9.68359 148.447 8.23047V7.07031H149.947V8.24219ZM147.545 16.8906V13.457H149.068V15.6953H154.869V16.8906H147.545ZM152.971 14.2305V6.41406H154.471V9.49609H155.912V10.7617H154.471V14.2305H152.971ZM164.912 6.41406V10.75H166.307V11.9922H164.912V17.0781H163.4V6.41406H164.912ZM156.252 14.0664C157.031 14.0664 157.939 14.0664 158.889 14.043V13.1289C157.758 12.9062 157.02 12.1855 157.025 11.1953C157.02 10.0059 158.098 9.19141 159.65 9.19141C161.174 9.19141 162.264 10.0059 162.275 11.1953C162.264 12.1855 161.514 12.9121 160.389 13.1289V13.9902C161.232 13.9434 162.082 13.873 162.873 13.7617L162.967 14.8516C160.699 15.2734 158.25 15.291 156.451 15.2852L156.252 14.0664ZM156.463 8.76953V7.59766H158.889V6.47266H160.389V7.59766H162.791V8.76953H156.463ZM158.443 11.1953C158.438 11.7578 158.918 12.0625 159.65 12.0625C160.359 12.0625 160.834 11.7578 160.834 11.1953C160.834 10.6445 160.359 10.334 159.65 10.3281C158.918 10.334 158.438 10.6445 158.443 11.1953ZM172.189 7.23438V8.40625H168.662V9.4375H171.967V10.6211H168.662V11.6934C170.408 11.6816 171.51 11.623 172.764 11.418L172.928 12.5664C171.492 12.8418 170.197 12.8945 168.041 12.8945H167.15V7.23438H172.189ZM168.299 16.8906V13.5859H169.787V15.6953H175.6V16.8906H168.299ZM173.713 14.3008V6.41406H175.213V9.57812H176.654V10.7852H175.213V14.3008H173.713ZM186.885 14.6055V15.8008H177.123V14.6055H181.201V12.1914H182.689V14.6055H186.885ZM177.357 11.2891C179.771 10.9141 181.131 9.29102 181.143 7.78516V7.02344H182.736V7.78516C182.73 9.30859 184.107 10.9141 186.545 11.2891L185.912 12.5312C184.037 12.1914 182.643 11.1895 181.939 9.85938C181.242 11.1836 179.854 12.1973 177.99 12.5312L177.357 11.2891ZM147.14 26.0352C147.151 24.0103 147.699 22.3237 148.687 20.8896H149.503C148.778 21.9478 148.102 24.123 148.096 26.0352C148.102 27.9526 148.778 30.1226 149.503 31.1914H148.687C147.699 29.752 147.151 28.0654 147.14 26.0352ZM150.771 29V21.2227H153.414C155.234 21.2227 156.067 22.3076 156.067 23.6934C156.067 25.0737 155.234 26.1748 153.424 26.1748H151.738V29H150.771ZM151.738 25.3154H153.381C154.622 25.3154 155.105 24.6172 155.111 23.6934C155.105 22.7642 154.622 22.082 153.371 22.082H151.738V25.3154ZM157.42 29V21.2227H160.063C161.884 21.2227 162.716 22.3076 162.716 23.6934C162.716 25.0737 161.884 26.1748 160.074 26.1748H158.387V29H157.42ZM158.387 25.3154H160.031C161.271 25.3154 161.755 24.6172 161.76 23.6934C161.755 22.7642 161.271 22.082 160.02 22.082H158.387V25.3154ZM164.07 21.2227H165.23L167.851 27.625H167.948L170.569 21.2227H171.729V29H170.816V23.124H170.741L168.324 29H167.464L165.047 23.124H164.983V29H164.07V21.2227ZM175.36 26.0352C175.349 28.0654 174.801 29.752 173.813 31.1914H172.997C173.722 30.1226 174.398 27.9526 174.404 26.0352C174.398 24.123 173.722 21.9478 172.997 20.8896H173.813C174.801 22.3237 175.349 24.0103 175.36 26.0352Z" fill="#55596C"/>
<path d="M206.174 6.23047C207.797 6.22461 209.016 7.24414 209.021 8.66797C209.016 10.0801 207.797 11.0879 206.174 11.0938C204.527 11.0879 203.303 10.0801 203.303 8.66797C203.303 7.24414 204.527 6.22461 206.174 6.23047ZM204.756 8.66797C204.744 9.42969 205.348 9.88086 206.174 9.88672C206.982 9.88086 207.574 9.42969 207.58 8.66797C207.574 7.90039 206.982 7.44922 206.174 7.44922C205.354 7.44922 204.744 7.90039 204.756 8.66797ZM204.908 12.8516V11.7031H212.068V14.5977H206.396V15.2891H212.361V16.4609H204.932V13.5078H210.58V12.8516H204.908ZM210.568 11.2578V5.91406H212.068V11.2578H210.568ZM217.447 7.74219C217.441 9.10742 218.215 10.4316 219.943 10.9883L219.158 12.1602C217.992 11.7676 217.184 11.0059 216.721 10.0332C216.246 11.0996 215.396 11.9375 214.166 12.3594L213.334 11.1758C215.156 10.6133 215.936 9.18359 215.947 7.73047V6.57031H217.447V7.74219ZM215.045 16.3906V12.957H216.568V15.1953H222.369V16.3906H215.045ZM220.471 13.7305V5.91406H221.971V8.99609H223.412V10.2617H221.971V13.7305H220.471ZM232.412 5.91406V10.25H233.807V11.4922H232.412V16.5781H230.9V5.91406H232.412ZM223.752 13.5664C224.531 13.5664 225.439 13.5664 226.389 13.543V12.6289C225.258 12.4062 224.52 11.6855 224.525 10.6953C224.52 9.50586 225.598 8.69141 227.15 8.69141C228.674 8.69141 229.764 9.50586 229.775 10.6953C229.764 11.6855 229.014 12.4121 227.889 12.6289V13.4902C228.732 13.4434 229.582 13.373 230.373 13.2617L230.467 14.3516C228.199 14.7734 225.75 14.791 223.951 14.7852L223.752 13.5664ZM223.963 8.26953V7.09766H226.389V5.97266H227.889V7.09766H230.291V8.26953H223.963ZM225.943 10.6953C225.938 11.2578 226.418 11.5625 227.15 11.5625C227.859 11.5625 228.334 11.2578 228.334 10.6953C228.334 10.1445 227.859 9.83398 227.15 9.82812C226.418 9.83398 225.938 10.1445 225.943 10.6953ZM239.689 6.73438V7.90625H236.162V8.9375H239.467V10.1211H236.162V11.1934C237.908 11.1816 239.01 11.123 240.264 10.918L240.428 12.0664C238.992 12.3418 237.697 12.3945 235.541 12.3945H234.65V6.73438H239.689ZM235.799 16.3906V13.0859H237.287V15.1953H243.1V16.3906H235.799ZM241.213 13.8008V5.91406H242.713V9.07812H244.154V10.2852H242.713V13.8008H241.213ZM254.385 14.1055V15.3008H244.623V14.1055H248.701V11.6914H250.189V14.1055H254.385ZM244.857 10.7891C247.271 10.4141 248.631 8.79102 248.643 7.28516V6.52344H250.236V7.28516C250.23 8.80859 251.607 10.4141 254.045 10.7891L253.412 12.0312C251.537 11.6914 250.143 10.6895 249.439 9.35938C248.742 10.6836 247.354 11.6973 245.49 12.0312L244.857 10.7891ZM213.357 26.2656C213.369 24.0566 213.967 22.2168 215.045 20.6523H215.936C215.145 21.8066 214.406 24.1797 214.4 26.2656C214.406 28.3574 215.145 30.7246 215.936 31.8906H215.045C213.967 30.3203 213.369 28.4805 213.357 26.2656ZM217.318 29.5V21.0156H220.201C222.188 21.0156 223.096 22.1992 223.096 23.7109C223.096 25.2168 222.188 26.418 220.213 26.418H218.373V29.5H217.318ZM218.373 25.4805H220.166C221.52 25.4805 222.047 24.7188 222.053 23.7109C222.047 22.6973 221.52 21.9531 220.154 21.9531H218.373V25.4805ZM224.572 29.5V21.0156H227.455C229.441 21.0156 230.35 22.1992 230.35 23.7109C230.35 25.2168 229.441 26.418 227.467 26.418H225.627V29.5H224.572ZM225.627 25.4805H227.42C228.773 25.4805 229.301 24.7188 229.307 23.7109C229.301 22.6973 228.773 21.9531 227.408 21.9531H225.627V25.4805ZM231.826 21.0156H233.092L235.951 28H236.057L238.916 21.0156H240.182V29.5H239.186V23.0898H239.104L236.467 29.5H235.529L232.893 23.0898H232.822V29.5H231.826V21.0156ZM244.143 26.2656C244.131 28.4805 243.533 30.3203 242.455 31.8906H241.564C242.355 30.7246 243.094 28.3574 243.1 26.2656C243.094 24.1797 242.355 21.8066 241.564 20.6523H242.455C243.533 22.2168 244.131 24.0566 244.143 26.2656Z" fill="#55596C"/>
<path d="M284.355 5.92578V8.94922H285.715V10.1797H284.355V13.1211H282.855V5.92578H284.355ZM275.707 11.7031C276.486 11.7031 277.371 11.6973 278.297 11.6738V11.0469C277.131 10.8887 276.416 10.3496 276.422 9.55859C276.416 8.60938 277.441 8.0293 279.035 8.03516C280.617 8.0293 281.643 8.60938 281.648 9.55859C281.643 10.3496 280.934 10.8887 279.785 11.0469V11.6152C280.658 11.5742 281.537 11.5039 282.363 11.3984L282.469 12.4062C280.201 12.7988 277.746 12.8281 275.859 12.8281L275.707 11.7031ZM275.988 7.77734V6.67578H278.297V5.83203H279.785V6.67578H282.094V7.77734H275.988ZM277.113 14.9023C277.113 13.8125 278.432 13.2031 280.758 13.2148C283.066 13.2031 284.391 13.8125 284.391 14.9023C284.391 16.0039 283.066 16.5898 280.758 16.5898C278.432 16.5898 277.113 16.0039 277.113 14.9023ZM277.852 9.55859C277.846 9.93359 278.273 10.1152 279.035 10.1211C279.785 10.1152 280.213 9.93359 280.219 9.55859C280.213 9.20703 279.785 9.01367 279.035 9.00781C278.273 9.01367 277.846 9.20703 277.852 9.55859ZM278.613 14.9023C278.607 15.3066 279.281 15.5059 280.758 15.5C282.211 15.5059 282.885 15.3066 282.891 14.9023C282.885 14.4863 282.211 14.293 280.758 14.293C279.281 14.293 278.607 14.4863 278.613 14.9023ZM294.727 5.91406V10.25H296.121V11.4922H294.727V16.5781H293.215V5.91406H294.727ZM286.066 13.5664C286.846 13.5664 287.754 13.5664 288.703 13.543V12.6289C287.572 12.4062 286.834 11.6855 286.84 10.6953C286.834 9.50586 287.912 8.69141 289.465 8.69141C290.988 8.69141 292.078 9.50586 292.09 10.6953C292.078 11.6855 291.328 12.4121 290.203 12.6289V13.4902C291.047 13.4434 291.896 13.373 292.688 13.2617L292.781 14.3516C290.514 14.7734 288.064 14.791 286.266 14.7852L286.066 13.5664ZM286.277 8.26953V7.09766H288.703V5.97266H290.203V7.09766H292.605V8.26953H286.277ZM288.258 10.6953C288.252 11.2578 288.732 11.5625 289.465 11.5625C290.174 11.5625 290.648 11.2578 290.648 10.6953C290.648 10.1445 290.174 9.83398 289.465 9.82812C288.732 9.83398 288.252 10.1445 288.258 10.6953ZM302.227 6.74609C302.221 8.00586 303.51 9.39453 305.953 9.69922L305.367 10.9062C303.504 10.6367 302.139 9.77539 301.441 8.62109C300.738 9.76953 299.379 10.6367 297.539 10.9062L296.941 9.69922C299.367 9.39453 300.65 8.00586 300.656 6.74609V6.23047H302.227V6.74609ZM296.566 12.9336V11.7148H306.293V12.9336H302.145V16.5781H300.668V12.9336H296.566ZM316.699 14.1055V15.3008H306.938V14.1055H311.016V11.6914H312.504V14.1055H316.699ZM307.172 10.7891C309.586 10.4141 310.945 8.79102 310.957 7.28516V6.52344H312.551V7.28516C312.545 8.80859 313.922 10.4141 316.359 10.7891L315.727 12.0312C313.852 11.6914 312.457 10.6895 311.754 9.35938C311.057 10.6836 309.668 11.6973 307.805 12.0312L307.172 10.7891ZM280.857 26.2656C280.869 24.0566 281.467 22.2168 282.545 20.6523H283.436C282.645 21.8066 281.906 24.1797 281.9 26.2656C281.906 28.3574 282.645 30.7246 283.436 31.8906H282.545C281.467 30.3203 280.869 28.4805 280.857 26.2656ZM284.818 29.5V21.0156H287.701C289.688 21.0156 290.596 22.1992 290.596 23.7109C290.596 25.2168 289.688 26.418 287.713 26.418H285.873V29.5H284.818ZM285.873 25.4805H287.666C289.02 25.4805 289.547 24.7188 289.553 23.7109C289.547 22.6973 289.02 21.9531 287.654 21.9531H285.873V25.4805ZM292.072 29.5V21.0156H294.955C296.941 21.0156 297.85 22.1992 297.85 23.7109C297.85 25.2168 296.941 26.418 294.967 26.418H293.127V29.5H292.072ZM293.127 25.4805H294.92C296.273 25.4805 296.801 24.7188 296.807 23.7109C296.801 22.6973 296.273 21.9531 294.908 21.9531H293.127V25.4805ZM299.326 21.0156H300.592L303.451 28H303.557L306.416 21.0156H307.682V29.5H306.686V23.0898H306.604L303.967 29.5H303.029L300.393 23.0898H300.322V29.5H299.326V21.0156ZM311.643 26.2656C311.631 28.4805 311.033 30.3203 309.955 31.8906H309.064C309.855 30.7246 310.594 28.3574 310.6 26.2656C310.594 24.1797 309.855 21.8066 309.064 20.6523H309.955C311.033 22.2168 311.631 24.0566 311.643 26.2656Z" fill="#55596C"/>
<path d="M16.8125 66H15.7109L18.8164 57.5156H19.9297L23.0352 66H21.9219L21.0723 63.6094H17.6621L16.8125 66ZM17.9844 62.6836H20.75L19.4023 58.8867H19.332L17.9844 62.6836ZM31.9062 57.2109V58.125C31.9062 59.1094 31.9062 60.1934 31.6074 61.6875H33.1602V62.4492H28.8594V66.9727H27.9336V62.4492H23.668V61.6875H30.6758C30.9922 60.1875 30.9922 59.0977 30.9922 58.125V57.9727H24.8633V57.2109H31.9062ZM42.1836 56.5312V59.707H43.7539V60.4805H42.1836V64.1602H41.2578V56.5312H42.1836ZM34.0508 62.2148C36.5527 61.4355 38.1758 59.9531 38.3691 58.1133H34.4844V57.3398H39.3711C39.3711 60.0234 37.4551 62.0156 34.4492 62.9531L34.0508 62.2148ZM35.6562 66.7266V63.3867H36.5703V65.9531H42.6641V66.7266H35.6562Z" fill="#333333"/>
<path d="M89.8828 66.1172C88.0957 66.1172 86.8652 65.127 86.8711 63.75C86.8652 62.6543 87.627 61.7461 88.5938 61.5938V61.5469C87.75 61.3535 87.1934 60.5742 87.1992 59.6484C87.1934 58.3535 88.3301 57.3984 89.8828 57.3984C91.4297 57.3984 92.5664 58.3535 92.5781 59.6484C92.5664 60.5742 92.0039 61.3535 91.1719 61.5469V61.5938C92.1328 61.7461 92.8945 62.6543 92.9062 63.75C92.8945 65.127 91.6523 66.1172 89.8828 66.1172ZM87.9258 63.6914C87.9082 64.582 88.6641 65.1855 89.8828 65.1914C91.0957 65.1855 91.8516 64.582 91.8516 63.6914C91.8516 62.7539 91.0254 62.0625 89.8828 62.0625C88.7461 62.0625 87.9082 62.7539 87.9258 63.6914ZM88.2188 59.7305C88.2246 60.5859 88.9102 61.166 89.8828 61.1719C90.8496 61.166 91.5469 60.5859 91.5469 59.7305C91.5469 58.8809 90.873 58.3066 89.8828 58.3125C88.875 58.3066 88.2246 58.8809 88.2188 59.7305ZM97.0898 66.1172C95.5605 66.1172 94.4004 65.1738 94.3359 63.8672H95.3555C95.4316 64.623 96.1699 65.1855 97.0898 65.1914C98.1914 65.1855 98.9883 64.3828 98.9883 63.3164C98.9883 62.2148 98.1621 61.4004 97.0195 61.3945C96.3047 61.3828 95.748 61.6055 95.4375 62.1562H94.418L95.0156 57.5156H99.6094V58.4531H95.8945L95.5781 60.9375H95.6602C96.041 60.6445 96.6094 60.4453 97.207 60.4453C98.8242 60.4453 100.014 61.6406 100.02 63.293C100.014 64.9336 98.7832 66.1172 97.0898 66.1172Z" fill="#333333"/>
<circle cx="93.5" cy="61.5" r="17" fill="#11C208" fill-opacity="0.2" stroke="#11C208"/>
<path d="M157.383 66.1172C155.596 66.1172 154.365 65.127 154.371 63.75C154.365 62.6543 155.127 61.7461 156.094 61.5938V61.5469C155.25 61.3535 154.693 60.5742 154.699 59.6484C154.693 58.3535 155.83 57.3984 157.383 57.3984C158.93 57.3984 160.066 58.3535 160.078 59.6484C160.066 60.5742 159.504 61.3535 158.672 61.5469V61.5938C159.633 61.7461 160.395 62.6543 160.406 63.75C160.395 65.127 159.152 66.1172 157.383 66.1172ZM155.426 63.6914C155.408 64.582 156.164 65.1855 157.383 65.1914C158.596 65.1855 159.352 64.582 159.352 63.6914C159.352 62.7539 158.525 62.0625 157.383 62.0625C156.246 62.0625 155.408 62.7539 155.426 63.6914ZM155.719 59.7305C155.725 60.5859 156.41 61.166 157.383 61.1719C158.35 61.166 159.047 60.5859 159.047 59.7305C159.047 58.8809 158.373 58.3066 157.383 58.3125C156.375 58.3066 155.725 58.8809 155.719 59.7305ZM164.59 66.1172C163.061 66.1172 161.9 65.1738 161.836 63.8672H162.855C162.932 64.623 163.67 65.1855 164.59 65.1914C165.691 65.1855 166.488 64.3828 166.488 63.3164C166.488 62.2148 165.662 61.4004 164.52 61.3945C163.805 61.3828 163.248 61.6055 162.938 62.1562H161.918L162.516 57.5156H167.109V58.4531H163.395L163.078 60.9375H163.16C163.541 60.6445 164.109 60.4453 164.707 60.4453C166.324 60.4453 167.514 61.6406 167.52 63.293C167.514 64.9336 166.283 66.1172 164.59 66.1172Z" fill="#333333"/>
<circle cx="161" cy="61.5" r="17" fill="#11C208" fill-opacity="0.2" stroke="#11C208"/>
<path d="M224.883 66.1172C223.096 66.1172 221.865 65.127 221.871 63.75C221.865 62.6543 222.627 61.7461 223.594 61.5938V61.5469C222.75 61.3535 222.193 60.5742 222.199 59.6484C222.193 58.3535 223.33 57.3984 224.883 57.3984C226.43 57.3984 227.566 58.3535 227.578 59.6484C227.566 60.5742 227.004 61.3535 226.172 61.5469V61.5938C227.133 61.7461 227.895 62.6543 227.906 63.75C227.895 65.127 226.652 66.1172 224.883 66.1172ZM222.926 63.6914C222.908 64.582 223.664 65.1855 224.883 65.1914C226.096 65.1855 226.852 64.582 226.852 63.6914C226.852 62.7539 226.025 62.0625 224.883 62.0625C223.746 62.0625 222.908 62.7539 222.926 63.6914ZM223.219 59.7305C223.225 60.5859 223.91 61.166 224.883 61.1719C225.85 61.166 226.547 60.5859 226.547 59.7305C226.547 58.8809 225.873 58.3066 224.883 58.3125C223.875 58.3066 223.225 58.8809 223.219 59.7305ZM232.09 66.1172C230.561 66.1172 229.4 65.1738 229.336 63.8672H230.355C230.432 64.623 231.17 65.1855 232.09 65.1914C233.191 65.1855 233.988 64.3828 233.988 63.3164C233.988 62.2148 233.162 61.4004 232.02 61.3945C231.305 61.3828 230.748 61.6055 230.438 62.1562H229.418L230.016 57.5156H234.609V58.4531H230.895L230.578 60.9375H230.66C231.041 60.6445 231.609 60.4453 232.207 60.4453C233.824 60.4453 235.014 61.6406 235.02 63.293C235.014 64.9336 233.783 66.1172 232.09 66.1172Z" fill="#333333"/>
<circle cx="228.5" cy="61.5" r="17" fill="#11C208" fill-opacity="0.2" stroke="#11C208"/>
<path d="M292.383 66.1172C290.596 66.1172 289.365 65.127 289.371 63.75C289.365 62.6543 290.127 61.7461 291.094 61.5938V61.5469C290.25 61.3535 289.693 60.5742 289.699 59.6484C289.693 58.3535 290.83 57.3984 292.383 57.3984C293.93 57.3984 295.066 58.3535 295.078 59.6484C295.066 60.5742 294.504 61.3535 293.672 61.5469V61.5938C294.633 61.7461 295.395 62.6543 295.406 63.75C295.395 65.127 294.152 66.1172 292.383 66.1172ZM290.426 63.6914C290.408 64.582 291.164 65.1855 292.383 65.1914C293.596 65.1855 294.352 64.582 294.352 63.6914C294.352 62.7539 293.525 62.0625 292.383 62.0625C291.246 62.0625 290.408 62.7539 290.426 63.6914ZM290.719 59.7305C290.725 60.5859 291.41 61.166 292.383 61.1719C293.35 61.166 294.047 60.5859 294.047 59.7305C294.047 58.8809 293.373 58.3066 292.383 58.3125C291.375 58.3066 290.725 58.8809 290.719 59.7305ZM299.59 66.1172C298.061 66.1172 296.9 65.1738 296.836 63.8672H297.855C297.932 64.623 298.67 65.1855 299.59 65.1914C300.691 65.1855 301.488 64.3828 301.488 63.3164C301.488 62.2148 300.662 61.4004 299.52 61.3945C298.805 61.3828 298.248 61.6055 297.938 62.1562H296.918L297.516 57.5156H302.109V58.4531H298.395L298.078 60.9375H298.16C298.541 60.6445 299.109 60.4453 299.707 60.4453C301.324 60.4453 302.514 61.6406 302.52 63.293C302.514 64.9336 301.283 66.1172 299.59 66.1172Z" fill="#333333"/>
<circle cx="296" cy="61.5" r="17" fill="#11C208" fill-opacity="0.2" stroke="#11C208"/>
<path d="M16.4375 116V107.516H19.4141C21.1953 107.516 22.0332 108.518 22.0273 109.766C22.0332 110.855 21.3828 111.342 20.6445 111.547V111.629C21.4355 111.676 22.3613 112.402 22.3672 113.75C22.3613 115.021 21.5234 116 19.5195 116H16.4375ZM17.4922 115.062H19.5078C20.8379 115.062 21.3535 114.477 21.3477 113.738C21.3535 112.877 20.6562 112.145 19.5664 112.145H17.4922V115.062ZM17.4922 111.23H19.3789C20.2988 111.236 21.0195 110.662 21.0195 109.777C21.0195 109.039 20.5215 108.453 19.4141 108.453H17.4922V111.23ZM31.5898 107.211V108.125C31.5898 109.109 31.5898 110.193 31.291 111.688H32.8438V112.449H28.543V116.973H27.6172V112.449H23.3516V111.688H30.3594C30.6758 110.188 30.6758 109.098 30.6758 108.125V107.973H24.5469V107.211H31.5898ZM41.8672 106.531V109.707H43.4375V110.48H41.8672V114.16H40.9414V106.531H41.8672ZM33.7344 112.215C36.2363 111.436 37.8594 109.953 38.0527 108.113H34.168V107.34H39.0547C39.0547 110.023 37.1387 112.016 34.1328 112.953L33.7344 112.215ZM35.3398 116.727V113.387H36.2539V115.953H42.3477V116.727H35.3398Z" fill="#333333"/>
<path d="M89.8828 116.117C88.0957 116.117 86.8652 115.127 86.8711 113.75C86.8652 112.654 87.627 111.746 88.5938 111.594V111.547C87.75 111.354 87.1934 110.574 87.1992 109.648C87.1934 108.354 88.3301 107.398 89.8828 107.398C91.4297 107.398 92.5664 108.354 92.5781 109.648C92.5664 110.574 92.0039 111.354 91.1719 111.547V111.594C92.1328 111.746 92.8945 112.654 92.9062 113.75C92.8945 115.127 91.6523 116.117 89.8828 116.117ZM87.9258 113.691C87.9082 114.582 88.6641 115.186 89.8828 115.191C91.0957 115.186 91.8516 114.582 91.8516 113.691C91.8516 112.754 91.0254 112.062 89.8828 112.062C88.7461 112.062 87.9082 112.754 87.9258 113.691ZM88.2188 109.73C88.2246 110.586 88.9102 111.166 89.8828 111.172C90.8496 111.166 91.5469 110.586 91.5469 109.73C91.5469 108.881 90.873 108.307 89.8828 108.312C88.875 108.307 88.2246 108.881 88.2188 109.73ZM97.0898 116.117C95.5605 116.117 94.4004 115.174 94.3359 113.867H95.3555C95.4316 114.623 96.1699 115.186 97.0898 115.191C98.1914 115.186 98.9883 114.383 98.9883 113.316C98.9883 112.215 98.1621 111.4 97.0195 111.395C96.3047 111.383 95.748 111.605 95.4375 112.156H94.418L95.0156 107.516H99.6094V108.453H95.8945L95.5781 110.938H95.6602C96.041 110.645 96.6094 110.445 97.207 110.445C98.8242 110.445 100.014 111.641 100.02 113.293C100.014 114.934 98.7832 116.117 97.0898 116.117Z" fill="#333333"/>
<circle cx="93.5" cy="111.5" r="17" fill="#11C208" fill-opacity="0.2" stroke="#11C208"/>
<path d="M157.383 116.117C155.596 116.117 154.365 115.127 154.371 113.75C154.365 112.654 155.127 111.746 156.094 111.594V111.547C155.25 111.354 154.693 110.574 154.699 109.648C154.693 108.354 155.83 107.398 157.383 107.398C158.93 107.398 160.066 108.354 160.078 109.648C160.066 110.574 159.504 111.354 158.672 111.547V111.594C159.633 111.746 160.395 112.654 160.406 113.75C160.395 115.127 159.152 116.117 157.383 116.117ZM155.426 113.691C155.408 114.582 156.164 115.186 157.383 115.191C158.596 115.186 159.352 114.582 159.352 113.691C159.352 112.754 158.525 112.062 157.383 112.062C156.246 112.062 155.408 112.754 155.426 113.691ZM155.719 109.73C155.725 110.586 156.41 111.166 157.383 111.172C158.35 111.166 159.047 110.586 159.047 109.73C159.047 108.881 158.373 108.307 157.383 108.312C156.375 108.307 155.725 108.881 155.719 109.73ZM164.59 116.117C163.061 116.117 161.9 115.174 161.836 113.867H162.855C162.932 114.623 163.67 115.186 164.59 115.191C165.691 115.186 166.488 114.383 166.488 113.316C166.488 112.215 165.662 111.4 164.52 111.395C163.805 111.383 163.248 111.605 162.938 112.156H161.918L162.516 107.516H167.109V108.453H163.395L163.078 110.938H163.16C163.541 110.645 164.109 110.445 164.707 110.445C166.324 110.445 167.514 111.641 167.52 113.293C167.514 114.934 166.283 116.117 164.59 116.117Z" fill="#333333"/>
<circle cx="161" cy="111.5" r="17" fill="#11C208" fill-opacity="0.2" stroke="#11C208"/>
<path d="M224.883 116.117C223.096 116.117 221.865 115.127 221.871 113.75C221.865 112.654 222.627 111.746 223.594 111.594V111.547C222.75 111.354 222.193 110.574 222.199 109.648C222.193 108.354 223.33 107.398 224.883 107.398C226.43 107.398 227.566 108.354 227.578 109.648C227.566 110.574 227.004 111.354 226.172 111.547V111.594C227.133 111.746 227.895 112.654 227.906 113.75C227.895 115.127 226.652 116.117 224.883 116.117ZM222.926 113.691C222.908 114.582 223.664 115.186 224.883 115.191C226.096 115.186 226.852 114.582 226.852 113.691C226.852 112.754 226.025 112.062 224.883 112.062C223.746 112.062 222.908 112.754 222.926 113.691ZM223.219 109.73C223.225 110.586 223.91 111.166 224.883 111.172C225.85 111.166 226.547 110.586 226.547 109.73C226.547 108.881 225.873 108.307 224.883 108.312C223.875 108.307 223.225 108.881 223.219 109.73ZM232.09 116.117C230.561 116.117 229.4 115.174 229.336 113.867H230.355C230.432 114.623 231.17 115.186 232.09 115.191C233.191 115.186 233.988 114.383 233.988 113.316C233.988 112.215 233.162 111.4 232.02 111.395C231.305 111.383 230.748 111.605 230.438 112.156H229.418L230.016 107.516H234.609V108.453H230.895L230.578 110.938H230.66C231.041 110.645 231.609 110.445 232.207 110.445C233.824 110.445 235.014 111.641 235.02 113.293C235.014 114.934 233.783 116.117 232.09 116.117Z" fill="#333333"/>
<circle cx="228.5" cy="111.5" r="17" fill="#11C208" fill-opacity="0.2" stroke="#11C208"/>
<path d="M292.383 116.117C290.596 116.117 289.365 115.127 289.371 113.75C289.365 112.654 290.127 111.746 291.094 111.594V111.547C290.25 111.354 289.693 110.574 289.699 109.648C289.693 108.354 290.83 107.398 292.383 107.398C293.93 107.398 295.066 108.354 295.078 109.648C295.066 110.574 294.504 111.354 293.672 111.547V111.594C294.633 111.746 295.395 112.654 295.406 113.75C295.395 115.127 294.152 116.117 292.383 116.117ZM290.426 113.691C290.408 114.582 291.164 115.186 292.383 115.191C293.596 115.186 294.352 114.582 294.352 113.691C294.352 112.754 293.525 112.062 292.383 112.062C291.246 112.062 290.408 112.754 290.426 113.691ZM290.719 109.73C290.725 110.586 291.41 111.166 292.383 111.172C293.35 111.166 294.047 110.586 294.047 109.73C294.047 108.881 293.373 108.307 292.383 108.312C291.375 108.307 290.725 108.881 290.719 109.73ZM299.59 116.117C298.061 116.117 296.9 115.174 296.836 113.867H297.855C297.932 114.623 298.67 115.186 299.59 115.191C300.691 115.186 301.488 114.383 301.488 113.316C301.488 112.215 300.662 111.4 299.52 111.395C298.805 111.383 298.248 111.605 297.938 112.156H296.918L297.516 107.516H302.109V108.453H298.395L298.078 110.938H298.16C298.541 110.645 299.109 110.445 299.707 110.445C301.324 110.445 302.514 111.641 302.52 113.293C302.514 114.934 301.283 116.117 299.59 116.117Z" fill="#333333"/>
<circle cx="296" cy="111.5" r="17" fill="#FDC200" fill-opacity="0.2" stroke="#FDC200"/>
<path d="M21.7266 160.188C21.4805 159.016 20.4785 158.383 19.3594 158.383C17.8242 158.383 16.6348 159.566 16.6289 161.758C16.6348 163.943 17.8242 165.127 19.3594 165.133C20.4785 165.127 21.4746 164.5 21.7266 163.34H22.7812C22.4766 165.074 21.082 166.117 19.3594 166.117C17.1797 166.117 15.6035 164.441 15.6094 161.758C15.6035 159.074 17.1797 157.398 19.3594 157.398C21.0762 157.398 22.4648 158.424 22.7812 160.188H21.7266ZM31.9805 157.211V158.125C31.9805 159.109 31.9805 160.193 31.6816 161.688H33.2344V162.449H28.9336V166.973H28.0078V162.449H23.7422V161.688H30.75C31.0664 160.188 31.0664 159.098 31.0664 158.125V157.973H24.9375V157.211H31.9805ZM42.2578 156.531V159.707H43.8281V160.48H42.2578V164.16H41.332V156.531H42.2578ZM34.125 162.215C36.627 161.436 38.25 159.953 38.4434 158.113H34.5586V157.34H39.4453C39.4453 160.023 37.5293 162.016 34.5234 162.953L34.125 162.215ZM35.7305 166.727V163.387H36.6445V165.953H42.7383V166.727H35.7305Z" fill="#333333"/>
<path d="M89.8828 166.117C88.0957 166.117 86.8652 165.127 86.8711 163.75C86.8652 162.654 87.627 161.746 88.5938 161.594V161.547C87.75 161.354 87.1934 160.574 87.1992 159.648C87.1934 158.354 88.3301 157.398 89.8828 157.398C91.4297 157.398 92.5664 158.354 92.5781 159.648C92.5664 160.574 92.0039 161.354 91.1719 161.547V161.594C92.1328 161.746 92.8945 162.654 92.9062 163.75C92.8945 165.127 91.6523 166.117 89.8828 166.117ZM87.9258 163.691C87.9082 164.582 88.6641 165.186 89.8828 165.191C91.0957 165.186 91.8516 164.582 91.8516 163.691C91.8516 162.754 91.0254 162.062 89.8828 162.062C88.7461 162.062 87.9082 162.754 87.9258 163.691ZM88.2188 159.73C88.2246 160.586 88.9102 161.166 89.8828 161.172C90.8496 161.166 91.5469 160.586 91.5469 159.73C91.5469 158.881 90.873 158.307 89.8828 158.312C88.875 158.307 88.2246 158.881 88.2188 159.73ZM97.0898 166.117C95.5605 166.117 94.4004 165.174 94.3359 163.867H95.3555C95.4316 164.623 96.1699 165.186 97.0898 165.191C98.1914 165.186 98.9883 164.383 98.9883 163.316C98.9883 162.215 98.1621 161.4 97.0195 161.395C96.3047 161.383 95.748 161.605 95.4375 162.156H94.418L95.0156 157.516H99.6094V158.453H95.8945L95.5781 160.938H95.6602C96.041 160.645 96.6094 160.445 97.207 160.445C98.8242 160.445 100.014 161.641 100.02 163.293C100.014 164.934 98.7832 166.117 97.0898 166.117Z" fill="#333333"/>
<circle cx="93.5" cy="161.5" r="17" fill="#11C208" fill-opacity="0.2" stroke="#11C208"/>
<path d="M157.383 166.117C155.596 166.117 154.365 165.127 154.371 163.75C154.365 162.654 155.127 161.746 156.094 161.594V161.547C155.25 161.354 154.693 160.574 154.699 159.648C154.693 158.354 155.83 157.398 157.383 157.398C158.93 157.398 160.066 158.354 160.078 159.648C160.066 160.574 159.504 161.354 158.672 161.547V161.594C159.633 161.746 160.395 162.654 160.406 163.75C160.395 165.127 159.152 166.117 157.383 166.117ZM155.426 163.691C155.408 164.582 156.164 165.186 157.383 165.191C158.596 165.186 159.352 164.582 159.352 163.691C159.352 162.754 158.525 162.062 157.383 162.062C156.246 162.062 155.408 162.754 155.426 163.691ZM155.719 159.73C155.725 160.586 156.41 161.166 157.383 161.172C158.35 161.166 159.047 160.586 159.047 159.73C159.047 158.881 158.373 158.307 157.383 158.312C156.375 158.307 155.725 158.881 155.719 159.73ZM164.59 166.117C163.061 166.117 161.9 165.174 161.836 163.867H162.855C162.932 164.623 163.67 165.186 164.59 165.191C165.691 165.186 166.488 164.383 166.488 163.316C166.488 162.215 165.662 161.4 164.52 161.395C163.805 161.383 163.248 161.605 162.938 162.156H161.918L162.516 157.516H167.109V158.453H163.395L163.078 160.938H163.16C163.541 160.645 164.109 160.445 164.707 160.445C166.324 160.445 167.514 161.641 167.52 163.293C167.514 164.934 166.283 166.117 164.59 166.117Z" fill="#333333"/>
<circle cx="161" cy="161.5" r="17" fill="#11C208" fill-opacity="0.2" stroke="#11C208"/>
<path d="M224.883 166.117C223.096 166.117 221.865 165.127 221.871 163.75C221.865 162.654 222.627 161.746 223.594 161.594V161.547C222.75 161.354 222.193 160.574 222.199 159.648C222.193 158.354 223.33 157.398 224.883 157.398C226.43 157.398 227.566 158.354 227.578 159.648C227.566 160.574 227.004 161.354 226.172 161.547V161.594C227.133 161.746 227.895 162.654 227.906 163.75C227.895 165.127 226.652 166.117 224.883 166.117ZM222.926 163.691C222.908 164.582 223.664 165.186 224.883 165.191C226.096 165.186 226.852 164.582 226.852 163.691C226.852 162.754 226.025 162.062 224.883 162.062C223.746 162.062 222.908 162.754 222.926 163.691ZM223.219 159.73C223.225 160.586 223.91 161.166 224.883 161.172C225.85 161.166 226.547 160.586 226.547 159.73C226.547 158.881 225.873 158.307 224.883 158.312C223.875 158.307 223.225 158.881 223.219 159.73ZM232.09 166.117C230.561 166.117 229.4 165.174 229.336 163.867H230.355C230.432 164.623 231.17 165.186 232.09 165.191C233.191 165.186 233.988 164.383 233.988 163.316C233.988 162.215 233.162 161.4 232.02 161.395C231.305 161.383 230.748 161.605 230.438 162.156H229.418L230.016 157.516H234.609V158.453H230.895L230.578 160.938H230.66C231.041 160.645 231.609 160.445 232.207 160.445C233.824 160.445 235.014 161.641 235.02 163.293C235.014 164.934 233.783 166.117 232.09 166.117Z" fill="#333333"/>
<circle cx="228.5" cy="161.5" r="17" fill="#11C208" fill-opacity="0.2" stroke="#11C208"/>
<path d="M292.383 166.117C290.596 166.117 289.365 165.127 289.371 163.75C289.365 162.654 290.127 161.746 291.094 161.594V161.547C290.25 161.354 289.693 160.574 289.699 159.648C289.693 158.354 290.83 157.398 292.383 157.398C293.93 157.398 295.066 158.354 295.078 159.648C295.066 160.574 294.504 161.354 293.672 161.547V161.594C294.633 161.746 295.395 162.654 295.406 163.75C295.395 165.127 294.152 166.117 292.383 166.117ZM290.426 163.691C290.408 164.582 291.164 165.186 292.383 165.191C293.596 165.186 294.352 164.582 294.352 163.691C294.352 162.754 293.525 162.062 292.383 162.062C291.246 162.062 290.408 162.754 290.426 163.691ZM290.719 159.73C290.725 160.586 291.41 161.166 292.383 161.172C293.35 161.166 294.047 160.586 294.047 159.73C294.047 158.881 293.373 158.307 292.383 158.312C291.375 158.307 290.725 158.881 290.719 159.73ZM299.59 166.117C298.061 166.117 296.9 165.174 296.836 163.867H297.855C297.932 164.623 298.67 165.186 299.59 165.191C300.691 165.186 301.488 164.383 301.488 163.316C301.488 162.215 300.662 161.4 299.52 161.395C298.805 161.383 298.248 161.605 297.938 162.156H296.918L297.516 157.516H302.109V158.453H298.395L298.078 160.938H298.16C298.541 160.645 299.109 160.445 299.707 160.445C301.324 160.445 302.514 161.641 302.52 163.293C302.514 164.934 301.283 166.117 299.59 166.117Z" fill="#333333"/>
<circle cx="296" cy="161.5" r="17" fill="#11C208" fill-opacity="0.2" stroke="#11C208"/>
<path d="M19.0742 216H16.4375V207.516H19.1797C21.6582 207.516 23.1172 209.104 23.1172 211.746C23.1172 214.395 21.6582 216 19.0742 216ZM17.4922 215.062H19.0039C21.084 215.062 22.0859 213.803 22.0859 211.746C22.0859 209.695 21.084 208.453 19.1094 208.453H17.4922V215.062ZM32.3867 207.211V208.125C32.3867 209.109 32.3867 210.193 32.0879 211.688H33.6406V212.449H29.3398V216.973H28.4141V212.449H24.1484V211.688H31.1562C31.4727 210.188 31.4727 209.098 31.4727 208.125V207.973H25.3438V207.211H32.3867ZM42.6641 206.531V209.707H44.2344V210.48H42.6641V214.16H41.7383V206.531H42.6641ZM34.5312 212.215C37.0332 211.436 38.6562 209.953 38.8496 208.113H34.9648V207.34H39.8516C39.8516 210.023 37.9355 212.016 34.9297 212.953L34.5312 212.215ZM36.1367 216.727V213.387H37.0508V215.953H43.1445V216.727H36.1367Z" fill="#333333"/>
<path d="M89.8828 216.117C88.0957 216.117 86.8652 215.127 86.8711 213.75C86.8652 212.654 87.627 211.746 88.5938 211.594V211.547C87.75 211.354 87.1934 210.574 87.1992 209.648C87.1934 208.354 88.3301 207.398 89.8828 207.398C91.4297 207.398 92.5664 208.354 92.5781 209.648C92.5664 210.574 92.0039 211.354 91.1719 211.547V211.594C92.1328 211.746 92.8945 212.654 92.9062 213.75C92.8945 215.127 91.6523 216.117 89.8828 216.117ZM87.9258 213.691C87.9082 214.582 88.6641 215.186 89.8828 215.191C91.0957 215.186 91.8516 214.582 91.8516 213.691C91.8516 212.754 91.0254 212.062 89.8828 212.062C88.7461 212.062 87.9082 212.754 87.9258 213.691ZM88.2188 209.73C88.2246 210.586 88.9102 211.166 89.8828 211.172C90.8496 211.166 91.5469 210.586 91.5469 209.73C91.5469 208.881 90.873 208.307 89.8828 208.312C88.875 208.307 88.2246 208.881 88.2188 209.73ZM97.0898 216.117C95.5605 216.117 94.4004 215.174 94.3359 213.867H95.3555C95.4316 214.623 96.1699 215.186 97.0898 215.191C98.1914 215.186 98.9883 214.383 98.9883 213.316C98.9883 212.215 98.1621 211.4 97.0195 211.395C96.3047 211.383 95.748 211.605 95.4375 212.156H94.418L95.0156 207.516H99.6094V208.453H95.8945L95.5781 210.938H95.6602C96.041 210.645 96.6094 210.445 97.207 210.445C98.8242 210.445 100.014 211.641 100.02 213.293C100.014 214.934 98.7832 216.117 97.0898 216.117Z" fill="#333333"/>
<circle cx="93.5" cy="211.5" r="17" fill="#11C208" fill-opacity="0.2" stroke="#11C208"/>
<path d="M157.383 216.117C155.596 216.117 154.365 215.127 154.371 213.75C154.365 212.654 155.127 211.746 156.094 211.594V211.547C155.25 211.354 154.693 210.574 154.699 209.648C154.693 208.354 155.83 207.398 157.383 207.398C158.93 207.398 160.066 208.354 160.078 209.648C160.066 210.574 159.504 211.354 158.672 211.547V211.594C159.633 211.746 160.395 212.654 160.406 213.75C160.395 215.127 159.152 216.117 157.383 216.117ZM155.426 213.691C155.408 214.582 156.164 215.186 157.383 215.191C158.596 215.186 159.352 214.582 159.352 213.691C159.352 212.754 158.525 212.062 157.383 212.062C156.246 212.062 155.408 212.754 155.426 213.691ZM155.719 209.73C155.725 210.586 156.41 211.166 157.383 211.172C158.35 211.166 159.047 210.586 159.047 209.73C159.047 208.881 158.373 208.307 157.383 208.312C156.375 208.307 155.725 208.881 155.719 209.73ZM164.59 216.117C163.061 216.117 161.9 215.174 161.836 213.867H162.855C162.932 214.623 163.67 215.186 164.59 215.191C165.691 215.186 166.488 214.383 166.488 213.316C166.488 212.215 165.662 211.4 164.52 211.395C163.805 211.383 163.248 211.605 162.938 212.156H161.918L162.516 207.516H167.109V208.453H163.395L163.078 210.938H163.16C163.541 210.645 164.109 210.445 164.707 210.445C166.324 210.445 167.514 211.641 167.52 213.293C167.514 214.934 166.283 216.117 164.59 216.117Z" fill="#333333"/>
<circle cx="161" cy="211.5" r="17" fill="#CA0014" fill-opacity="0.2" stroke="#CA0014"/>
<path d="M224.883 216.117C223.096 216.117 221.865 215.127 221.871 213.75C221.865 212.654 222.627 211.746 223.594 211.594V211.547C222.75 211.354 222.193 210.574 222.199 209.648C222.193 208.354 223.33 207.398 224.883 207.398C226.43 207.398 227.566 208.354 227.578 209.648C227.566 210.574 227.004 211.354 226.172 211.547V211.594C227.133 211.746 227.895 212.654 227.906 213.75C227.895 215.127 226.652 216.117 224.883 216.117ZM222.926 213.691C222.908 214.582 223.664 215.186 224.883 215.191C226.096 215.186 226.852 214.582 226.852 213.691C226.852 212.754 226.025 212.062 224.883 212.062C223.746 212.062 222.908 212.754 222.926 213.691ZM223.219 209.73C223.225 210.586 223.91 211.166 224.883 211.172C225.85 211.166 226.547 210.586 226.547 209.73C226.547 208.881 225.873 208.307 224.883 208.312C223.875 208.307 223.225 208.881 223.219 209.73ZM232.09 216.117C230.561 216.117 229.4 215.174 229.336 213.867H230.355C230.432 214.623 231.17 215.186 232.09 215.191C233.191 215.186 233.988 214.383 233.988 213.316C233.988 212.215 233.162 211.4 232.02 211.395C231.305 211.383 230.748 211.605 230.438 212.156H229.418L230.016 207.516H234.609V208.453H230.895L230.578 210.938H230.66C231.041 210.645 231.609 210.445 232.207 210.445C233.824 210.445 235.014 211.641 235.02 213.293C235.014 214.934 233.783 216.117 232.09 216.117Z" fill="#333333"/>
<circle cx="228.5" cy="211.5" r="17" fill="#11C208" fill-opacity="0.2" stroke="#11C208"/>
<path d="M292.383 216.117C290.596 216.117 289.365 215.127 289.371 213.75C289.365 212.654 290.127 211.746 291.094 211.594V211.547C290.25 211.354 289.693 210.574 289.699 209.648C289.693 208.354 290.83 207.398 292.383 207.398C293.93 207.398 295.066 208.354 295.078 209.648C295.066 210.574 294.504 211.354 293.672 211.547V211.594C294.633 211.746 295.395 212.654 295.406 213.75C295.395 215.127 294.152 216.117 292.383 216.117ZM290.426 213.691C290.408 214.582 291.164 215.186 292.383 215.191C293.596 215.186 294.352 214.582 294.352 213.691C294.352 212.754 293.525 212.062 292.383 212.062C291.246 212.062 290.408 212.754 290.426 213.691ZM290.719 209.73C290.725 210.586 291.41 211.166 292.383 211.172C293.35 211.166 294.047 210.586 294.047 209.73C294.047 208.881 293.373 208.307 292.383 208.312C291.375 208.307 290.725 208.881 290.719 209.73ZM299.59 216.117C298.061 216.117 296.9 215.174 296.836 213.867H297.855C297.932 214.623 298.67 215.186 299.59 215.191C300.691 215.186 301.488 214.383 301.488 213.316C301.488 212.215 300.662 211.4 299.52 211.395C298.805 211.383 298.248 211.605 297.938 212.156H296.918L297.516 207.516H302.109V208.453H298.395L298.078 210.938H298.16C298.541 210.645 299.109 210.445 299.707 210.445C301.324 210.445 302.514 211.641 302.52 213.293C302.514 214.934 301.283 216.117 299.59 216.117Z" fill="#333333"/>
<circle cx="296" cy="211.5" r="17" fill="#11C208" fill-opacity="0.2" stroke="#11C208"/>
</svg>
