<svg width="150" height="26" viewBox="0 0 150 26" fill="none" xmlns="http://www.w3.org/2000/svg">
<g clip-path="url(#clip0_2957_1645)">
<path d="M88.3042 7.4527C87.8274 6.66385 87.237 5.93462 86.5512 5.28795C85.8655 4.64127 85.1025 4.08174 84.2714 3.61852C83.4448 3.1553 82.532 2.79298 81.5692 2.54073C79.6346 2.03623 77.4274 2.03623 75.4927 2.54073C74.5254 2.79298 73.6171 3.1553 72.786 3.61852C71.9549 4.08174 71.192 4.64127 70.5108 5.28795C69.825 5.93462 69.2346 6.66385 68.7578 7.4527C68.2809 8.24156 67.904 9.10379 67.6406 10.0119C67.3772 10.92 67.2409 11.8831 67.2409 12.8692C67.2409 13.8552 67.3726 14.8551 67.6406 15.7861C67.904 16.7125 68.2809 17.5931 68.7578 18.4003C69.2346 19.2075 69.825 19.9551 70.5108 20.6201C71.192 21.2851 71.9595 21.863 72.7906 22.3354C73.6171 22.8078 74.5254 23.1793 75.4927 23.4407C76.4601 23.7021 77.4819 23.8351 78.531 23.8351C79.5801 23.8351 80.6064 23.7021 81.5738 23.4407C82.5411 23.1793 83.4494 22.8078 84.2759 22.3354C85.107 21.863 85.8745 21.2851 86.5558 20.6201C87.237 19.9551 87.8274 19.2075 88.3088 18.4003C88.7856 17.5931 89.1626 16.708 89.426 15.7769C89.6894 14.8459 89.8211 13.8644 89.8211 12.8692C89.8211 11.8739 89.6894 10.92 89.4214 10.0119C89.158 9.10838 88.7811 8.24614 88.3042 7.4527ZM84.9345 16.6988C84.6302 17.85 84.1851 18.8635 83.5993 19.6983C83.0225 20.5284 82.3004 21.1842 81.4557 21.6474C80.611 22.1107 79.6255 22.3446 78.531 22.3446C77.4365 22.3446 76.401 22.1107 75.5518 21.6474C74.7025 21.1842 73.9804 20.5284 73.4082 19.6983C72.8314 18.8635 72.3909 17.85 72.0957 16.6988C71.8005 15.5384 71.6507 14.2497 71.6507 12.8692C71.6507 11.4887 71.8005 10.2458 72.0957 9.11296C72.3909 7.98931 72.8315 7.00783 73.4037 6.19605C73.9759 5.39344 74.698 4.75593 75.5472 4.31106C76.3965 3.86618 77.4002 3.64145 78.5264 3.64145C79.6527 3.64145 80.611 3.86618 81.4557 4.31106C82.3004 4.75593 83.0225 5.39344 83.5993 6.19605C84.1806 7.00783 84.6302 7.98931 84.9299 9.11296C85.2342 10.2458 85.3886 11.507 85.3886 12.8692C85.3886 14.2313 85.2342 15.5338 84.9299 16.6988H84.9345Z" fill="#54565A"/>
<path d="M60.3152 11.8693H50.7055V2.63696H46.8679V23.3627H50.7055V13.6488H60.3152V23.3627H64.1527V2.63696H60.3152V11.8693Z" fill="#54565A"/>
<path d="M108.169 14.1533C107.742 13.7085 107.219 13.337 106.615 13.048C106.184 12.8416 105.716 12.6811 105.217 12.5619C105.707 12.3096 106.129 12.0528 106.484 11.8005C106.97 11.452 107.369 11.0805 107.66 10.6861C107.955 10.2916 108.169 9.85592 108.291 9.3927C108.409 8.94324 108.473 8.4204 108.473 7.85169C108.473 7.0766 108.282 6.35654 107.91 5.70987C107.537 5.07237 107.015 4.51742 106.352 4.06337C105.693 3.61391 104.899 3.26076 103.986 3.0131C103.078 2.76543 102.069 2.6416 100.989 2.6416H92.6777V23.3673H102.269C103.355 23.3673 104.354 23.2205 105.235 22.9362C106.12 22.6472 106.892 22.2436 107.519 21.7346C108.15 21.2209 108.65 20.6063 108.991 19.9138C109.336 19.2167 109.513 18.4553 109.513 17.6573C109.513 16.951 109.395 16.2997 109.168 15.7173C108.936 15.1348 108.605 14.612 108.178 14.1671L108.169 14.1533ZM96.5061 4.46238H99.0539C100.039 4.46238 100.889 4.55411 101.588 4.73298C102.274 4.90726 102.851 5.16409 103.296 5.48972C103.732 5.80618 104.054 6.19602 104.258 6.6409C104.463 7.09036 104.567 7.60403 104.567 8.15439C104.567 8.67265 104.476 9.1588 104.304 9.5945C104.131 10.0256 103.872 10.4063 103.541 10.7273C103.205 11.0484 102.782 11.3006 102.287 11.4841C101.788 11.6675 101.211 11.7593 100.566 11.7593H96.5061V4.46697V4.46238ZM105.08 19.2396C104.876 19.6799 104.549 20.0651 104.113 20.377C103.668 20.698 103.096 20.9503 102.405 21.1338C101.706 21.3172 100.87 21.4089 99.9168 21.4089H96.5061V13.4746H99.8168C100.866 13.4746 101.756 13.5892 102.469 13.8139C103.173 14.0341 103.75 14.3414 104.186 14.722C104.613 15.0935 104.926 15.543 105.112 16.0567C105.303 16.5795 105.403 17.1528 105.403 17.7628C105.403 18.2948 105.298 18.7901 105.085 19.2396H105.08Z" fill="#54565A"/>
<path d="M119.89 2.63696L110.226 23.3627H112.428L115.594 16.6024H123.891L126.957 23.3627H130.899L121.452 2.63696H119.89ZM116.407 14.8229L119.781 7.60398L123.065 14.8229H116.411H116.407Z" fill="#54565A"/>
<path d="M148.052 2.63696V17.2032L135.118 2.63696H132.892V23.3627H134.872V7.62691L148.47 23.3627H150V2.63696H148.052Z" fill="#54565A"/>
<path d="M1.60768 0H33.793C34.6832 0 35.4007 0.729229 35.4007 1.62357V10.7229C35.4007 11.6218 34.6786 12.3464 33.793 12.3464H1.60768C0.717551 12.3464 0 11.6172 0 10.7229V1.62357C0 0.729229 0.722093 0 1.60768 0Z" fill="#F37021"/>
<path d="M1.60768 13.6489H33.793C34.6832 13.6489 35.4007 14.3782 35.4007 15.2725V24.3718C35.4007 25.2707 34.6786 25.9954 33.793 25.9954H1.60768C0.717551 25.9954 0 25.2661 0 24.3718V15.2725C0 14.3782 0.722093 13.6489 1.60768 13.6489Z" fill="#898A8D"/>
</g>
<defs>
<clipPath id="clip0_2957_1645">
<rect width="150" height="26" fill="white"/>
</clipPath>
</defs>
</svg>
