<svg width="303" height="230" viewBox="0 0 303 230" fill="none" xmlns="http://www.w3.org/2000/svg">
<path d="M82.5 192C124.75 192 159 157.75 159 115.5C159 73.2502 124.75 39 82.5 39C40.2502 39 6 73.2502 6 115.5C6 157.75 40.2502 192 82.5 192Z" fill="#FFF5ED" stroke="#FFE7D5" stroke-width="10"/>
<path d="M82.5 44.7868C82.5 38.2771 77.1963 32.9136 70.753 33.8405C57.192 35.7913 44.2646 41.0997 33.1825 49.3636C18.935 59.9878 8.49929 74.929 3.4288 91.9629C-1.64169 108.997 -1.07585 127.213 5.04208 143.899C9.80079 156.878 17.7207 168.392 28.0072 177.442C32.8948 181.742 40.2683 180.152 43.8283 174.702C47.3883 169.252 45.7481 162.019 41.1143 157.447C34.9612 151.376 30.1835 143.99 27.175 135.784C22.8052 123.866 22.401 110.855 26.0227 98.6884C29.6443 86.5218 37.0981 75.8499 47.2745 68.2614C54.2809 63.0368 62.3199 59.4661 70.7914 57.7485C77.1713 56.455 82.5 51.2965 82.5 44.7868Z" fill="#F37021"/>
<path d="M58.4209 124L65.8672 109.449V109.327H57.2002V106.324H69.6758V109.376L62.2295 124H58.4209ZM78.1172 124.244C74.4307 124.244 71.7329 122.071 71.6719 119.019H75.2363C75.3218 120.399 76.5791 121.351 78.1172 121.339C79.9482 121.351 81.2544 120.057 81.2422 118.214C81.2544 116.334 79.9238 115.028 78.0684 115.016C76.7378 115.016 75.8101 115.516 75.2852 116.505H71.9648L72.917 106.324H83.8057V109.327H75.9443L75.4561 113.795H75.6025C76.2495 112.928 77.5923 112.293 79.1426 112.306C82.3896 112.293 84.8066 114.723 84.8066 118.116C84.8066 121.693 82.0967 124.244 78.1172 124.244ZM91.6855 115.162C89.0366 115.162 87.6084 113.233 87.6084 110.45C87.6084 107.655 89.1099 105.714 91.6855 105.714C94.3345 105.714 95.7505 107.655 95.7627 110.45C95.7505 113.258 94.2979 115.162 91.6855 115.162ZM90.0986 110.45C90.1108 111.976 90.6602 112.977 91.6855 112.989C92.7354 112.977 93.2603 111.976 93.2725 110.45C93.2603 108.924 92.7842 107.887 91.6855 107.887C90.6479 107.899 90.1108 108.949 90.0986 110.45ZM90.1475 124L102.306 106.324H105.04L92.8818 124H90.1475ZM99.5469 119.874C99.5469 117.079 101.048 115.15 103.6 115.138C106.273 115.15 107.689 117.079 107.701 119.874C107.689 122.682 106.236 124.586 103.6 124.586C100.975 124.586 99.5469 122.657 99.5469 119.874ZM102.037 119.874C102.049 121.4 102.599 122.413 103.6 122.413C104.674 122.413 105.199 121.4 105.211 119.874C105.199 118.348 104.71 117.31 103.6 117.335C102.574 117.323 102.049 118.373 102.037 119.874Z" fill="#F37021"/>
<g clip-path="url(#clip0_3_386)">
<mask id="mask0_3_386" style="mask-type:luminance" maskUnits="userSpaceOnUse" x="203" y="0" width="100" height="50">
<path d="M293 0H213C207.477 0 203 4.47715 203 10V40C203 45.5228 207.477 50 213 50H293C298.523 50 303 45.5228 303 40V10C303 4.47715 298.523 0 293 0Z" fill="white"/>
</mask>
<g mask="url(#mask0_3_386)">
<path d="M303 0H203V25H303V0Z" fill="#BBBFCF"/>
<path d="M230.894 7.59375V8.36719C230.894 9.17578 230.894 10.125 230.618 11.4258H232.148V12.1875H222.609V11.4258H229.693C229.986 10.1133 229.986 9.17578 229.98 8.36719V8.35547H223.816V7.59375H230.894ZM223.781 17.3086V13.6289H230.941V17.3086H223.781ZM224.695 16.5586H230.027V14.3555H224.695V16.5586ZM235.813 7.41797C237.371 7.42383 238.502 8.37305 238.508 9.72656C238.502 11.0859 237.371 12.0234 235.813 12.0234C234.237 12.0234 233.1 11.0859 233.106 9.72656C233.1 8.37305 234.237 7.42383 235.813 7.41797ZM234.008 9.72656C233.996 10.6406 234.764 11.2734 235.813 11.2734C236.844 11.2734 237.618 10.6406 237.618 9.72656C237.618 8.82422 236.844 8.18555 235.813 8.19141C234.764 8.18555 233.996 8.82422 234.008 9.72656ZM234.688 13.6289V12.8906H241.461V15.3984H235.614V16.5703H241.836V17.3086H234.711V14.707H240.547V13.6289H234.688ZM240.547 12.3867V7.03125H241.461V12.3867H240.547ZM251.255 7.03125V10.207H252.826V10.9805H251.255V14.7188H250.341V7.03125H251.255ZM243.31 10.3359C243.304 8.82422 244.488 7.77539 246.041 7.76953C247.605 7.77539 248.771 8.82422 248.783 10.3359C248.771 11.8418 247.605 12.9023 246.041 12.9023C244.488 12.9023 243.304 11.8418 243.31 10.3359ZM244.212 10.3359C244.207 11.3613 245.009 12.0938 246.041 12.0938C247.089 12.0938 247.875 11.3613 247.88 10.3359C247.875 9.30469 247.089 8.57812 246.041 8.57812C245.009 8.57812 244.207 9.30469 244.212 10.3359ZM244.74 17.2266V13.9219H245.642V16.4531H251.736V17.2266H244.74ZM261.999 7.04297V14.6836H261.073V10.6875H258.928V9.92578H261.073V7.04297H261.999ZM253.409 12.5977C254.944 12.0586 256.057 10.6816 256.057 9.1875V8.64844H253.702V7.88672H259.315V8.64844H256.983V9.1875C256.983 10.5352 258.026 11.8418 259.549 12.3633L259.069 13.1016C257.897 12.6738 256.989 11.8008 256.538 10.7227C256.087 11.9297 255.126 12.8848 253.889 13.3477L253.409 12.5977ZM255.307 17.2266V13.9922H256.233V16.4531H262.292V17.2266H255.307ZM271.98 8.08594V9.24609C271.974 10.582 271.974 11.9238 271.605 13.8633L270.703 13.7578C271.072 11.918 271.072 10.5469 271.078 9.24609V8.84766H264.609V8.08594H271.98ZM263.613 15.9727V15.2109H265.968V11.7773H266.883V15.2109H268.57V11.7773H269.472V15.2109H273.105V15.9727H263.613ZM283.356 12.0586V12.8086H280.825V14.1328H282.184V17.4492H281.259V14.8711H274.919V14.1328H276.384V12.8086H273.864V12.0586H283.356ZM274.919 9.26953C274.919 8.02148 276.343 7.27734 278.61 7.28906C280.866 7.27734 282.284 8.02148 282.29 9.26953C282.284 10.5234 280.866 11.2734 278.61 11.2617C276.343 11.2734 274.919 10.5234 274.919 9.26953ZM275.868 9.26953C275.862 10.0605 276.923 10.541 278.61 10.5469C280.28 10.541 281.347 10.0605 281.352 9.26953C281.347 8.49609 280.28 8.01562 278.61 8.02734C276.923 8.01562 275.862 8.49609 275.868 9.26953ZM277.309 14.1328H279.923V12.8086H277.309V14.1328Z" fill="#333333"/>
<path d="M243.997 41.6172C242.228 41.6172 240.933 40.5742 240.903 39.1094H242.614C242.655 39.7715 243.259 40.2285 243.997 40.2227C244.876 40.2285 245.503 39.6074 245.497 38.7227C245.503 37.8203 244.864 37.1934 243.974 37.1875C243.335 37.1875 242.89 37.4277 242.638 37.9023H241.044L241.501 33.0156H246.728V34.457H242.954L242.72 36.6016H242.79C243.101 36.1855 243.745 35.8809 244.489 35.8867C246.048 35.8809 247.208 37.0469 247.208 38.6758C247.208 40.3926 245.907 41.6172 243.997 41.6172ZM251.576 41.6172C249.449 41.6172 248.166 40.0352 248.166 37.2578C248.166 34.4863 249.461 32.8984 251.576 32.8984C253.692 32.8984 254.986 34.4863 254.986 37.2578C254.986 40.0469 253.697 41.6172 251.576 41.6172ZM249.971 37.2578C249.959 39.2148 250.592 40.1641 251.576 40.1641C252.561 40.1641 253.188 39.2148 253.182 37.2578C253.188 35.3184 252.555 34.3457 251.576 34.3398C250.598 34.3457 249.971 35.3184 249.971 37.2578ZM264.722 31.9258V39.7188H263.234V36.2383H261.324V35.0078H263.234V31.9258H264.722ZM255.874 37.4688C258.083 36.7773 259.513 35.5 259.788 33.9297H256.425V32.7109H261.417C261.417 35.5703 259.601 37.6855 256.484 38.6523L255.874 37.4688ZM257.691 42.3906V38.9336H259.214V41.1953H264.991V42.3906H257.691Z" fill="#333333"/>
</g>
<path d="M293 0.5H213C207.753 0.5 203.5 4.75329 203.5 10V40C203.5 45.2467 207.753 49.5 213 49.5H293C298.247 49.5 302.5 45.2467 302.5 40V10C302.5 4.75329 298.247 0.5 293 0.5Z" stroke="#BBBFCF"/>
<mask id="mask1_3_386" style="mask-type:luminance" maskUnits="userSpaceOnUse" x="203" y="60" width="100" height="50">
<path d="M293 60H213C207.477 60 203 64.4772 203 70V100C203 105.523 207.477 110 213 110H293C298.523 110 303 105.523 303 100V70C303 64.4772 298.523 60 293 60Z" fill="white"/>
</mask>
<g mask="url(#mask1_3_386)">
<path d="M303 60H203V85H303V60Z" fill="#BBBFCF"/>
<path d="M224.322 67.6641V68.4727C224.322 69.3516 224.322 70.4062 224.047 71.8242H225.576V72.5977H216.037V71.8242H223.133C223.414 70.3828 223.414 69.3574 223.408 68.4727V68.4141H217.244V67.6641H224.322ZM217.303 77.2148V73.7695H218.217V76.4414H224.639V77.2148H217.303ZM235.827 75.3867V76.1602H226.288V75.3867H230.577V73.418H227.484V70.207H233.718V68.5664H227.46V67.8047H234.62V70.957H228.398V72.6562H234.866V73.418H231.48V75.3867H235.827ZM240.067 70.2305C240.055 71.9004 241.262 73.7402 242.774 74.4609L242.246 75.1875C241.074 74.6133 240.084 73.3828 239.615 71.9707C239.135 73.5 238.092 74.8477 236.926 75.4453L236.364 74.7188C237.864 73.9863 239.153 72.0059 239.164 70.2305V68.8711H236.739V68.1094H242.41V68.8711H240.067V70.2305ZM243.688 77.4492V67.0312H244.602V71.25H246.348V72.0352H244.602V77.4492H243.688ZM257.827 67.0312V70.207H259.397V70.9805H257.827V74.7188H256.913V67.0312H257.827ZM249.881 70.3359C249.875 68.8242 251.059 67.7754 252.612 67.7695C254.176 67.7754 255.342 68.8242 255.354 70.3359C255.342 71.8418 254.176 72.9023 252.612 72.9023C251.059 72.9023 249.875 71.8418 249.881 70.3359ZM250.784 70.3359C250.778 71.3613 251.581 72.0938 252.612 72.0938C253.661 72.0938 254.446 71.3613 254.452 70.3359C254.446 69.3047 253.661 68.5781 252.612 68.5781C251.581 68.5781 250.778 69.3047 250.784 70.3359ZM251.311 77.2266V73.9219H252.213V76.4531H258.307V77.2266H251.311ZM268.57 67.043V74.6836H267.644V70.6875H265.5V69.9258H267.644V67.043H268.57ZM259.98 72.5977C261.515 72.0586 262.629 70.6816 262.629 69.1875V68.6484H260.273V67.8867H265.886V68.6484H263.554V69.1875C263.554 70.5352 264.597 71.8418 266.121 72.3633L265.64 73.1016C264.468 72.6738 263.56 71.8008 263.109 70.7227C262.658 71.9297 261.697 72.8848 260.461 73.3477L259.98 72.5977ZM261.879 77.2266V73.9922H262.804V76.4531H268.863V77.2266H261.879ZM279.091 67.0312V77.4492H278.212V67.0312H279.091ZM270.055 74.6719C271.509 73.8047 272.358 71.9004 272.352 70.0078V69.0234H270.348V68.2617H275.153V69.0234H273.243V70.0078C273.243 71.8066 274.057 73.6055 275.493 74.4375L274.93 75.1172C273.905 74.502 273.178 73.377 272.815 72.0527C272.44 73.4883 271.684 74.7129 270.641 75.3633L270.055 74.6719ZM274.356 71.543V70.793H276.114V67.2891H276.981V76.9102H276.114V71.543H274.356ZM288.58 67.0312V70.207H290.15V70.9805H288.58V74.7188H287.666V67.0312H288.58ZM280.635 70.3359C280.629 68.8242 281.812 67.7754 283.365 67.7695C284.93 67.7754 286.096 68.8242 286.107 70.3359C286.096 71.8418 284.93 72.9023 283.365 72.9023C281.812 72.9023 280.629 71.8418 280.635 70.3359ZM281.537 70.3359C281.531 71.3613 282.334 72.0938 283.365 72.0938C284.414 72.0938 285.199 71.3613 285.205 70.3359C285.199 69.3047 284.414 68.5781 283.365 68.5781C282.334 68.5781 281.531 69.3047 281.537 70.3359ZM282.064 77.2266V73.9219H282.967V76.4531H289.06V77.2266H282.064Z" fill="#333333"/>
<path d="M243.997 101.617C242.228 101.617 240.933 100.574 240.903 99.1094H242.614C242.655 99.7715 243.259 100.229 243.997 100.223C244.876 100.229 245.503 99.6074 245.497 98.7227C245.503 97.8203 244.864 97.1934 243.974 97.1875C243.335 97.1875 242.89 97.4277 242.638 97.9023H241.044L241.501 93.0156H246.728V94.457H242.954L242.72 96.6016H242.79C243.101 96.1855 243.745 95.8809 244.489 95.8867C246.048 95.8809 247.208 97.0469 247.208 98.6758C247.208 100.393 245.907 101.617 243.997 101.617ZM251.576 101.617C249.449 101.617 248.166 100.035 248.166 97.2578C248.166 94.4863 249.461 92.8984 251.576 92.8984C253.692 92.8984 254.986 94.4863 254.986 97.2578C254.986 100.047 253.697 101.617 251.576 101.617ZM249.971 97.2578C249.959 99.2148 250.592 100.164 251.576 100.164C252.561 100.164 253.188 99.2148 253.182 97.2578C253.188 95.3184 252.555 94.3457 251.576 94.3398C250.598 94.3457 249.971 95.3184 249.971 97.2578ZM264.722 91.9258V99.7188H263.234V96.2383H261.324V95.0078H263.234V91.9258H264.722ZM255.874 97.4688C258.083 96.7773 259.513 95.5 259.788 93.9297H256.425V92.7109H261.417C261.417 95.5703 259.601 97.6855 256.484 98.6523L255.874 97.4688ZM257.691 102.391V98.9336H259.214V101.195H264.991V102.391H257.691Z" fill="#333333"/>
</g>
<path d="M293 60.5H213C207.753 60.5 203.5 64.7533 203.5 70V100C203.5 105.247 207.753 109.5 213 109.5H293C298.247 109.5 302.5 105.247 302.5 100V70C302.5 64.7533 298.247 60.5 293 60.5Z" stroke="#BBBFCF"/>
<mask id="mask2_3_386" style="mask-type:luminance" maskUnits="userSpaceOnUse" x="203" y="120" width="100" height="50">
<path d="M293 120H213C207.477 120 203 124.477 203 130V160C203 165.523 207.477 170 213 170H293C298.523 170 303 165.523 303 160V130C303 124.477 298.523 120 293 120Z" fill="white"/>
</mask>
<g mask="url(#mask2_3_386)">
<path d="M303 120H203V145H303V120Z" fill="#BBBFCF"/>
<path d="M228.318 127.043V134.684H227.404V127.043H228.318ZM219.822 132.457C221.398 131.842 222.471 130.318 222.471 128.672V127.629H223.408V128.672C223.397 130.26 224.48 131.684 226.033 132.246L225.553 132.984C224.346 132.521 223.408 131.584 222.945 130.383C222.494 131.66 221.545 132.686 220.326 133.172L219.822 132.457ZM221.592 137.227V133.98H222.506V136.453H228.647V137.227H221.592ZM238.148 127.711V128.508C238.148 129.439 238.148 130.605 237.855 132.258H239.46V133.02H236.952V137.449H236.038V133.02H233.366V137.449H232.452V133.02H229.968V132.258H236.911C237.251 130.623 237.251 129.434 237.257 128.508V128.473H231.187V127.711H238.148ZM246.158 130.23C246.163 131.895 247.013 133.605 248.443 134.367L247.904 135.059C246.867 134.49 246.117 133.418 245.736 132.164C245.367 133.5 244.617 134.66 243.579 135.27L243.029 134.59C244.435 133.764 245.285 131.953 245.29 130.23V129.75H243.275V128.988H245.29V127.418H246.169V128.988H248.162V129.75H246.158V130.23ZM248.876 136.922V127.254H249.755V131.25H251.173V127.031H252.064V137.449H251.173V132.035H249.755V136.922H248.876ZM262.854 132.188V132.949H253.362V132.188H255.717V130.717C254.885 130.395 254.417 129.867 254.417 129.164C254.417 127.939 255.823 127.236 258.108 127.23C260.375 127.236 261.782 127.939 261.788 129.164C261.782 129.861 261.319 130.389 260.499 130.717V132.188H262.854ZM254.51 135.586C254.504 134.396 255.846 133.74 258.108 133.746C260.34 133.74 261.682 134.396 261.694 135.586C261.682 136.775 260.34 137.426 258.108 137.426C255.846 137.426 254.504 136.775 254.51 135.586ZM255.366 129.164C255.36 129.926 256.403 130.365 258.108 130.371C259.795 130.365 260.844 129.926 260.85 129.164C260.844 128.414 259.795 127.957 258.108 127.957C256.403 127.957 255.36 128.414 255.366 129.164ZM255.448 135.586C255.436 136.295 256.438 136.717 258.108 136.711C259.76 136.717 260.762 136.295 260.768 135.586C260.762 134.877 259.76 134.461 258.108 134.449C256.438 134.461 255.436 134.877 255.448 135.586ZM256.631 132.188H259.584V130.963C259.145 131.045 258.653 131.086 258.108 131.086C257.563 131.086 257.071 131.045 256.631 130.969V132.188ZM267.14 130.23C267.129 131.9 268.336 133.74 269.847 134.461L269.32 135.188C268.148 134.613 267.158 133.383 266.689 131.971C266.209 133.5 265.166 134.848 264 135.445L263.437 134.719C264.937 133.986 266.226 132.006 266.238 130.23V128.871H263.812V128.109H269.484V128.871H267.14V130.23ZM270.761 137.449V127.031H271.675V131.25H273.422V132.035H271.675V137.449H270.761ZM281.982 128.004C281.988 129.475 283.898 130.74 285.779 131.004L285.404 131.754C283.787 131.484 282.182 130.588 281.514 129.311C280.846 130.6 279.246 131.484 277.623 131.754L277.248 131.004C279.129 130.74 281.033 129.498 281.033 128.004V127.406H281.982V128.004ZM276.756 133.676V132.902H286.248V133.676H281.935V137.449H281.033V133.676H276.756Z" fill="#333333"/>
<path d="M241.883 153.016V161.5H240.114V154.691H240.067L238.121 155.91V154.352L240.219 153.016H241.883ZM243.732 161.5L243.72 160.223L246.767 157.422C247.558 156.666 247.986 156.197 247.986 155.523C247.986 154.768 247.417 154.299 246.638 154.305C245.841 154.299 245.32 154.803 245.326 155.617H243.65C243.644 153.959 244.874 152.898 246.662 152.898C248.478 152.898 249.685 153.936 249.685 155.406C249.685 156.373 249.216 157.164 247.47 158.746L246.181 160V160.047H249.802V161.5H243.732ZM254.229 161.617C252.102 161.617 250.819 160.035 250.819 157.258C250.819 154.486 252.114 152.898 254.229 152.898C256.344 152.898 257.639 154.486 257.639 157.258C257.639 160.047 256.35 161.617 254.229 161.617ZM252.624 157.258C252.612 159.215 253.245 160.164 254.229 160.164C255.213 160.164 255.84 159.215 255.834 157.258C255.84 155.318 255.208 154.346 254.229 154.34C253.25 154.346 252.624 155.318 252.624 157.258ZM267.375 151.926V159.719H265.886V156.238H263.976V155.008H265.886V151.926H267.375ZM258.527 157.469C260.736 156.777 262.166 155.5 262.441 153.93H259.078V152.711H264.07C264.07 155.57 262.254 157.686 259.136 158.652L258.527 157.469ZM260.343 162.391V158.934H261.867V161.195H267.644V162.391H260.343Z" fill="#333333"/>
</g>
<path d="M293 120.5H213C207.753 120.5 203.5 124.753 203.5 130V160C203.5 165.247 207.753 169.5 213 169.5H293C298.247 169.5 302.5 165.247 302.5 160V130C302.5 124.753 298.247 120.5 293 120.5Z" stroke="#BBBFCF"/>
<mask id="mask3_3_386" style="mask-type:luminance" maskUnits="userSpaceOnUse" x="203" y="180" width="100" height="50">
<path d="M293 180H213C207.477 180 203 184.477 203 190V220C203 225.523 207.477 230 213 230H293C298.523 230 303 225.523 303 220V190C303 184.477 298.523 180 293 180Z" fill="white"/>
</mask>
<g mask="url(#mask3_3_386)">
<path d="M303 180H203V205H303V180Z" fill="#BBBFCF"/>
<path d="M224.322 187.664V188.473C224.322 189.352 224.322 190.406 224.047 191.824H225.576V192.598H216.037V191.824H223.133C223.414 190.383 223.414 189.357 223.408 188.473V188.414H217.244V187.664H224.322ZM217.303 197.215V193.77H218.217V196.441H224.639V197.215H217.303ZM235.827 195.387V196.16H226.288V195.387H230.577V193.418H227.484V190.207H233.718V188.566H227.46V187.805H234.62V190.957H228.398V192.656H234.866V193.418H231.48V195.387H235.827ZM240.067 190.23C240.055 191.9 241.262 193.74 242.774 194.461L242.246 195.188C241.074 194.613 240.084 193.383 239.615 191.971C239.135 193.5 238.092 194.848 236.926 195.445L236.364 194.719C237.864 193.986 239.153 192.006 239.164 190.23V188.871H236.739V188.109H242.41V188.871H240.067V190.23ZM243.688 197.449V187.031H244.602V191.25H246.348V192.035H244.602V197.449H243.688ZM257.827 187.031V190.207H259.397V190.98H257.827V194.719H256.913V187.031H257.827ZM249.881 190.336C249.875 188.824 251.059 187.775 252.612 187.77C254.176 187.775 255.342 188.824 255.354 190.336C255.342 191.842 254.176 192.902 252.612 192.902C251.059 192.902 249.875 191.842 249.881 190.336ZM250.784 190.336C250.778 191.361 251.581 192.094 252.612 192.094C253.661 192.094 254.446 191.361 254.452 190.336C254.446 189.305 253.661 188.578 252.612 188.578C251.581 188.578 250.778 189.305 250.784 190.336ZM251.311 197.227V193.922H252.213V196.453H258.307V197.227H251.311ZM268.57 187.043V194.684H267.644V190.688H265.5V189.926H267.644V187.043H268.57ZM259.98 192.598C261.515 192.059 262.629 190.682 262.629 189.188V188.648H260.273V187.887H265.886V188.648H263.554V189.188C263.554 190.535 264.597 191.842 266.121 192.363L265.64 193.102C264.468 192.674 263.56 191.801 263.109 190.723C262.658 191.93 261.697 192.885 260.461 193.348L259.98 192.598ZM261.879 197.227V193.992H262.804V196.453H268.863V197.227H261.879ZM278.786 187.043V194.684H277.872V187.043H278.786ZM270.29 192.457C271.866 191.842 272.938 190.318 272.938 188.672V187.629H273.876V188.672C273.864 190.26 274.948 191.684 276.501 192.246L276.02 192.984C274.813 192.521 273.876 191.584 273.413 190.383C272.962 191.66 272.012 192.686 270.794 193.172L270.29 192.457ZM272.059 197.227V193.98H272.973V196.453H279.114V197.227H272.059ZM288.791 188.086V189.129C288.779 190.406 288.779 191.836 288.404 193.934L287.467 193.828C287.859 191.836 287.859 190.377 287.865 189.129V188.848H281.443V188.086H288.791ZM280.435 195.973V195.211H284.162V191.484H285.064V195.211H289.928V195.973H280.435Z" fill="#333333"/>
<path d="M243.997 221.617C242.228 221.617 240.933 220.574 240.903 219.109H242.614C242.655 219.771 243.259 220.229 243.997 220.223C244.876 220.229 245.503 219.607 245.497 218.723C245.503 217.82 244.864 217.193 243.974 217.188C243.335 217.188 242.89 217.428 242.638 217.902H241.044L241.501 213.016H246.728V214.457H242.954L242.72 216.602H242.79C243.101 216.186 243.745 215.881 244.489 215.887C246.048 215.881 247.208 217.047 247.208 218.676C247.208 220.393 245.907 221.617 243.997 221.617ZM251.576 221.617C249.449 221.617 248.166 220.035 248.166 217.258C248.166 214.486 249.461 212.898 251.576 212.898C253.692 212.898 254.986 214.486 254.986 217.258C254.986 220.047 253.697 221.617 251.576 221.617ZM249.971 217.258C249.959 219.215 250.592 220.164 251.576 220.164C252.561 220.164 253.188 219.215 253.182 217.258C253.188 215.318 252.555 214.346 251.576 214.34C250.598 214.346 249.971 215.318 249.971 217.258ZM264.722 211.926V219.719H263.234V216.238H261.324V215.008H263.234V211.926H264.722ZM255.874 217.469C258.083 216.777 259.513 215.5 259.788 213.93H256.425V212.711H261.417C261.417 215.57 259.601 217.686 256.484 218.652L255.874 217.469ZM257.691 222.391V218.934H259.214V221.195H264.991V222.391H257.691Z" fill="#333333"/>
</g>
<path d="M293 180.5H213C207.753 180.5 203.5 184.753 203.5 190V220C203.5 225.247 207.753 229.5 213 229.5H293C298.247 229.5 302.5 225.247 302.5 220V190C302.5 184.753 298.247 180.5 293 180.5Z" stroke="#BBBFCF"/>
</g>
<defs>
<clipPath id="clip0_3_386">
<rect width="100" height="230" fill="white" transform="translate(203)"/>
</clipPath>
</defs>
</svg>
