<svg width="330" height="230" viewBox="0 0 330 230" fill="none" xmlns="http://www.w3.org/2000/svg">
<path d="M0 0H330V30H0V0Z" fill="#E7E7E7"/>
<mask id="path-2-inside-1_3397_3172" fill="white">
<path d="M0 0H110V30H0V0Z"/>
</mask>
<path d="M0 0V1H110V0V-1H0V0ZM110 30V29H0V30V31H110V30Z" fill="#BBBFCF" mask="url(#path-2-inside-1_3397_3172)"/>
<path d="M48.2969 9.85938C49.9258 9.84766 51.1094 10.7793 51.1094 12.1211C51.1094 13.4512 49.9258 14.3945 48.2969 14.3828C46.6738 14.3945 45.4902 13.4512 45.4961 12.1211C45.4902 10.7793 46.6738 9.84766 48.2969 9.85938ZM44.8398 15.0391C46.7324 15.0332 49.4102 14.998 51.6836 14.6523L51.7773 15.7539C50.8984 15.9297 49.9961 16.041 49.1055 16.1113V19.7617H47.6172V16.1992C46.6797 16.2402 45.7949 16.2461 45.0273 16.2578L44.8398 15.0391ZM46.9375 12.1211C46.9316 12.7891 47.5 13.1758 48.2969 13.1641C49.1172 13.1758 49.6914 12.7891 49.6914 12.1211C49.6914 11.4414 49.1172 11.0488 48.2969 11.0547C47.5 11.0488 46.9316 11.4414 46.9375 12.1211ZM52.3281 20.0781V9.42578H53.8047V20.0781H52.3281ZM64.1055 9.41406V20.0781H62.6055V9.41406H64.1055ZM55.2461 16.9375C56.998 16.1699 57.8652 14.377 57.8711 12.7539V12.3438H55.5977V11.1484H57.8594V9.64844H59.3477V11.1484H61.5742V12.3438H59.3594V12.7539C59.3594 14.3008 60.2324 16.041 62.0078 16.7734L61.1992 17.9219C59.9863 17.4238 59.1191 16.4043 58.6328 15.1797C58.1582 16.4746 57.2852 17.5645 56.043 18.0859L55.2461 16.9375Z" fill="#55596C"/>
<mask id="path-5-inside-2_3397_3172" fill="white">
<path d="M110 0H160V30H110V0Z"/>
</mask>
<path d="M110 0V1H160V0V-1H110V0ZM160 30V29H110V30V31H160V30Z" fill="#BBBFCF" mask="url(#path-5-inside-2_3397_3172)"/>
<path d="M130.406 13.2344V14.5117H134.543V15.7188H124.816V14.5117H128.93V13.2344H130.406ZM125.238 12.6719C127.225 12.4844 128.314 11.7812 128.584 11.043H125.707V9.87109H133.664V11.043H130.764C131.027 11.7754 132.117 12.4844 134.121 12.6719L133.594 13.8438C131.584 13.6445 130.236 12.9004 129.668 11.8691C129.105 12.8945 127.77 13.6445 125.766 13.8438L125.238 12.6719ZM125.93 18.1914C125.93 16.9785 127.33 16.3047 129.668 16.3047C131.988 16.3047 133.371 16.9785 133.383 18.1914C133.371 19.4043 131.988 20.084 129.668 20.0781C127.33 20.084 125.93 19.4043 125.93 18.1914ZM127.453 18.1914C127.447 18.7129 128.174 18.9648 129.668 18.9648C131.127 18.9648 131.877 18.7129 131.883 18.1914C131.877 17.6816 131.127 17.4414 129.668 17.4414C128.174 17.4414 127.447 17.6816 127.453 18.1914ZM144.938 15.6719V16.8438H142.688V20.0781H141.176V16.8438H138.949V20.0781H137.461V16.8438H135.176V15.6719H144.938ZM136.301 10.9492V9.73047H143.812V12.8359H137.848V13.7031H144.059V14.8984H136.336V11.7461H142.277V10.9492H136.301Z" fill="#55596C"/>
<mask id="path-8-inside-3_3397_3172" fill="white">
<path d="M160 0H205V30H160V0Z"/>
</mask>
<path d="M160 0V1H205V0V-1H160V0ZM205 30V29H160V30V31H205V30Z" fill="#BBBFCF" mask="url(#path-8-inside-3_3397_3172)"/>
<path d="M181.516 9.41406V20.0781H180.074V14.6523H179.102V19.6094H177.707V9.69531H179.102V13.457H180.074V9.41406H181.516ZM172.188 16.8555C174.361 15.5781 175.299 14.0137 175.498 11.9219H172.727V10.7266H176.957C176.951 13.7031 176.061 16.1406 173.055 17.8867L172.188 16.8555ZM188.348 10.2461C188.342 11.5059 189.631 12.8945 192.074 13.1992L191.488 14.4062C189.625 14.1367 188.26 13.2754 187.562 12.1211C186.859 13.2695 185.5 14.1367 183.66 14.4062L183.062 13.1992C185.488 12.8945 186.771 11.5059 186.777 10.2461V9.73047H188.348V10.2461ZM182.688 16.4336V15.2148H192.414V16.4336H188.266V20.0781H186.789V16.4336H182.688Z" fill="#55596C"/>
<mask id="path-11-inside-4_3397_3172" fill="white">
<path d="M205 0H275V30H205V0Z"/>
</mask>
<path d="M205 0V1H275V0V-1H205V0ZM275 30V29H205V30V31H275V30Z" fill="#BBBFCF" mask="url(#path-11-inside-4_3397_3172)"/>
<path d="M233.305 9.41406V14.8398H231.816V12.1914H229.812V11.0078H231.816V9.41406H233.305ZM224.234 13.7383C226.004 13.2168 226.795 11.916 226.801 10.5391V9.76562H228.312V10.5391C228.307 11.8105 229.051 13.0469 230.75 13.5508L229.965 14.6992C228.822 14.3359 228.025 13.6211 227.562 12.707C227.094 13.7324 226.256 14.5293 225.008 14.9219L224.234 13.7383ZM226.215 16.4336V15.2852H233.305V18.1328H227.703V18.7891H233.609V19.9609H226.227V17.043H231.828V16.4336H226.215ZM243.605 9.41406V20.0781H242.105V9.41406H243.605ZM234.746 16.9375C236.498 16.1699 237.365 14.377 237.371 12.7539V12.3438H235.098V11.1484H237.359V9.64844H238.848V11.1484H241.074V12.3438H238.859V12.7539C238.859 14.3008 239.732 16.041 241.508 16.7734L240.699 17.9219C239.486 17.4238 238.619 16.4043 238.133 15.1797C237.658 16.4746 236.785 17.5645 235.543 18.0859L234.746 16.9375ZM248.094 9.73047C249.717 9.72461 250.936 10.7441 250.941 12.168C250.936 13.5801 249.717 14.5879 248.094 14.5938C246.447 14.5879 245.223 13.5801 245.223 12.168C245.223 10.7441 246.447 9.72461 248.094 9.73047ZM246.676 12.168C246.664 12.9297 247.268 13.3809 248.094 13.3867C248.902 13.3809 249.494 12.9297 249.5 12.168C249.494 11.4004 248.902 10.9492 248.094 10.9492C247.273 10.9492 246.664 11.4004 246.676 12.168ZM246.828 16.3516V15.2031H253.988V18.0977H248.316V18.7891H254.281V19.9609H246.852V17.0078H252.5V16.3516H246.828ZM252.488 14.7578V9.41406H253.988V14.7578H252.488Z" fill="#55596C"/>
<mask id="path-14-inside-5_3397_3172" fill="white">
<path d="M275 0H330V30H275V0Z"/>
</mask>
<path d="M275 0V1H330V0V-1H275V0ZM330 30V29H275V30V31H330V30Z" fill="#BBBFCF" mask="url(#path-14-inside-5_3397_3172)"/>
<path d="M296.207 11.0898C296.201 12.3848 296.957 13.627 298.645 14.1484L297.848 15.3086C296.717 14.9336 295.926 14.207 295.469 13.2754C295.006 14.3477 294.18 15.1914 292.961 15.6016L292.152 14.4297C293.934 13.8379 294.695 12.4199 294.707 10.9492V9.97656H296.207V11.0898ZM293.629 18.0156C293.623 16.7207 295.035 15.9531 297.285 15.9531C299.494 15.9531 300.877 16.7207 300.883 18.0156C300.877 19.3223 299.494 20.084 297.285 20.0781C295.035 20.084 293.623 19.3223 293.629 18.0156ZM295.129 18.0156C295.117 18.6191 295.885 18.9062 297.285 18.9062C298.668 18.9062 299.406 18.6191 299.406 18.0156C299.406 17.4355 298.668 17.125 297.285 17.125C295.885 17.125 295.117 17.4355 295.129 18.0156ZM299.277 15.7422V9.41406H300.777V11.9102H302.219V13.1523H300.777V15.7422H299.277ZM307.398 10.5273V11.7109H304.48V13.3164H307.188V14.4648H304.48V16.3867C305.682 16.375 306.561 16.334 307.598 16.1875L307.703 17.4062C306.473 17.5996 305.424 17.6406 303.801 17.6406H303.051V10.5273H307.398ZM308.172 19.5859V9.56641H309.578V13.5508H310.504V9.41406H311.934V20.0781H310.504V14.7461H309.578V19.5859H308.172Z" fill="#55596C"/>
<path d="M41.8125 54H40.7109L43.8164 45.5156H44.9297L48.0352 54H46.9219L46.0723 51.6094H42.6621L41.8125 54ZM42.9844 50.6836H45.75L44.4023 46.8867H44.332L42.9844 50.6836ZM56.9062 45.2109V46.125C56.9062 47.1094 56.9062 48.1934 56.6074 49.6875H58.1602V50.4492H53.8594V54.9727H52.9336V50.4492H48.668V49.6875H55.6758C55.9922 48.1875 55.9922 47.0977 55.9922 46.125V45.9727H49.8633V45.2109H56.9062ZM67.6758 51.2461V54.9492H66.75V51.9844H60.668V51.2461H67.6758ZM59.2031 47.6133C59.1973 46.1602 60.3516 45.123 61.9102 45.1289C62.8125 45.123 63.5801 45.4805 64.0605 46.0664H66.75V44.5312H67.6758V50.6719H66.75V49.1719H64.0664C63.5859 49.7637 62.8184 50.1152 61.9102 50.1094C60.3516 50.1211 59.1973 49.0957 59.2031 47.6133ZM60.082 47.6133C60.082 48.627 60.8438 49.3359 61.9102 49.3359C62.9355 49.3359 63.7148 48.627 63.7148 47.6133C63.7148 46.6348 62.9355 45.9141 61.9102 45.9141C60.8438 45.9141 60.082 46.6348 60.082 47.6133ZM64.4824 48.4102H66.75V46.8281H64.4766C64.5586 47.0742 64.6055 47.332 64.6055 47.6133C64.6055 47.8945 64.5586 48.1641 64.4824 48.4102Z" fill="#333333"/>
<path d="M123.148 47.7305C123.154 49.5 124.438 51.2988 125.973 51.9609L125.457 52.6875C124.238 52.1367 123.189 50.9355 122.703 49.4941C122.217 51.0234 121.162 52.3477 119.973 52.9453L119.422 52.2188C120.916 51.5039 122.217 49.5352 122.223 47.7305V46.3711H119.762V45.6094H125.633V46.3711H123.148V47.7305ZM127.086 54.9492V44.5312H128.012V54.9492H127.086ZM133.52 47.7305C133.525 49.5 134.809 51.2988 136.344 51.9609L135.828 52.6875C134.609 52.1367 133.561 50.9355 133.074 49.4941C132.588 51.0234 131.533 52.3477 130.344 52.9453L129.793 52.2188C131.287 51.5039 132.588 49.5352 132.594 47.7305V46.3711H130.133V45.6094H136.004V46.3711H133.52V47.7305ZM137.457 54.9492V44.5312H138.383V54.9492H137.457ZM141.605 45.1523V46.8867H144.512V45.1523H145.414V46.207H147.875V44.5312H148.801V50.7305H147.875V49.0898H145.414V50.1328H140.691V45.1523H141.605ZM141.605 49.3711H144.512V47.6133H141.605V49.3711ZM141.793 52.0312V51.2812H148.801V54.9492H147.875V52.0312H141.793ZM145.414 48.3281H147.875V46.9688H145.414V48.3281Z" fill="#55596C"/>
<path d="M175.797 54L175.785 53.2266L178.68 50.1797C179.682 49.1133 180.162 48.5391 180.168 47.7539C180.162 46.8809 179.436 46.3184 178.48 46.3125C177.467 46.3184 176.834 46.957 176.828 47.9062H175.832C175.82 46.4062 176.98 45.3984 178.516 45.3984C180.057 45.3984 181.146 46.4355 181.152 47.7539C181.146 48.7031 180.707 49.4414 179.207 50.9883L177.262 52.9922V53.0625H181.305V54H175.797ZM185.605 54.1172C184.076 54.1172 182.916 53.1738 182.852 51.8672H183.871C183.947 52.623 184.686 53.1855 185.605 53.1914C186.707 53.1855 187.504 52.3828 187.504 51.3164C187.504 50.2148 186.678 49.4004 185.535 49.3945C184.82 49.3828 184.264 49.6055 183.953 50.1562H182.934L183.531 45.5156H188.125V46.4531H184.41L184.094 48.9375H184.176C184.557 48.6445 185.125 48.4453 185.723 48.4453C187.34 48.4453 188.529 49.6406 188.535 51.293C188.529 52.9336 187.299 54.1172 185.605 54.1172Z" fill="#55596C"/>
<path d="M216.297 54L216.285 53.2266L219.18 50.1797C220.182 49.1133 220.662 48.5391 220.668 47.7539C220.662 46.8809 219.936 46.3184 218.98 46.3125C217.967 46.3184 217.334 46.957 217.328 47.9062H216.332C216.32 46.4062 217.48 45.3984 219.016 45.3984C220.557 45.3984 221.646 46.4355 221.652 47.7539C221.646 48.7031 221.207 49.4414 219.707 50.9883L217.762 52.9922V53.0625H221.805V54H216.297ZM226.293 54.1172C224.822 54.0996 223.199 53.2266 223.199 50.0859C223.199 47.0801 224.43 45.3984 226.422 45.3984C227.916 45.3984 228.959 46.3184 229.176 47.6484H228.133C227.939 46.8984 227.365 46.3359 226.422 46.3359C225.027 46.3359 224.189 47.5254 224.195 49.5703H224.301C224.787 48.8613 225.566 48.4453 226.48 48.4453C227.986 48.4453 229.246 49.6172 229.246 51.2578C229.246 52.8574 228.08 54.1348 226.293 54.1172ZM224.336 51.2812C224.342 52.2773 225.156 53.1855 226.293 53.1914C227.389 53.1855 228.221 52.3242 228.227 51.2695C228.221 50.2266 227.424 49.377 226.316 49.3711C225.203 49.377 224.348 50.2793 224.336 51.2812ZM231.027 54.0703C230.617 54.0645 230.266 53.7246 230.277 53.3086C230.266 52.8984 230.617 52.5586 231.027 52.5586C231.443 52.5586 231.783 52.8984 231.777 53.3086C231.783 53.7246 231.443 54.0645 231.027 54.0703ZM235.82 54.1172C233.939 54.1172 232.85 52.5352 232.855 49.7578C232.85 47.0039 233.951 45.3984 235.82 45.3984C237.684 45.3984 238.785 47.0039 238.785 49.7578C238.785 52.5352 237.701 54.1172 235.82 54.1172ZM233.875 49.7578C233.881 51.9551 234.59 53.1797 235.82 53.1797C237.045 53.1797 237.76 51.9551 237.754 49.7578C237.76 47.5605 237.039 46.3184 235.82 46.3125C234.602 46.3184 233.881 47.5605 233.875 49.7578ZM240.191 54L240.18 53.2266L243.074 50.1797C244.076 49.1133 244.557 48.5391 244.562 47.7539C244.557 46.8809 243.83 46.3184 242.875 46.3125C241.861 46.3184 241.229 46.957 241.223 47.9062H240.227C240.215 46.4062 241.375 45.3984 242.91 45.3984C244.451 45.3984 245.541 46.4355 245.547 47.7539C245.541 48.7031 245.102 49.4414 243.602 50.9883L241.656 52.9922V53.0625H245.699V54H240.191ZM247.961 54.0703C247.551 54.0645 247.199 53.7246 247.211 53.3086C247.199 52.8984 247.551 52.5586 247.961 52.5586C248.377 52.5586 248.717 52.8984 248.711 53.3086C248.717 53.7246 248.377 54.0645 247.961 54.0703ZM250.281 54L250.27 53.2266L253.164 50.1797C254.166 49.1133 254.646 48.5391 254.652 47.7539C254.646 46.8809 253.92 46.3184 252.965 46.3125C251.951 46.3184 251.318 46.957 251.312 47.9062H250.316C250.305 46.4062 251.465 45.3984 253 45.3984C254.541 45.3984 255.631 46.4355 255.637 47.7539C255.631 48.7031 255.191 49.4414 253.691 50.9883L251.746 52.9922V53.0625H255.789V54H250.281ZM260.16 54.1172C258.373 54.1172 257.143 53.127 257.148 51.75C257.143 50.6543 257.904 49.7461 258.871 49.5938V49.5469C258.027 49.3535 257.471 48.5742 257.477 47.6484C257.471 46.3535 258.607 45.3984 260.16 45.3984C261.707 45.3984 262.844 46.3535 262.855 47.6484C262.844 48.5742 262.281 49.3535 261.449 49.5469V49.5938C262.41 49.7461 263.172 50.6543 263.184 51.75C263.172 53.127 261.93 54.1172 260.16 54.1172ZM258.203 51.6914C258.186 52.582 258.941 53.1855 260.16 53.1914C261.373 53.1855 262.129 52.582 262.129 51.6914C262.129 50.7539 261.303 50.0625 260.16 50.0625C259.023 50.0625 258.186 50.7539 258.203 51.6914ZM258.496 47.7305C258.502 48.5859 259.188 49.166 260.16 49.1719C261.127 49.166 261.824 48.5859 261.824 47.7305C261.824 46.8809 261.15 46.3066 260.16 46.3125C259.152 46.3066 258.502 46.8809 258.496 47.7305Z" fill="#55596C"/>
<path d="M295.512 44.5312V54.9727H294.586V44.5312H295.512ZM287.531 52.4531V45.4219H288.445V48.1758H291.551V45.4219H292.453V52.4531H287.531ZM288.445 51.6797H291.551V48.9141H288.445V51.6797ZM305.426 44.5312V47.2031H306.984V47.9883H305.426V50.6836H304.5V44.5312H305.426ZM297.246 49.7461C298.078 49.7461 299.051 49.7461 300.07 49.7168V49.0723C298.846 48.9727 298.072 48.4863 298.078 47.6953C298.072 46.8398 299.033 46.3418 300.516 46.3477C301.998 46.3418 302.953 46.8398 302.965 47.6953C302.953 48.4805 302.197 48.9668 300.984 49.0723V49.6816C301.957 49.6348 302.941 49.5586 303.855 49.4297L303.938 50.0508C301.688 50.4199 299.186 50.4375 297.352 50.4375L297.246 49.7461ZM297.504 45.9961V45.3281H300.07V44.4375H300.984V45.3281H303.539V45.9961H297.504ZM298.641 51.8086V51.1523H305.426V53.25H299.578V54.1758H305.824V54.832H298.664V52.6289H304.512V51.8086H298.641ZM298.957 47.6953C298.951 48.1641 299.555 48.4629 300.516 48.4688C301.477 48.4629 302.086 48.1641 302.086 47.6953C302.086 47.2383 301.477 46.9629 300.516 46.957C299.555 46.9629 298.951 47.2383 298.957 47.6953ZM311.25 46.1719C311.238 47.6602 312.299 48.9668 313.828 49.4883L313.312 50.2031C312.164 49.7754 311.262 48.9258 310.811 47.8301C310.365 49.0781 309.416 50.0449 308.156 50.5195L307.652 49.7695C309.258 49.207 310.324 47.8242 310.336 46.207V45.1289H311.25V46.1719ZM309.352 52.9805C309.346 51.7266 310.676 51.0059 312.844 51.0117C315.006 51.0059 316.336 51.7266 316.336 52.9805C316.336 54.2227 315.006 54.9258 312.844 54.9258C310.676 54.9258 309.346 54.2227 309.352 52.9805ZM310.266 52.9805C310.26 53.7363 311.244 54.1934 312.844 54.1875C314.438 54.1934 315.422 53.7363 315.422 52.9805C315.422 52.2012 314.438 51.7383 312.844 51.7383C311.244 51.7383 310.26 52.2012 310.266 52.9805ZM313.055 47.5312V46.7695H315.375V44.5312H316.301V50.707H315.375V47.5312H313.055Z" fill="#55596C"/>
<path d="M41.4375 94V85.5156H44.4141C46.1953 85.5156 47.0332 86.5176 47.0273 87.7656C47.0332 88.8555 46.3828 89.3418 45.6445 89.5469V89.6289C46.4355 89.6758 47.3613 90.4023 47.3672 91.75C47.3613 93.0215 46.5234 94 44.5195 94H41.4375ZM42.4922 93.0625H44.5078C45.8379 93.0625 46.3535 92.4766 46.3477 91.7383C46.3535 90.877 45.6562 90.1445 44.5664 90.1445H42.4922V93.0625ZM42.4922 89.2305H44.3789C45.2988 89.2363 46.0195 88.6621 46.0195 87.7773C46.0195 87.0391 45.5215 86.4531 44.4141 86.4531H42.4922V89.2305ZM56.5898 85.2109V86.125C56.5898 87.1094 56.5898 88.1934 56.291 89.6875H57.8438V90.4492H53.543V94.9727H52.6172V90.4492H48.3516V89.6875H55.3594C55.6758 88.1875 55.6758 87.0977 55.6758 86.125V85.9727H49.5469V85.2109H56.5898ZM67.3594 91.2461V94.9492H66.4336V91.9844H60.3516V91.2461H67.3594ZM58.8867 87.6133C58.8809 86.1602 60.0352 85.123 61.5938 85.1289C62.4961 85.123 63.2637 85.4805 63.7441 86.0664H66.4336V84.5312H67.3594V90.6719H66.4336V89.1719H63.75C63.2695 89.7637 62.502 90.1152 61.5938 90.1094C60.0352 90.1211 58.8809 89.0957 58.8867 87.6133ZM59.7656 87.6133C59.7656 88.627 60.5273 89.3359 61.5938 89.3359C62.6191 89.3359 63.3984 88.627 63.3984 87.6133C63.3984 86.6348 62.6191 85.9141 61.5938 85.9141C60.5273 85.9141 59.7656 86.6348 59.7656 87.6133ZM64.166 88.4102H66.4336V86.8281H64.1602C64.2422 87.0742 64.2891 87.332 64.2891 87.6133C64.2891 87.8945 64.2422 88.1641 64.166 88.4102Z" fill="#333333"/>
<path d="M132.984 84.5312V88.7734H134.672V89.5469H132.984V94.9492H132.07V84.5312H132.984ZM124.992 92.2422C127.682 90.9062 129.146 88.8965 129.357 86.4297H125.473V85.6562H130.289C130.283 88.6035 128.9 91.293 125.508 92.9688L124.992 92.2422ZM136.734 85.1523V86.8867H139.641V85.1523H140.543V86.207H143.004V84.5312H143.93V90.7305H143.004V89.0898H140.543V90.1328H135.82V85.1523H136.734ZM136.734 89.3711H139.641V87.6133H136.734V89.3711ZM136.922 92.0312V91.2812H143.93V94.9492H143.004V92.0312H136.922ZM140.543 88.3281H143.004V86.9688H140.543V88.3281Z" fill="#55596C"/>
<path d="M175.797 94L175.785 93.2266L178.68 90.1797C179.682 89.1133 180.162 88.5391 180.168 87.7539C180.162 86.8809 179.436 86.3184 178.48 86.3125C177.467 86.3184 176.834 86.957 176.828 87.9062H175.832C175.82 86.4062 176.98 85.3984 178.516 85.3984C180.057 85.3984 181.146 86.4355 181.152 87.7539C181.146 88.7031 180.707 89.4414 179.207 90.9883L177.262 92.9922V93.0625H181.305V94H175.797ZM185.605 94.1172C184.076 94.1172 182.916 93.1738 182.852 91.8672H183.871C183.947 92.623 184.686 93.1855 185.605 93.1914C186.707 93.1855 187.504 92.3828 187.504 91.3164C187.504 90.2148 186.678 89.4004 185.535 89.3945C184.82 89.3828 184.264 89.6055 183.953 90.1562H182.934L183.531 85.5156H188.125V86.4531H184.41L184.094 88.9375H184.176C184.557 88.6445 185.125 88.4453 185.723 88.4453C187.34 88.4453 188.529 89.6406 188.535 91.293C188.529 92.9336 187.299 94.1172 185.605 94.1172Z" fill="#55596C"/>
<path d="M216.297 94L216.285 93.2266L219.18 90.1797C220.182 89.1133 220.662 88.5391 220.668 87.7539C220.662 86.8809 219.936 86.3184 218.98 86.3125C217.967 86.3184 217.334 86.957 217.328 87.9062H216.332C216.32 86.4062 217.48 85.3984 219.016 85.3984C220.557 85.3984 221.646 86.4355 221.652 87.7539C221.646 88.7031 221.207 89.4414 219.707 90.9883L217.762 92.9922V93.0625H221.805V94H216.297ZM226.293 94.1172C224.822 94.0996 223.199 93.2266 223.199 90.0859C223.199 87.0801 224.43 85.3984 226.422 85.3984C227.916 85.3984 228.959 86.3184 229.176 87.6484H228.133C227.939 86.8984 227.365 86.3359 226.422 86.3359C225.027 86.3359 224.189 87.5254 224.195 89.5703H224.301C224.787 88.8613 225.566 88.4453 226.48 88.4453C227.986 88.4453 229.246 89.6172 229.246 91.2578C229.246 92.8574 228.08 94.1348 226.293 94.1172ZM224.336 91.2812C224.342 92.2773 225.156 93.1855 226.293 93.1914C227.389 93.1855 228.221 92.3242 228.227 91.2695C228.221 90.2266 227.424 89.377 226.316 89.3711C225.203 89.377 224.348 90.2793 224.336 91.2812ZM231.027 94.0703C230.617 94.0645 230.266 93.7246 230.277 93.3086C230.266 92.8984 230.617 92.5586 231.027 92.5586C231.443 92.5586 231.783 92.8984 231.777 93.3086C231.783 93.7246 231.443 94.0645 231.027 94.0703ZM235.82 94.1172C233.939 94.1172 232.85 92.5352 232.855 89.7578C232.85 87.0039 233.951 85.3984 235.82 85.3984C237.684 85.3984 238.785 87.0039 238.785 89.7578C238.785 92.5352 237.701 94.1172 235.82 94.1172ZM233.875 89.7578C233.881 91.9551 234.59 93.1797 235.82 93.1797C237.045 93.1797 237.76 91.9551 237.754 89.7578C237.76 87.5605 237.039 86.3184 235.82 86.3125C234.602 86.3184 233.881 87.5605 233.875 89.7578ZM240.191 94L240.18 93.2266L243.074 90.1797C244.076 89.1133 244.557 88.5391 244.562 87.7539C244.557 86.8809 243.83 86.3184 242.875 86.3125C241.861 86.3184 241.229 86.957 241.223 87.9062H240.227C240.215 86.4062 241.375 85.3984 242.91 85.3984C244.451 85.3984 245.541 86.4355 245.547 87.7539C245.541 88.7031 245.102 89.4414 243.602 90.9883L241.656 92.9922V93.0625H245.699V94H240.191ZM247.961 94.0703C247.551 94.0645 247.199 93.7246 247.211 93.3086C247.199 92.8984 247.551 92.5586 247.961 92.5586C248.377 92.5586 248.717 92.8984 248.711 93.3086C248.717 93.7246 248.377 94.0645 247.961 94.0703ZM250.281 94L250.27 93.2266L253.164 90.1797C254.166 89.1133 254.646 88.5391 254.652 87.7539C254.646 86.8809 253.92 86.3184 252.965 86.3125C251.951 86.3184 251.318 86.957 251.312 87.9062H250.316C250.305 86.4062 251.465 85.3984 253 85.3984C254.541 85.3984 255.631 86.4355 255.637 87.7539C255.631 88.7031 255.191 89.4414 253.691 90.9883L251.746 92.9922V93.0625H255.789V94H250.281ZM260.16 94.1172C258.373 94.1172 257.143 93.127 257.148 91.75C257.143 90.6543 257.904 89.7461 258.871 89.5938V89.5469C258.027 89.3535 257.471 88.5742 257.477 87.6484C257.471 86.3535 258.607 85.3984 260.16 85.3984C261.707 85.3984 262.844 86.3535 262.855 87.6484C262.844 88.5742 262.281 89.3535 261.449 89.5469V89.5938C262.41 89.7461 263.172 90.6543 263.184 91.75C263.172 93.127 261.93 94.1172 260.16 94.1172ZM258.203 91.6914C258.186 92.582 258.941 93.1855 260.16 93.1914C261.373 93.1855 262.129 92.582 262.129 91.6914C262.129 90.7539 261.303 90.0625 260.16 90.0625C259.023 90.0625 258.186 90.7539 258.203 91.6914ZM258.496 87.7305C258.502 88.5859 259.188 89.166 260.16 89.1719C261.127 89.166 261.824 88.5859 261.824 87.7305C261.824 86.8809 261.15 86.3066 260.16 86.3125C259.152 86.3066 258.502 86.8809 258.496 87.7305Z" fill="#55596C"/>
<path d="M300.555 84.5312V87.2031H302.113V87.9883H300.555V90.6836H299.629V84.5312H300.555ZM292.375 89.7461C293.207 89.7461 294.18 89.7461 295.199 89.7168V89.0723C293.975 88.9727 293.201 88.4863 293.207 87.6953C293.201 86.8398 294.162 86.3418 295.645 86.3477C297.127 86.3418 298.082 86.8398 298.094 87.6953C298.082 88.4805 297.326 88.9668 296.113 89.0723V89.6816C297.086 89.6348 298.07 89.5586 298.984 89.4297L299.066 90.0508C296.816 90.4199 294.314 90.4375 292.48 90.4375L292.375 89.7461ZM292.633 85.9961V85.3281H295.199V84.4375H296.113V85.3281H298.668V85.9961H292.633ZM293.77 91.8086V91.1523H300.555V93.25H294.707V94.1758H300.953V94.832H293.793V92.6289H299.641V91.8086H293.77ZM294.086 87.6953C294.08 88.1641 294.684 88.4629 295.645 88.4688C296.605 88.4629 297.215 88.1641 297.215 87.6953C297.215 87.2383 296.605 86.9629 295.645 86.957C294.684 86.9629 294.08 87.2383 294.086 87.6953ZM306.379 86.1719C306.367 87.6602 307.428 88.9668 308.957 89.4883L308.441 90.2031C307.293 89.7754 306.391 88.9258 305.939 87.8301C305.494 89.0781 304.545 90.0449 303.285 90.5195L302.781 89.7695C304.387 89.207 305.453 87.8242 305.465 86.207V85.1289H306.379V86.1719ZM304.48 92.9805C304.475 91.7266 305.805 91.0059 307.973 91.0117C310.135 91.0059 311.465 91.7266 311.465 92.9805C311.465 94.2227 310.135 94.9258 307.973 94.9258C305.805 94.9258 304.475 94.2227 304.48 92.9805ZM305.395 92.9805C305.389 93.7363 306.373 94.1934 307.973 94.1875C309.566 94.1934 310.551 93.7363 310.551 92.9805C310.551 92.2012 309.566 91.7383 307.973 91.7383C306.373 91.7383 305.389 92.2012 305.395 92.9805ZM308.184 87.5312V86.7695H310.504V84.5312H311.43V90.707H310.504V87.5312H308.184Z" fill="#55596C"/>
<path d="M46.7266 128.188C46.4805 127.016 45.4785 126.383 44.3594 126.383C42.8242 126.383 41.6348 127.566 41.6289 129.758C41.6348 131.943 42.8242 133.127 44.3594 133.133C45.4785 133.127 46.4746 132.5 46.7266 131.34H47.7812C47.4766 133.074 46.082 134.117 44.3594 134.117C42.1797 134.117 40.6035 132.441 40.6094 129.758C40.6035 127.074 42.1797 125.398 44.3594 125.398C46.0762 125.398 47.4648 126.424 47.7812 128.188H46.7266ZM56.9805 125.211V126.125C56.9805 127.109 56.9805 128.193 56.6816 129.688H58.2344V130.449H53.9336V134.973H53.0078V130.449H48.7422V129.688H55.75C56.0664 128.188 56.0664 127.098 56.0664 126.125V125.973H49.9375V125.211H56.9805ZM67.75 131.246V134.949H66.8242V131.984H60.7422V131.246H67.75ZM59.2773 127.613C59.2715 126.16 60.4258 125.123 61.9844 125.129C62.8867 125.123 63.6543 125.48 64.1348 126.066H66.8242V124.531H67.75V130.672H66.8242V129.172H64.1406C63.6602 129.764 62.8926 130.115 61.9844 130.109C60.4258 130.121 59.2715 129.096 59.2773 127.613ZM60.1562 127.613C60.1562 128.627 60.918 129.336 61.9844 129.336C63.0098 129.336 63.7891 128.627 63.7891 127.613C63.7891 126.635 63.0098 125.914 61.9844 125.914C60.918 125.914 60.1562 126.635 60.1562 127.613ZM64.5566 128.41H66.8242V126.828H64.5508C64.6328 127.074 64.6797 127.332 64.6797 127.613C64.6797 127.895 64.6328 128.164 64.5566 128.41Z" fill="#333333"/>
<path d="M123.148 127.73C123.154 129.5 124.438 131.299 125.973 131.961L125.457 132.688C124.238 132.137 123.189 130.936 122.703 129.494C122.217 131.023 121.162 132.348 119.973 132.945L119.422 132.219C120.916 131.504 122.217 129.535 122.223 127.73V126.371H119.762V125.609H125.633V126.371H123.148V127.73ZM127.086 134.949V124.531H128.012V134.949H127.086ZM133.52 127.73C133.525 129.5 134.809 131.299 136.344 131.961L135.828 132.688C134.609 132.137 133.561 130.936 133.074 129.494C132.588 131.023 131.533 132.348 130.344 132.945L129.793 132.219C131.287 131.504 132.588 129.535 132.594 127.73V126.371H130.133V125.609H136.004V126.371H133.52V127.73ZM137.457 134.949V124.531H138.383V134.949H137.457ZM141.605 125.152V126.887H144.512V125.152H145.414V126.207H147.875V124.531H148.801V130.73H147.875V129.09H145.414V130.133H140.691V125.152H141.605ZM141.605 129.371H144.512V127.613H141.605V129.371ZM141.793 132.031V131.281H148.801V134.949H147.875V132.031H141.793ZM145.414 128.328H147.875V126.969H145.414V128.328Z" fill="#55596C"/>
<path d="M175.797 134L175.785 133.227L178.68 130.18C179.682 129.113 180.162 128.539 180.168 127.754C180.162 126.881 179.436 126.318 178.48 126.312C177.467 126.318 176.834 126.957 176.828 127.906H175.832C175.82 126.406 176.98 125.398 178.516 125.398C180.057 125.398 181.146 126.436 181.152 127.754C181.146 128.703 180.707 129.441 179.207 130.988L177.262 132.992V133.062H181.305V134H175.797ZM185.605 134.117C184.076 134.117 182.916 133.174 182.852 131.867H183.871C183.947 132.623 184.686 133.186 185.605 133.191C186.707 133.186 187.504 132.383 187.504 131.316C187.504 130.215 186.678 129.4 185.535 129.395C184.82 129.383 184.264 129.605 183.953 130.156H182.934L183.531 125.516H188.125V126.453H184.41L184.094 128.938H184.176C184.557 128.645 185.125 128.445 185.723 128.445C187.34 128.445 188.529 129.641 188.535 131.293C188.529 132.934 187.299 134.117 185.605 134.117Z" fill="#55596C"/>
<path d="M216.297 134L216.285 133.227L219.18 130.18C220.182 129.113 220.662 128.539 220.668 127.754C220.662 126.881 219.936 126.318 218.98 126.312C217.967 126.318 217.334 126.957 217.328 127.906H216.332C216.32 126.406 217.48 125.398 219.016 125.398C220.557 125.398 221.646 126.436 221.652 127.754C221.646 128.703 221.207 129.441 219.707 130.988L217.762 132.992V133.062H221.805V134H216.297ZM226.293 134.117C224.822 134.1 223.199 133.227 223.199 130.086C223.199 127.08 224.43 125.398 226.422 125.398C227.916 125.398 228.959 126.318 229.176 127.648H228.133C227.939 126.898 227.365 126.336 226.422 126.336C225.027 126.336 224.189 127.525 224.195 129.57H224.301C224.787 128.861 225.566 128.445 226.48 128.445C227.986 128.445 229.246 129.617 229.246 131.258C229.246 132.857 228.08 134.135 226.293 134.117ZM224.336 131.281C224.342 132.277 225.156 133.186 226.293 133.191C227.389 133.186 228.221 132.324 228.227 131.27C228.221 130.227 227.424 129.377 226.316 129.371C225.203 129.377 224.348 130.279 224.336 131.281ZM231.027 134.07C230.617 134.064 230.266 133.725 230.277 133.309C230.266 132.898 230.617 132.559 231.027 132.559C231.443 132.559 231.783 132.898 231.777 133.309C231.783 133.725 231.443 134.064 231.027 134.07ZM235.82 134.117C233.939 134.117 232.85 132.535 232.855 129.758C232.85 127.004 233.951 125.398 235.82 125.398C237.684 125.398 238.785 127.004 238.785 129.758C238.785 132.535 237.701 134.117 235.82 134.117ZM233.875 129.758C233.881 131.955 234.59 133.18 235.82 133.18C237.045 133.18 237.76 131.955 237.754 129.758C237.76 127.561 237.039 126.318 235.82 126.312C234.602 126.318 233.881 127.561 233.875 129.758ZM240.191 134L240.18 133.227L243.074 130.18C244.076 129.113 244.557 128.539 244.562 127.754C244.557 126.881 243.83 126.318 242.875 126.312C241.861 126.318 241.229 126.957 241.223 127.906H240.227C240.215 126.406 241.375 125.398 242.91 125.398C244.451 125.398 245.541 126.436 245.547 127.754C245.541 128.703 245.102 129.441 243.602 130.988L241.656 132.992V133.062H245.699V134H240.191ZM247.961 134.07C247.551 134.064 247.199 133.725 247.211 133.309C247.199 132.898 247.551 132.559 247.961 132.559C248.377 132.559 248.717 132.898 248.711 133.309C248.717 133.725 248.377 134.064 247.961 134.07ZM250.281 134L250.27 133.227L253.164 130.18C254.166 129.113 254.646 128.539 254.652 127.754C254.646 126.881 253.92 126.318 252.965 126.312C251.951 126.318 251.318 126.957 251.312 127.906H250.316C250.305 126.406 251.465 125.398 253 125.398C254.541 125.398 255.631 126.436 255.637 127.754C255.631 128.703 255.191 129.441 253.691 130.988L251.746 132.992V133.062H255.789V134H250.281ZM260.16 134.117C258.373 134.117 257.143 133.127 257.148 131.75C257.143 130.654 257.904 129.746 258.871 129.594V129.547C258.027 129.354 257.471 128.574 257.477 127.648C257.471 126.354 258.607 125.398 260.16 125.398C261.707 125.398 262.844 126.354 262.855 127.648C262.844 128.574 262.281 129.354 261.449 129.547V129.594C262.41 129.746 263.172 130.654 263.184 131.75C263.172 133.127 261.93 134.117 260.16 134.117ZM258.203 131.691C258.186 132.582 258.941 133.186 260.16 133.191C261.373 133.186 262.129 132.582 262.129 131.691C262.129 130.754 261.303 130.062 260.16 130.062C259.023 130.062 258.186 130.754 258.203 131.691ZM258.496 127.73C258.502 128.586 259.188 129.166 260.16 129.172C261.127 129.166 261.824 128.586 261.824 127.73C261.824 126.881 261.15 126.307 260.16 126.312C259.152 126.307 258.502 126.881 258.496 127.73Z" fill="#55596C"/>
<path d="M295.512 124.531V134.973H294.586V124.531H295.512ZM287.531 132.453V125.422H288.445V128.176H291.551V125.422H292.453V132.453H287.531ZM288.445 131.68H291.551V128.914H288.445V131.68ZM305.426 124.531V127.203H306.984V127.988H305.426V130.684H304.5V124.531H305.426ZM297.246 129.746C298.078 129.746 299.051 129.746 300.07 129.717V129.072C298.846 128.973 298.072 128.486 298.078 127.695C298.072 126.84 299.033 126.342 300.516 126.348C301.998 126.342 302.953 126.84 302.965 127.695C302.953 128.48 302.197 128.967 300.984 129.072V129.682C301.957 129.635 302.941 129.559 303.855 129.43L303.938 130.051C301.688 130.42 299.186 130.438 297.352 130.438L297.246 129.746ZM297.504 125.996V125.328H300.07V124.438H300.984V125.328H303.539V125.996H297.504ZM298.641 131.809V131.152H305.426V133.25H299.578V134.176H305.824V134.832H298.664V132.629H304.512V131.809H298.641ZM298.957 127.695C298.951 128.164 299.555 128.463 300.516 128.469C301.477 128.463 302.086 128.164 302.086 127.695C302.086 127.238 301.477 126.963 300.516 126.957C299.555 126.963 298.951 127.238 298.957 127.695ZM311.25 126.172C311.238 127.66 312.299 128.967 313.828 129.488L313.312 130.203C312.164 129.775 311.262 128.926 310.811 127.83C310.365 129.078 309.416 130.045 308.156 130.52L307.652 129.77C309.258 129.207 310.324 127.824 310.336 126.207V125.129H311.25V126.172ZM309.352 132.98C309.346 131.727 310.676 131.006 312.844 131.012C315.006 131.006 316.336 131.727 316.336 132.98C316.336 134.223 315.006 134.926 312.844 134.926C310.676 134.926 309.346 134.223 309.352 132.98ZM310.266 132.98C310.26 133.736 311.244 134.193 312.844 134.188C314.438 134.193 315.422 133.736 315.422 132.98C315.422 132.201 314.438 131.738 312.844 131.738C311.244 131.738 310.26 132.201 310.266 132.98ZM313.055 127.531V126.77H315.375V124.531H316.301V130.707H315.375V127.531H313.055Z" fill="#55596C"/>
<path d="M44.0742 174H41.4375V165.516H44.1797C46.6582 165.516 48.1172 167.104 48.1172 169.746C48.1172 172.395 46.6582 174 44.0742 174ZM42.4922 173.062H44.0039C46.084 173.062 47.0859 171.803 47.0859 169.746C47.0859 167.695 46.084 166.453 44.1094 166.453H42.4922V173.062ZM57.3867 165.211V166.125C57.3867 167.109 57.3867 168.193 57.0879 169.688H58.6406V170.449H54.3398V174.973H53.4141V170.449H49.1484V169.688H56.1562C56.4727 168.188 56.4727 167.098 56.4727 166.125V165.973H50.3438V165.211H57.3867ZM68.1562 171.246V174.949H67.2305V171.984H61.1484V171.246H68.1562ZM59.6836 167.613C59.6777 166.16 60.832 165.123 62.3906 165.129C63.293 165.123 64.0605 165.48 64.541 166.066H67.2305V164.531H68.1562V170.672H67.2305V169.172H64.5469C64.0664 169.764 63.2988 170.115 62.3906 170.109C60.832 170.121 59.6777 169.096 59.6836 167.613ZM60.5625 167.613C60.5625 168.627 61.3242 169.336 62.3906 169.336C63.416 169.336 64.1953 168.627 64.1953 167.613C64.1953 166.635 63.416 165.914 62.3906 165.914C61.3242 165.914 60.5625 166.635 60.5625 167.613ZM64.9629 168.41H67.2305V166.828H64.957C65.0391 167.074 65.0859 167.332 65.0859 167.613C65.0859 167.895 65.0391 168.164 64.9629 168.41Z" fill="#333333"/>
<path d="M123.148 167.73C123.154 169.5 124.438 171.299 125.973 171.961L125.457 172.688C124.238 172.137 123.189 170.936 122.703 169.494C122.217 171.023 121.162 172.348 119.973 172.945L119.422 172.219C120.916 171.504 122.217 169.535 122.223 167.73V166.371H119.762V165.609H125.633V166.371H123.148V167.73ZM127.086 174.949V164.531H128.012V174.949H127.086ZM133.52 167.73C133.525 169.5 134.809 171.299 136.344 171.961L135.828 172.688C134.609 172.137 133.561 170.936 133.074 169.494C132.588 171.023 131.533 172.348 130.344 172.945L129.793 172.219C131.287 171.504 132.588 169.535 132.594 167.73V166.371H130.133V165.609H136.004V166.371H133.52V167.73ZM137.457 174.949V164.531H138.383V174.949H137.457ZM141.605 165.152V166.887H144.512V165.152H145.414V166.207H147.875V164.531H148.801V170.73H147.875V169.09H145.414V170.133H140.691V165.152H141.605ZM141.605 169.371H144.512V167.613H141.605V169.371ZM141.793 172.031V171.281H148.801V174.949H147.875V172.031H141.793ZM145.414 168.328H147.875V166.969H145.414V168.328Z" fill="#55596C"/>
<path d="M175.797 174L175.785 173.227L178.68 170.18C179.682 169.113 180.162 168.539 180.168 167.754C180.162 166.881 179.436 166.318 178.48 166.312C177.467 166.318 176.834 166.957 176.828 167.906H175.832C175.82 166.406 176.98 165.398 178.516 165.398C180.057 165.398 181.146 166.436 181.152 167.754C181.146 168.703 180.707 169.441 179.207 170.988L177.262 172.992V173.062H181.305V174H175.797ZM185.605 174.117C184.076 174.117 182.916 173.174 182.852 171.867H183.871C183.947 172.623 184.686 173.186 185.605 173.191C186.707 173.186 187.504 172.383 187.504 171.316C187.504 170.215 186.678 169.4 185.535 169.395C184.82 169.383 184.264 169.605 183.953 170.156H182.934L183.531 165.516H188.125V166.453H184.41L184.094 168.938H184.176C184.557 168.645 185.125 168.445 185.723 168.445C187.34 168.445 188.529 169.641 188.535 171.293C188.529 172.934 187.299 174.117 185.605 174.117Z" fill="#55596C"/>
<path d="M216.297 174L216.285 173.227L219.18 170.18C220.182 169.113 220.662 168.539 220.668 167.754C220.662 166.881 219.936 166.318 218.98 166.312C217.967 166.318 217.334 166.957 217.328 167.906H216.332C216.32 166.406 217.48 165.398 219.016 165.398C220.557 165.398 221.646 166.436 221.652 167.754C221.646 168.703 221.207 169.441 219.707 170.988L217.762 172.992V173.062H221.805V174H216.297ZM226.293 174.117C224.822 174.1 223.199 173.227 223.199 170.086C223.199 167.08 224.43 165.398 226.422 165.398C227.916 165.398 228.959 166.318 229.176 167.648H228.133C227.939 166.898 227.365 166.336 226.422 166.336C225.027 166.336 224.189 167.525 224.195 169.57H224.301C224.787 168.861 225.566 168.445 226.48 168.445C227.986 168.445 229.246 169.617 229.246 171.258C229.246 172.857 228.08 174.135 226.293 174.117ZM224.336 171.281C224.342 172.277 225.156 173.186 226.293 173.191C227.389 173.186 228.221 172.324 228.227 171.27C228.221 170.227 227.424 169.377 226.316 169.371C225.203 169.377 224.348 170.279 224.336 171.281ZM231.027 174.07C230.617 174.064 230.266 173.725 230.277 173.309C230.266 172.898 230.617 172.559 231.027 172.559C231.443 172.559 231.783 172.898 231.777 173.309C231.783 173.725 231.443 174.064 231.027 174.07ZM235.82 174.117C233.939 174.117 232.85 172.535 232.855 169.758C232.85 167.004 233.951 165.398 235.82 165.398C237.684 165.398 238.785 167.004 238.785 169.758C238.785 172.535 237.701 174.117 235.82 174.117ZM233.875 169.758C233.881 171.955 234.59 173.18 235.82 173.18C237.045 173.18 237.76 171.955 237.754 169.758C237.76 167.561 237.039 166.318 235.82 166.312C234.602 166.318 233.881 167.561 233.875 169.758ZM240.191 174L240.18 173.227L243.074 170.18C244.076 169.113 244.557 168.539 244.562 167.754C244.557 166.881 243.83 166.318 242.875 166.312C241.861 166.318 241.229 166.957 241.223 167.906H240.227C240.215 166.406 241.375 165.398 242.91 165.398C244.451 165.398 245.541 166.436 245.547 167.754C245.541 168.703 245.102 169.441 243.602 170.988L241.656 172.992V173.062H245.699V174H240.191ZM247.961 174.07C247.551 174.064 247.199 173.725 247.211 173.309C247.199 172.898 247.551 172.559 247.961 172.559C248.377 172.559 248.717 172.898 248.711 173.309C248.717 173.725 248.377 174.064 247.961 174.07ZM250.281 174L250.27 173.227L253.164 170.18C254.166 169.113 254.646 168.539 254.652 167.754C254.646 166.881 253.92 166.318 252.965 166.312C251.951 166.318 251.318 166.957 251.312 167.906H250.316C250.305 166.406 251.465 165.398 253 165.398C254.541 165.398 255.631 166.436 255.637 167.754C255.631 168.703 255.191 169.441 253.691 170.988L251.746 172.992V173.062H255.789V174H250.281ZM260.16 174.117C258.373 174.117 257.143 173.127 257.148 171.75C257.143 170.654 257.904 169.746 258.871 169.594V169.547C258.027 169.354 257.471 168.574 257.477 167.648C257.471 166.354 258.607 165.398 260.16 165.398C261.707 165.398 262.844 166.354 262.855 167.648C262.844 168.574 262.281 169.354 261.449 169.547V169.594C262.41 169.746 263.172 170.654 263.184 171.75C263.172 173.127 261.93 174.117 260.16 174.117ZM258.203 171.691C258.186 172.582 258.941 173.186 260.16 173.191C261.373 173.186 262.129 172.582 262.129 171.691C262.129 170.754 261.303 170.062 260.16 170.062C259.023 170.062 258.186 170.754 258.203 171.691ZM258.496 167.73C258.502 168.586 259.188 169.166 260.16 169.172C261.127 169.166 261.824 168.586 261.824 167.73C261.824 166.881 261.15 166.307 260.16 166.312C259.152 166.307 258.502 166.881 258.496 167.73Z" fill="#55596C"/>
<path d="M295.512 164.531V174.973H294.586V164.531H295.512ZM287.531 172.453V165.422H288.445V168.176H291.551V165.422H292.453V172.453H287.531ZM288.445 171.68H291.551V168.914H288.445V171.68ZM305.426 164.531V167.203H306.984V167.988H305.426V170.684H304.5V164.531H305.426ZM297.246 169.746C298.078 169.746 299.051 169.746 300.07 169.717V169.072C298.846 168.973 298.072 168.486 298.078 167.695C298.072 166.84 299.033 166.342 300.516 166.348C301.998 166.342 302.953 166.84 302.965 167.695C302.953 168.48 302.197 168.967 300.984 169.072V169.682C301.957 169.635 302.941 169.559 303.855 169.43L303.938 170.051C301.688 170.42 299.186 170.438 297.352 170.438L297.246 169.746ZM297.504 165.996V165.328H300.07V164.438H300.984V165.328H303.539V165.996H297.504ZM298.641 171.809V171.152H305.426V173.25H299.578V174.176H305.824V174.832H298.664V172.629H304.512V171.809H298.641ZM298.957 167.695C298.951 168.164 299.555 168.463 300.516 168.469C301.477 168.463 302.086 168.164 302.086 167.695C302.086 167.238 301.477 166.963 300.516 166.957C299.555 166.963 298.951 167.238 298.957 167.695ZM311.25 166.172C311.238 167.66 312.299 168.967 313.828 169.488L313.312 170.203C312.164 169.775 311.262 168.926 310.811 167.83C310.365 169.078 309.416 170.045 308.156 170.52L307.652 169.77C309.258 169.207 310.324 167.824 310.336 166.207V165.129H311.25V166.172ZM309.352 172.98C309.346 171.727 310.676 171.006 312.844 171.012C315.006 171.006 316.336 171.727 316.336 172.98C316.336 174.223 315.006 174.926 312.844 174.926C310.676 174.926 309.346 174.223 309.352 172.98ZM310.266 172.98C310.26 173.736 311.244 174.193 312.844 174.188C314.438 174.193 315.422 173.736 315.422 172.98C315.422 172.201 314.438 171.738 312.844 171.738C311.244 171.738 310.26 172.201 310.266 172.98ZM313.055 167.531V166.77H315.375V164.531H316.301V170.707H315.375V167.531H313.055Z" fill="#55596C"/>
<path d="M41.9375 214V205.516H47.082V206.453H42.9922V209.289H46.8125V210.215H42.9922V213.062H47.1406V214H41.9375ZM56.4688 205.211V206.125C56.4688 207.109 56.4688 208.193 56.1699 209.688H57.7227V210.449H53.4219V214.973H52.4961V210.449H48.2305V209.688H55.2383C55.5547 208.188 55.5547 207.098 55.5547 206.125V205.973H49.4258V205.211H56.4688ZM67.2383 211.246V214.949H66.3125V211.984H60.2305V211.246H67.2383ZM58.7656 207.613C58.7598 206.16 59.9141 205.123 61.4727 205.129C62.375 205.123 63.1426 205.48 63.623 206.066H66.3125V204.531H67.2383V210.672H66.3125V209.172H63.6289C63.1484 209.764 62.3809 210.115 61.4727 210.109C59.9141 210.121 58.7598 209.096 58.7656 207.613ZM59.6445 207.613C59.6445 208.627 60.4062 209.336 61.4727 209.336C62.498 209.336 63.2773 208.627 63.2773 207.613C63.2773 206.635 62.498 205.914 61.4727 205.914C60.4062 205.914 59.6445 206.635 59.6445 207.613ZM64.0449 208.41H66.3125V206.828H64.0391C64.1211 207.074 64.168 207.332 64.168 207.613C64.168 207.895 64.1211 208.164 64.0449 208.41Z" fill="#333333"/>
<path d="M123.148 207.73C123.154 209.5 124.438 211.299 125.973 211.961L125.457 212.688C124.238 212.137 123.189 210.936 122.703 209.494C122.217 211.023 121.162 212.348 119.973 212.945L119.422 212.219C120.916 211.504 122.217 209.535 122.223 207.73V206.371H119.762V205.609H125.633V206.371H123.148V207.73ZM127.086 214.949V204.531H128.012V214.949H127.086ZM133.52 207.73C133.525 209.5 134.809 211.299 136.344 211.961L135.828 212.688C134.609 212.137 133.561 210.936 133.074 209.494C132.588 211.023 131.533 212.348 130.344 212.945L129.793 212.219C131.287 211.504 132.588 209.535 132.594 207.73V206.371H130.133V205.609H136.004V206.371H133.52V207.73ZM137.457 214.949V204.531H138.383V214.949H137.457ZM141.605 205.152V206.887H144.512V205.152H145.414V206.207H147.875V204.531H148.801V210.73H147.875V209.09H145.414V210.133H140.691V205.152H141.605ZM141.605 209.371H144.512V207.613H141.605V209.371ZM141.793 212.031V211.281H148.801V214.949H147.875V212.031H141.793ZM145.414 208.328H147.875V206.969H145.414V208.328Z" fill="#55596C"/>
<path d="M175.797 214L175.785 213.227L178.68 210.18C179.682 209.113 180.162 208.539 180.168 207.754C180.162 206.881 179.436 206.318 178.48 206.312C177.467 206.318 176.834 206.957 176.828 207.906H175.832C175.82 206.406 176.98 205.398 178.516 205.398C180.057 205.398 181.146 206.436 181.152 207.754C181.146 208.703 180.707 209.441 179.207 210.988L177.262 212.992V213.062H181.305V214H175.797ZM185.605 214.117C184.076 214.117 182.916 213.174 182.852 211.867H183.871C183.947 212.623 184.686 213.186 185.605 213.191C186.707 213.186 187.504 212.383 187.504 211.316C187.504 210.215 186.678 209.4 185.535 209.395C184.82 209.383 184.264 209.605 183.953 210.156H182.934L183.531 205.516H188.125V206.453H184.41L184.094 208.938H184.176C184.557 208.645 185.125 208.445 185.723 208.445C187.34 208.445 188.529 209.641 188.535 211.293C188.529 212.934 187.299 214.117 185.605 214.117Z" fill="#55596C"/>
<path d="M216.297 214L216.285 213.227L219.18 210.18C220.182 209.113 220.662 208.539 220.668 207.754C220.662 206.881 219.936 206.318 218.98 206.312C217.967 206.318 217.334 206.957 217.328 207.906H216.332C216.32 206.406 217.48 205.398 219.016 205.398C220.557 205.398 221.646 206.436 221.652 207.754C221.646 208.703 221.207 209.441 219.707 210.988L217.762 212.992V213.062H221.805V214H216.297ZM226.293 214.117C224.822 214.1 223.199 213.227 223.199 210.086C223.199 207.08 224.43 205.398 226.422 205.398C227.916 205.398 228.959 206.318 229.176 207.648H228.133C227.939 206.898 227.365 206.336 226.422 206.336C225.027 206.336 224.189 207.525 224.195 209.57H224.301C224.787 208.861 225.566 208.445 226.48 208.445C227.986 208.445 229.246 209.617 229.246 211.258C229.246 212.857 228.08 214.135 226.293 214.117ZM224.336 211.281C224.342 212.277 225.156 213.186 226.293 213.191C227.389 213.186 228.221 212.324 228.227 211.27C228.221 210.227 227.424 209.377 226.316 209.371C225.203 209.377 224.348 210.279 224.336 211.281ZM231.027 214.07C230.617 214.064 230.266 213.725 230.277 213.309C230.266 212.898 230.617 212.559 231.027 212.559C231.443 212.559 231.783 212.898 231.777 213.309C231.783 213.725 231.443 214.064 231.027 214.07ZM235.82 214.117C233.939 214.117 232.85 212.535 232.855 209.758C232.85 207.004 233.951 205.398 235.82 205.398C237.684 205.398 238.785 207.004 238.785 209.758C238.785 212.535 237.701 214.117 235.82 214.117ZM233.875 209.758C233.881 211.955 234.59 213.18 235.82 213.18C237.045 213.18 237.76 211.955 237.754 209.758C237.76 207.561 237.039 206.318 235.82 206.312C234.602 206.318 233.881 207.561 233.875 209.758ZM240.191 214L240.18 213.227L243.074 210.18C244.076 209.113 244.557 208.539 244.562 207.754C244.557 206.881 243.83 206.318 242.875 206.312C241.861 206.318 241.229 206.957 241.223 207.906H240.227C240.215 206.406 241.375 205.398 242.91 205.398C244.451 205.398 245.541 206.436 245.547 207.754C245.541 208.703 245.102 209.441 243.602 210.988L241.656 212.992V213.062H245.699V214H240.191ZM247.961 214.07C247.551 214.064 247.199 213.725 247.211 213.309C247.199 212.898 247.551 212.559 247.961 212.559C248.377 212.559 248.717 212.898 248.711 213.309C248.717 213.725 248.377 214.064 247.961 214.07ZM250.281 214L250.27 213.227L253.164 210.18C254.166 209.113 254.646 208.539 254.652 207.754C254.646 206.881 253.92 206.318 252.965 206.312C251.951 206.318 251.318 206.957 251.312 207.906H250.316C250.305 206.406 251.465 205.398 253 205.398C254.541 205.398 255.631 206.436 255.637 207.754C255.631 208.703 255.191 209.441 253.691 210.988L251.746 212.992V213.062H255.789V214H250.281ZM260.16 214.117C258.373 214.117 257.143 213.127 257.148 211.75C257.143 210.654 257.904 209.746 258.871 209.594V209.547C258.027 209.354 257.471 208.574 257.477 207.648C257.471 206.354 258.607 205.398 260.16 205.398C261.707 205.398 262.844 206.354 262.855 207.648C262.844 208.574 262.281 209.354 261.449 209.547V209.594C262.41 209.746 263.172 210.654 263.184 211.75C263.172 213.127 261.93 214.117 260.16 214.117ZM258.203 211.691C258.186 212.582 258.941 213.186 260.16 213.191C261.373 213.186 262.129 212.582 262.129 211.691C262.129 210.754 261.303 210.062 260.16 210.062C259.023 210.062 258.186 210.754 258.203 211.691ZM258.496 207.73C258.502 208.586 259.188 209.166 260.16 209.172C261.127 209.166 261.824 208.586 261.824 207.73C261.824 206.881 261.15 206.307 260.16 206.312C259.152 206.307 258.502 206.881 258.496 207.73Z" fill="#55596C"/>
<path d="M295.512 204.531V214.973H294.586V204.531H295.512ZM287.531 212.453V205.422H288.445V208.176H291.551V205.422H292.453V212.453H287.531ZM288.445 211.68H291.551V208.914H288.445V211.68ZM305.426 204.531V207.203H306.984V207.988H305.426V210.684H304.5V204.531H305.426ZM297.246 209.746C298.078 209.746 299.051 209.746 300.07 209.717V209.072C298.846 208.973 298.072 208.486 298.078 207.695C298.072 206.84 299.033 206.342 300.516 206.348C301.998 206.342 302.953 206.84 302.965 207.695C302.953 208.48 302.197 208.967 300.984 209.072V209.682C301.957 209.635 302.941 209.559 303.855 209.43L303.938 210.051C301.688 210.42 299.186 210.438 297.352 210.438L297.246 209.746ZM297.504 205.996V205.328H300.07V204.438H300.984V205.328H303.539V205.996H297.504ZM298.641 211.809V211.152H305.426V213.25H299.578V214.176H305.824V214.832H298.664V212.629H304.512V211.809H298.641ZM298.957 207.695C298.951 208.164 299.555 208.463 300.516 208.469C301.477 208.463 302.086 208.164 302.086 207.695C302.086 207.238 301.477 206.963 300.516 206.957C299.555 206.963 298.951 207.238 298.957 207.695ZM311.25 206.172C311.238 207.66 312.299 208.967 313.828 209.488L313.312 210.203C312.164 209.775 311.262 208.926 310.811 207.83C310.365 209.078 309.416 210.045 308.156 210.52L307.652 209.77C309.258 209.207 310.324 207.824 310.336 206.207V205.129H311.25V206.172ZM309.352 212.98C309.346 211.727 310.676 211.006 312.844 211.012C315.006 211.006 316.336 211.727 316.336 212.98C316.336 214.223 315.006 214.926 312.844 214.926C310.676 214.926 309.346 214.223 309.352 212.98ZM310.266 212.98C310.26 213.736 311.244 214.193 312.844 214.188C314.438 214.193 315.422 213.736 315.422 212.98C315.422 212.201 314.438 211.738 312.844 211.738C311.244 211.738 310.26 212.201 310.266 212.98ZM313.055 207.531V206.77H315.375V204.531H316.301V210.707H315.375V207.531H313.055Z" fill="#55596C"/>
</svg>
