<svg width="16" height="16" viewBox="0 0 16 16" fill="none" xmlns="http://www.w3.org/2000/svg">
<g clip-path="url(#clip0_3268_8439)">
<path fill-rule="evenodd" clip-rule="evenodd" d="M13.9443 0.0621188C15.1592 -0.279037 16.279 0.840872 15.9379 2.05565L13.1394 12.0201C12.987 12.5629 12.5629 12.987 12.0201 13.1395L2.05565 15.9379C0.840875 16.2791 -0.279041 15.1592 0.0621204 13.9443L2.86057 3.97988C3.013 3.43714 3.43714 3.013 3.97989 2.86058L13.9443 0.0621188ZM10.19 6.00987C9.09086 4.91075 7.30883 4.91075 6.2097 6.00987C5.11058 7.10901 5.11058 8.89103 6.2097 9.99016C7.30883 11.0893 9.09086 11.0893 10.19 9.99016C11.2891 8.89103 11.2891 7.10901 10.19 6.00987Z" fill="#9499B1"/>
</g>
<defs>
<clipPath id="clip0_3268_8439">
<rect width="16" height="16" fill="white"/>
</clipPath>
</defs>
</svg>
