<svg width="16" height="16" viewBox="0 0 16 16" fill="none" xmlns="http://www.w3.org/2000/svg">
<g clip-path="url(#clip0_3268_8429)">
<path fill-rule="evenodd" clip-rule="evenodd" d="M11.1307 1.58513C11.2765 1.45005 11.4679 1.375 11.6667 1.375C11.8654 1.375 12.0569 1.45005 12.2027 1.58513C12.3893 1.75713 12.8227 2.1798 13.214 2.73447C13.5933 3.27313 14 4.0278 14 4.8518C14 6.1678 13.008 7.33314 11.6667 7.33314C10.326 7.33314 9.33333 6.1678 9.33333 4.8518C9.33333 4.02847 9.74 3.27313 10.12 2.73447C10.4171 2.31816 10.7558 1.93308 11.1307 1.58513ZM3.13867 3.57513C3.28333 3.44415 3.47152 3.37162 3.66667 3.37162C3.86182 3.37162 4.05 3.44415 4.19467 3.57513C4.332 3.69913 4.6 3.95713 4.83867 4.29047C5.06667 4.60847 5.33333 5.08447 5.33333 5.62914C5.33333 6.54714 4.61 7.33314 3.66667 7.33314C2.72333 7.33314 2 6.54647 2 5.62914C2 5.08447 2.26667 4.60847 2.49467 4.29047C2.73333 3.95713 3.00133 3.69913 3.13867 3.57513ZM6.80733 6.24047C6.95202 6.11115 7.13928 6.03967 7.33333 6.03967C7.52739 6.03967 7.71464 6.11115 7.85933 6.24047C8.102 6.45647 8.786 7.09247 9.414 7.94713C10.0293 8.78313 10.6667 9.92913 10.6667 11.1478C10.6667 13.0478 9.216 14.6665 7.33333 14.6665C5.45067 14.6665 4 13.0485 4 11.1478C4 9.92913 4.63733 8.78313 5.25267 7.94713C5.71287 7.32798 6.23367 6.75627 6.80733 6.24047Z" fill="#9499B1"/>
</g>
<defs>
<clipPath id="clip0_3268_8429">
<rect width="16" height="16" fill="white"/>
</clipPath>
</defs>
</svg>
