<svg width="16" height="16" viewBox="0 0 16 16" fill="none" xmlns="http://www.w3.org/2000/svg">
<path fill-rule="evenodd" clip-rule="evenodd" d="M7 3C6.87023 2.99994 6.74326 3.03775 6.63466 3.10881C6.52607 3.17986 6.44058 3.28106 6.38867 3.4C6.33614 3.52038 6.26041 3.62923 6.16582 3.72035C6.07122 3.81146 5.9596 3.88305 5.83734 3.93102C5.71507 3.979 5.58456 4.00243 5.45324 3.99996C5.32192 3.9975 5.19238 3.9692 5.072 3.91667C4.95162 3.86414 4.84277 3.78841 4.75166 3.69382C4.66054 3.59922 4.58895 3.4876 4.54098 3.36534C4.493 3.24308 4.46957 3.11256 4.47204 2.98124C4.4745 2.84993 4.5028 2.72038 4.55533 2.6C4.74763 2.15939 5.05547 1.77896 5.44626 1.49896C5.83705 1.21897 6.29627 1.04982 6.77532 1.00943C7.25436 0.969038 7.73542 1.0589 8.16758 1.2695C8.59974 1.48011 8.96693 1.80362 9.2303 2.20581C9.49366 2.608 9.6434 3.07391 9.66367 3.55423C9.68394 4.03455 9.57399 4.51141 9.34545 4.93436C9.11691 5.35731 8.77828 5.71061 8.3654 5.95688C7.95252 6.20315 7.48075 6.33322 7 6.33333H3.33333C3.06812 6.33333 2.81376 6.22798 2.62623 6.04044C2.43869 5.8529 2.33333 5.59855 2.33333 5.33333C2.33333 5.06812 2.43869 4.81376 2.62623 4.62623C2.81376 4.43869 3.06812 4.33333 3.33333 4.33333H7C7.17681 4.33333 7.34638 4.2631 7.4714 4.13807C7.59643 4.01305 7.66667 3.84348 7.66667 3.66667C7.66667 3.48986 7.59643 3.32029 7.4714 3.19526C7.34638 3.07024 7.17681 3 7 3ZM12.3333 5.66667C12.2036 5.6666 12.0766 5.70442 11.968 5.77547C11.8594 5.84653 11.7739 5.94773 11.722 6.06667C11.6159 6.30978 11.4176 6.5008 11.1707 6.59769C11.0484 6.64567 10.9179 6.66909 10.7866 6.66663C10.6553 6.66417 10.5257 6.63586 10.4053 6.58333C10.1622 6.47725 9.9712 6.27893 9.87431 6.03201C9.82633 5.90974 9.80291 5.77923 9.80537 5.64791C9.80783 5.51659 9.83614 5.38705 9.88867 5.26667C10.081 4.82606 10.3888 4.44562 10.7796 4.16563C11.1704 3.88563 11.6296 3.71649 12.1087 3.6761C12.5877 3.6357 13.0688 3.72556 13.5009 3.93617C13.9331 4.14677 14.3003 4.47029 14.5636 4.87248C14.827 5.27467 14.9767 5.74058 14.997 6.22089C15.0173 6.70121 14.9073 7.17808 14.6788 7.60103C14.4502 8.02398 14.1116 8.37728 13.6987 8.62355C13.2859 8.86982 12.8141 8.99989 12.3333 9H2C1.73478 9 1.48043 8.89464 1.29289 8.70711C1.10536 8.51957 1 8.26522 1 8C1 7.73478 1.10536 7.48043 1.29289 7.29289C1.48043 7.10536 1.73478 7 2 7H12.3333C12.5101 7 12.6797 6.92976 12.8047 6.80474C12.9298 6.67971 13 6.51015 13 6.33333C13 6.15652 12.9298 5.98695 12.8047 5.86193C12.6797 5.73691 12.5101 5.66667 12.3333 5.66667ZM9.05533 12.6C9.1034 12.7101 9.18036 12.8053 9.27805 12.8752C9.37574 12.9452 9.49053 12.9875 9.61029 12.9976C9.73004 13.0077 9.8503 12.9853 9.95834 12.9327C10.0664 12.88 10.1582 12.7992 10.224 12.6986C10.2899 12.5981 10.3273 12.4816 10.3324 12.3615C10.3375 12.2415 10.31 12.1223 10.2529 12.0165C10.1958 11.9108 10.1112 11.8224 10.008 11.7609C9.90478 11.6993 9.78685 11.6667 9.66667 11.6667H5.33333C5.06812 11.6667 4.81376 11.5613 4.62623 11.3738C4.43869 11.1862 4.33333 10.9319 4.33333 10.6667C4.33333 10.4015 4.43869 10.1471 4.62623 9.95956C4.81376 9.77202 5.06812 9.66667 5.33333 9.66667H9.66667C10.1474 9.66666 10.6193 9.79663 11.0322 10.0428C11.4452 10.289 11.7839 10.6423 12.0125 11.0652C12.2412 11.4881 12.3512 11.965 12.331 12.4454C12.3108 12.9257 12.1611 13.3917 11.8978 13.7939C11.6345 14.1962 11.2673 14.5197 10.8351 14.7304C10.403 14.941 9.92189 15.031 9.44282 14.9906C8.96374 14.9502 8.50449 14.7811 8.11366 14.5011C7.72284 14.2211 7.41498 13.8406 7.22267 13.4C7.1673 13.2792 7.13656 13.1486 7.13223 13.0158C7.1279 12.8831 7.15008 12.7507 7.19746 12.6266C7.24484 12.5025 7.31649 12.3891 7.4082 12.2929C7.49992 12.1968 7.60987 12.1199 7.73163 12.0668C7.85339 12.0136 7.98453 11.9853 8.11737 11.9834C8.25022 11.9815 8.38211 12.0061 8.50534 12.0557C8.62858 12.1053 8.74069 12.179 8.83512 12.2725C8.92955 12.366 9.00441 12.4773 9.05533 12.6Z" fill="#9499B1"/>
</svg>
