<svg width="20" height="20" viewBox="0 0 20 20" fill="none" xmlns="http://www.w3.org/2000/svg">
<path d="M12.8026 1.94973V4.25386C12.8026 4.71888 12.3732 5.0959 11.8436 5.0959C11.3139 5.0959 10.8846 4.71888 10.8846 4.25386V1.03496V1.02869C10.8302 0.452608 10.2805 0 9.61037 0C8.90417 0 8.33161 0.502702 8.33161 1.12273V1.56677C5.9609 2.18779 4.21143 4.09456 4.03913 6.33047H3.27876C2.57256 6.33047 2 6.83306 2 7.45309C2 8.07323 2.57244 8.57582 3.27876 8.57582H16.7214C17.4276 8.57582 18 8.07323 18 7.45309C18 6.83306 17.4276 6.33047 16.7214 6.33047H15.9622C15.8576 4.40667 14.6165 2.78145 12.8026 1.94973Z" fill="#F37021"/>
<path d="M17.8212 20C16.7214 17.2103 13.6661 15.1717 10.1222 15.1717C6.57826 15.1717 3.40088 17.2103 2.30105 20H17.8212Z" fill="#F37021"/>
<path d="M9.99988 14.048C7.07425 14.048 4.64648 12.2521 3.92439 9.88784H6.63681C7.24829 11.0199 8.54119 11.8025 9.99988 11.8025C11.5468 11.8025 12.8358 11.0307 13.4104 9.88784H16.1025C15.4255 12.3002 12.9801 14.048 9.99988 14.048Z" fill="#F37021"/>
</svg>
