<svg width="16" height="20" viewBox="0 0 16 20" fill="none" xmlns="http://www.w3.org/2000/svg">
<path d="M10.8026 1.94973V4.25386C10.8026 4.71888 10.3732 5.0959 9.84356 5.0959C9.31392 5.0959 8.88462 4.71888 8.88462 4.25386V1.03496V1.02869C8.83019 0.452608 8.28053 0 7.61037 0C6.90417 0 6.33161 0.502702 6.33161 1.12273V1.56677C3.9609 2.18779 2.21143 4.09456 2.03913 6.33047H1.27876C0.572564 6.33047 0 6.83306 0 7.45309C0 8.07323 0.572438 8.57582 1.27876 8.57582H14.7214C15.4276 8.57582 16 8.07323 16 7.45309C16 6.83306 15.4276 6.33047 14.7214 6.33047H13.9622C13.8576 4.40667 12.6165 2.78145 10.8026 1.94973Z" fill="white"/>
<path d="M15.8212 20C14.7214 17.2103 11.6661 15.1717 8.12225 15.1717C4.57826 15.1717 1.40088 17.2103 0.301046 20H15.8212Z" fill="white"/>
<path d="M7.99988 14.048C5.07425 14.048 2.64648 12.2521 1.92439 9.88784H4.63681C5.24829 11.0199 6.54119 11.8025 7.99988 11.8025C9.54677 11.8025 10.8358 11.0307 11.4104 9.88784H14.1025C13.4255 12.3002 10.9801 14.048 7.99988 14.048Z" fill="white"/>
</svg>
