<svg width="21" height="21" viewBox="0 0 21 21" fill="none" xmlns="http://www.w3.org/2000/svg">
<path d="M9 3C9.2813 3 9.5598 3.01274 9.835 3.03809L9.6514 5.03027C9.4371 5.01054 9.2199 5 9 5C5.13401 5 2 8.13401 2 12C2 15.866 5.13401 19 9 19C12.866 19 16 15.866 16 12C16 11.7517 15.987 11.5067 15.9619 11.2656L16.957 11.1621L17.9512 11.0586C17.9834 11.3683 18 11.6824 18 12C18 16.9706 13.9706 21 9 21C4.02944 21 0 16.9706 0 12C0 7.02944 4.02944 3 9 3ZM9 8C9.5521 8 9.9833 8.45976 10.1641 8.9814C10.4642 9.8484 11.1516 10.5358 12.0186 10.8359C12.5402 11.0167 13 11.4479 13 12C13 12.5521 12.5402 12.9833 12.0186 13.1641C11.1516 13.4642 10.4642 14.1516 10.1641 15.0186C9.9833 15.5402 9.5521 16 9 16C8.44789 16 8.01673 15.5402 7.83594 15.0186C7.53577 14.1516 6.84844 13.4642 5.98145 13.1641C5.45976 12.9833 5 12.5521 5 12C5 11.4479 5.45976 11.0167 5.98145 10.8359C6.84844 10.5358 7.53577 9.8484 7.83594 8.9814C8.01673 8.45976 8.44789 8 9 8ZM16.5 0C17.0049 0 17.4268 0.32644 17.5801 0.77246L17.6074 0.86328L17.6738 1.0918C18.0443 2.221 18.9755 3.09826 20.1367 3.39258C20.6284 3.51712 21 3.96151 21 4.5C21 5.03848 20.6283 5.4819 20.1367 5.60645C18.8981 5.92031 17.9203 6.89806 17.6064 8.13672C17.4819 8.6284 17.0385 9 16.5 9C15.9615 9 15.5181 8.6284 15.3936 8.13672C15.0797 6.89806 14.1019 5.92031 12.8633 5.60645C12.4023 5.48967 12.0464 5.09263 12.0039 4.59961L12 4.5L12.0039 4.40039C12.0464 3.90734 12.4023 3.50936 12.8633 3.39258C14.1017 3.07868 15.0787 2.10173 15.3926 0.86328C15.5171 0.37165 15.9615 0 16.5 0Z" fill="white"/>
</svg>
