<svg width="35" height="35" viewBox="0 0 35 35" fill="none" xmlns="http://www.w3.org/2000/svg">
<path d="M18.9163 15.6748C18.6132 15.6748 18.3225 15.7933 18.1082 16.0043C17.8938 16.2153 17.7734 16.5014 17.7734 16.7998V32.5498C17.7734 32.8482 17.8938 33.1343 18.1082 33.3453C18.3225 33.5563 18.6132 33.6748 18.9163 33.6748H32.6306C32.9337 33.6748 33.2244 33.5563 33.4387 33.3453C33.653 33.1343 33.7734 32.8482 33.7734 32.5498V16.7998C33.7734 16.5014 33.653 16.2153 33.4387 16.0043C33.2244 15.7933 32.9337 15.6748 32.6306 15.6748H18.9163Z" fill="#2859C5"/>
<path d="M12.057 1.99045C11.8455 1.78783 11.5645 1.6748 11.2723 1.6748C10.9801 1.6748 10.6991 1.78783 10.4876 1.99045L2.12601 9.99039C2.01456 10.0971 1.92585 10.2255 1.86525 10.3678C1.80464 10.51 1.77341 10.6631 1.77344 10.8178V32.532C1.77344 32.8351 1.89326 33.1257 2.10655 33.3401C2.31984 33.5544 2.60912 33.6748 2.91075 33.6748H19.6361C19.9378 33.6748 20.227 33.5544 20.4403 33.3401C20.6536 33.1257 20.7734 32.8351 20.7734 32.532V10.8178C20.7732 10.6629 20.7416 10.5097 20.6806 10.3675C20.6196 10.2252 20.5305 10.097 20.4186 9.99039L12.057 1.99045Z" fill="url(#paint0_linear_4125_9370)"/>
<path fill-rule="evenodd" clip-rule="evenodd" d="M13.7734 33.6748V29.0081C13.7734 28.3893 13.5627 27.7958 13.1877 27.3582C12.8126 26.9206 12.3039 26.6748 11.7734 26.6748C11.243 26.6748 10.7343 26.9206 10.3592 27.3582C9.98415 27.7958 9.77344 28.3893 9.77344 29.0081V33.6748H13.7734Z" fill="#2859C5"/>
<path fill-rule="evenodd" clip-rule="evenodd" d="M8.17723 12.6748C7.80492 12.6748 7.44786 12.8113 7.1846 13.0544C6.92134 13.2974 6.77344 13.6271 6.77344 13.9708C6.77344 14.3145 6.92134 14.6442 7.1846 14.8872C7.44786 15.1303 7.80492 15.2668 8.17723 15.2668H14.3696C14.742 15.2668 15.099 15.1303 15.3623 14.8872C15.6255 14.6442 15.7734 14.3145 15.7734 13.9708C15.7734 13.6271 15.6255 13.2974 15.3623 13.0544C15.099 12.8113 14.742 12.6748 14.3696 12.6748H8.17723ZM8.17723 18.0828C7.80492 18.0828 7.44786 18.2193 7.1846 18.4624C6.92134 18.7054 6.77344 19.0351 6.77344 19.3788C6.77344 19.7225 6.92134 20.0522 7.1846 20.2952C7.44786 20.5383 7.80492 20.6748 8.17723 20.6748H14.3696C14.742 20.6748 15.099 20.5383 15.3623 20.2952C15.6255 20.0522 15.7734 19.7225 15.7734 19.3788C15.7734 19.0351 15.6255 18.7054 15.3623 18.4624C15.099 18.2193 14.742 18.0828 14.3696 18.0828H8.17723Z" fill="#2859C5"/>
<defs>
<linearGradient id="paint0_linear_4125_9370" x1="11.2734" y1="1.6748" x2="11.2734" y2="33.6748" gradientUnits="userSpaceOnUse">
<stop stop-color="#7CB4F9"/>
<stop offset="1" stop-color="#6DA2E4"/>
</linearGradient>
</defs>
</svg>
