<svg width="1088" height="1024" viewBox="0 0 1088 1024" fill="none" xmlns="http://www.w3.org/2000/svg">
<g opacity="0.5" filter="url(#filter0_i_4125_9290)">
<path d="M153.517 156.365L141.661 176.86C138.387 182.521 132.87 186.533 126.475 187.902C110.635 191.295 103.092 209.495 111.889 223.099L112.409 223.903C114.899 227.754 116.223 232.242 116.223 236.828V238.502C116.223 246.973 119.868 255.035 126.228 260.631L182.756 310.373C188.086 315.063 187.652 323.496 181.87 327.614C177.886 330.452 176.25 335.576 177.853 340.197L189.451 373.631C190.524 376.723 191.214 379.936 191.503 383.197L193.189 402.148C193.189 407.017 188.915 410.781 184.085 410.166L135.081 403.922C126.07 402.774 116.937 404.727 109.184 409.46L81.0419 426.639C63.0264 437.637 56.6564 460.74 66.4902 479.417L73.91 493.508C75.3389 496.222 77.0751 498.762 79.0844 501.079L120.868 549.258C126.892 556.205 130.339 565.015 130.629 574.206L132.086 620.47C132.314 627.706 134.737 634.701 139.032 640.529L156.93 664.808C164.354 674.879 158.644 689.246 146.332 691.473C138.287 692.928 132.436 699.932 132.436 708.107V709.475C132.436 715.83 135.691 721.743 141.06 725.142L142.03 725.756C155.623 734.361 154.569 754.523 140.154 761.665L135.494 763.974C127.418 767.975 123.807 777.537 127.223 785.878C130.27 793.318 127.749 801.877 121.155 806.478L113.32 811.944C105.516 817.388 100.866 826.303 100.866 835.818V845.672C100.866 850.952 99.8203 856.18 97.7899 861.054L82.8596 896.894C81.2027 900.872 80.1992 905.091 79.8882 909.389L76.9571 949.887C76.3731 957.957 73.3556 965.66 68.3031 971.979L6.60266 1049.15C2.32845 1054.49 0 1061.14 0 1067.98C0 1078.51 5.49326 1088.28 14.4916 1093.75L23.6413 1099.31C29.9032 1103.12 37.0904 1105.13 44.4184 1105.13H64.6891C72.1227 1105.13 79.4092 1107.2 85.7312 1111.11L137.808 1143.32C149.371 1150.48 163.989 1150.45 175.532 1143.27C187.407 1135.88 202.502 1136.09 214.17 1143.8L217.624 1146.09C226.08 1151.68 236.719 1152.83 246.178 1149.19L259.105 1144.2C267.423 1141 271.77 1131.84 268.995 1123.36C266.604 1116.07 269.483 1108.08 275.979 1103.98L303.477 1086.65C306.829 1084.54 310.71 1083.42 314.672 1083.42H320.447C328.853 1083.42 335.668 1090.23 335.668 1098.64C335.668 1103.87 338.353 1108.73 342.779 1111.52L345.486 1113.22C348.839 1115.34 352.721 1116.46 356.684 1116.46H371.005C388.569 1116.46 401.844 1100.55 398.698 1083.27C396.861 1073.17 400.663 1062.87 408.623 1056.4L427.535 1041C434.669 1035.19 443.587 1032.02 452.786 1032.02H489.21C492.907 1032.02 496.481 1030.7 499.283 1028.29L513.661 1015.91C518.031 1012.15 524.798 1015.26 524.798 1021.02C524.798 1037.46 537.213 1051.25 553.566 1052.98L571.776 1054.89C586.151 1056.4 598.672 1045.13 598.672 1030.68C598.672 1017.23 609.573 1006.33 623.02 1006.33H632.063C636.808 1006.33 641.498 1007.34 645.821 1009.29L665.728 1018.3C674.815 1022.4 685.109 1022.97 694.592 1019.88L736.228 1006.33L818.595 973.667C822.294 972.2 826.191 971.293 830.158 970.977L920.125 963.798C932.176 962.836 943.146 956.475 949.967 946.494L1007.85 861.793C1009.04 860.052 1010.09 858.219 1011 856.313L1052.94 767.544C1054.14 765.01 1055.07 762.358 1055.71 759.631L1076.47 671.561L1087.17 633.825C1088.95 627.526 1087.73 620.756 1083.84 615.486C1077.29 606.605 1065.02 604.243 1055.64 610.058L1047.29 615.241C1028.79 626.711 1004.5 616.649 999.527 595.46L981.85 520.092C981.359 518 981.038 515.872 980.889 513.728L971.67 380.902C971.182 373.874 968.847 367.1 964.901 361.265L817.965 143.975L725.398 16.4972C717.873 6.13338 705.839 6.80246e-05 693.031 4.19482e-05L672.092 -6.83398e-07C659.494 -2.63326e-05 647.799 6.5409 641.205 17.2753C636.43 25.0494 628.898 30.7367 620.114 33.2021L577.554 45.1475C571.523 46.84 565.179 47.0928 559.033 45.8853L506.805 35.624C504.265 35.1249 501.682 34.8736 499.093 34.8736H341.124C336.32 34.8736 331.555 35.7391 327.057 37.4287L286.797 52.5529C279.26 55.3843 272.753 60.4245 268.126 67.0143L262.587 74.9038C259.036 79.9627 254.36 84.1297 248.927 87.0778L236.892 93.6083L165.255 143.587C160.454 146.936 156.447 151.298 153.517 156.365Z" fill="#DEEFFF" fill-opacity="0.1"/>
</g>
<defs>
<filter id="filter0_i_4125_9290" x="0" y="0" width="1087.97" height="1151.28" filterUnits="userSpaceOnUse" color-interpolation-filters="sRGB">
<feFlood flood-opacity="0" result="BackgroundImageFix"/>
<feBlend mode="normal" in="SourceGraphic" in2="BackgroundImageFix" result="shape"/>
<feColorMatrix in="SourceAlpha" type="matrix" values="0 0 0 0 0 0 0 0 0 0 0 0 0 0 0 0 0 0 127 0" result="hardAlpha"/>
<feOffset/>
<feGaussianBlur stdDeviation="17.5"/>
<feComposite in2="hardAlpha" operator="arithmetic" k2="-1" k3="1"/>
<feColorMatrix type="matrix" values="0 0 0 0 0.0336538 0 0 0 0 0.339664 0 0 0 0 1 0 0 0 0.1 0"/>
<feBlend mode="normal" in2="shape" result="effect1_innerShadow_4125_9290"/>
</filter>
</defs>
</svg>
