<svg width="730" height="885" viewBox="0 0 730 885" fill="none" xmlns="http://www.w3.org/2000/svg">
<g filter="url(#filter0_i_4125_9292)">
<path d="M97.0943 120.178L90.9669 131.361C88.7074 135.485 84.8157 138.466 80.2459 139.575C69.434 142.197 64.1517 154.451 69.6687 164.112L71.2708 166.917C72.9223 169.81 73.791 173.082 73.791 176.413V178.106C73.791 184.519 76.2043 190.696 80.5511 195.411L133.133 252.439C137.077 256.717 136.581 263.439 132.052 267.092C129.683 269.002 128.306 271.882 128.306 274.925V288.993C128.306 299.261 132.307 309.126 139.459 316.493L152.846 330.283C153.618 331.078 154.049 332.142 154.049 333.249C154.049 335.955 151.559 337.975 148.911 337.416L98.2094 326.707C87.4552 324.435 76.2401 326.689 67.1985 332.939L60.654 337.463C44.6242 348.544 38.9118 369.563 47.1283 387.233L49.2279 391.748C50.4566 394.39 51.9703 396.89 53.7421 399.204L79.5514 432.903C84.6665 439.581 87.5457 447.703 87.7796 456.112L88.7104 489.568C88.8567 494.825 90.4526 499.94 93.3222 504.348L106.434 524.489C111.12 531.686 107.084 541.343 98.6702 543.066C93.003 544.227 88.9341 549.214 88.9341 554.998V557.052C88.9341 561.79 91.2179 566.237 95.0683 568.997L95.6464 569.411C105.215 576.27 104.412 590.747 94.1452 596.507L91.8564 597.791C85.8022 601.188 83.0939 608.466 85.4548 614.994C87.5325 620.738 85.7005 627.168 80.9069 630.955L76.2541 634.631C70.8729 638.882 67.7338 645.362 67.7338 652.22V659.73C67.7338 664.197 66.9443 668.63 65.4019 672.822L55.9698 698.46C54.6384 702.079 53.8373 705.872 53.5914 709.72L51.7976 737.783C51.3261 745.161 48.8189 752.264 44.5545 758.304L4.54672 814.964C1.58833 819.154 0 824.157 0 829.286C0 837.457 4.02061 845.106 10.7518 849.739L14.0156 851.986C19.4142 855.701 25.8135 857.691 32.3672 857.691H40.0812C47.2779 857.691 54.3413 859.632 60.5268 863.311L88.2353 879.789C96.0004 884.407 105.755 884.029 113.139 878.825C121.251 873.107 132.122 873.264 140.065 879.213L140.952 879.877C147.145 884.515 155.354 885.467 162.445 882.371L168.69 879.645C175.014 876.884 178.31 869.862 176.392 863.233C174.771 857.632 176.862 851.618 181.609 848.23L199.431 835.51C201.765 833.844 204.56 832.949 207.427 832.949H209.335C215.883 832.949 221.191 838.257 221.191 844.805C221.191 848.638 223.043 852.234 226.164 854.459L227.384 855.328C229.886 857.112 232.882 858.071 235.955 858.071H241.388C255.124 858.071 265.598 845.779 263.418 832.217C262.23 824.83 264.825 817.339 270.326 812.268L278.801 804.457C286.188 797.65 295.865 793.87 305.91 793.87H324.047C326.675 793.87 329.199 792.844 331.082 791.009L340.195 782.128C343.18 779.219 348.196 781.334 348.196 785.503C348.196 798.051 357.578 808.617 370.038 810.102L377.25 810.961C388.186 812.264 397.804 803.723 397.804 792.71C397.804 782.56 406.033 774.331 416.184 774.331H419.766C423.247 774.331 426.677 775.158 429.775 776.744L436.708 780.294C446.658 785.389 458.286 786.088 468.775 782.221L490.177 774.331L543.123 750.558C547.169 748.741 551.49 747.609 555.908 747.21L608.502 742.458C619.923 741.426 630.352 735.541 637.141 726.299L675.166 674.528C677.048 671.966 678.618 669.188 679.842 666.254L708.286 598.096L721.914 564.6L729.427 534.593C730.43 530.588 729.72 526.346 727.467 522.887C722.882 515.846 713.373 514.01 706.497 518.839L702.767 521.458C690.999 529.721 674.656 522.632 672.649 508.394L658.841 410.442L652.595 308.544C652.204 302.164 650.29 295.971 647.012 290.483L549.283 126.835L484.323 17.3916C477.923 6.60971 466.314 4.71299e-05 453.776 1.82245e-05L447.783 4.40857e-06C438.447 -1.71137e-05 429.861 5.11047 425.409 13.3163C422.271 19.1 417.016 23.444 410.745 25.437L386.88 33.0215C380.149 35.1606 372.972 35.4795 366.078 33.9459L336.98 27.4723C334.128 26.8378 331.215 26.5177 328.293 26.5177H227.27C221.889 26.5177 216.564 27.6033 211.613 29.7095L191.405 38.3054C183.817 41.5333 177.412 47.0275 173.066 54.036L172.618 54.7586C169.338 60.0499 164.867 64.5024 159.563 67.7617L154.001 71.1793L107.378 108.011C103.169 111.336 99.6718 115.474 97.0943 120.178Z" fill="#DEEFFF" fill-opacity="0.1"/>
</g>
<defs>
<filter id="filter0_i_4125_9292" x="0" y="0" width="729.872" height="884.168" filterUnits="userSpaceOnUse" color-interpolation-filters="sRGB">
<feFlood flood-opacity="0" result="BackgroundImageFix"/>
<feBlend mode="normal" in="SourceGraphic" in2="BackgroundImageFix" result="shape"/>
<feColorMatrix in="SourceAlpha" type="matrix" values="0 0 0 0 0 0 0 0 0 0 0 0 0 0 0 0 0 0 127 0" result="hardAlpha"/>
<feOffset/>
<feGaussianBlur stdDeviation="17.5"/>
<feComposite in2="hardAlpha" operator="arithmetic" k2="-1" k3="1"/>
<feColorMatrix type="matrix" values="0 0 0 0 0.0336538 0 0 0 0 0.339664 0 0 0 0 1 0 0 0 0.1 0"/>
<feBlend mode="normal" in2="shape" result="effect1_innerShadow_4125_9292"/>
</filter>
</defs>
</svg>
