<svg width="889" height="962" viewBox="0 0 889 962" fill="none" xmlns="http://www.w3.org/2000/svg">
<g opacity="0.7" filter="url(#filter0_i_4125_9291)">
<path d="M124.893 140.388L115.7 157.747C113.026 162.797 108.297 166.443 102.733 167.745C89.7316 170.787 83.4225 185.576 90.2244 197.066L91.835 199.786C93.852 203.193 94.9161 207.08 94.9161 211.039V212.68C94.9161 220.32 98.0294 227.631 103.538 232.925L149.376 276.982C153.804 281.238 153.428 288.43 148.581 292.201C145.25 294.792 143.887 299.183 145.164 303.204L154.663 333.112C155.577 335.991 156.162 338.964 156.407 341.974L157.771 358.729C157.771 363.055 153.948 366.383 149.663 365.787L113.571 360.764C104.151 359.453 94.578 361.643 86.6654 366.919L68.9681 378.72C52.3683 389.788 46.4633 411.397 55.127 429.369L60.1814 439.854C61.4673 442.522 63.0454 445.038 64.8867 447.357L98.0417 489.116C103.412 495.88 106.449 504.201 106.698 512.835L107.881 553.822C108.061 560.071 110.013 566.141 113.511 571.324L129.076 594.387C134.883 602.992 130.042 614.734 119.858 616.746C113.058 618.089 108.157 624.053 108.157 630.985V633.051C108.157 638.642 110.901 643.877 115.5 647.057L116.227 647.56C127.712 655.501 126.77 672.767 114.49 679.413L111.397 681.087C104.262 684.948 101.07 693.481 103.918 701.077C106.434 707.789 104.254 715.356 98.5528 719.701L92.6834 724.174C86.1869 729.124 82.3739 736.824 82.3739 744.992V754.132C82.3739 759.004 81.484 763.835 79.748 768.386L67.7669 799.801C66.3474 803.523 65.4919 807.436 65.2285 811.41L62.8848 846.781C62.3828 854.358 59.7344 861.635 55.2491 867.763L5.49293 935.736C1.9239 940.612 0 946.497 0 952.54C0 962.07 4.77266 970.968 12.7128 976.24L17.3598 979.325C23.7285 983.554 31.2032 985.809 38.8479 985.809H49.87C57.8513 985.809 65.6501 988.197 72.2634 992.665L112.539 1019.88C121.852 1026.17 134.058 1026.15 143.351 1019.83C152.906 1013.34 165.504 1013.52 174.87 1020.28L176.887 1021.74C184.244 1027.05 193.839 1028.15 202.202 1024.62L210.677 1021.06C218.098 1017.93 221.971 1009.71 219.657 1002C217.691 995.446 220.179 988.371 225.816 984.49L247.713 969.415C250.525 967.479 253.858 966.442 257.272 966.442H260.319C267.947 966.442 274.13 972.625 274.13 980.253C274.13 984.8 276.368 989.055 280.114 991.632L281.805 992.795C284.758 994.826 288.258 995.913 291.842 995.913H300.006C315.989 995.913 328.147 981.562 325.519 965.797C324.058 957.028 327.203 948.122 333.847 942.216L346.795 930.704C354.117 924.194 363.574 920.598 373.372 920.598H399.307C402.452 920.598 405.478 919.399 407.769 917.245L419.037 906.653C422.654 903.252 428.586 905.818 428.586 910.783C428.586 925.487 439.613 937.854 454.222 939.533L464.84 940.753C477.668 942.228 488.917 932.197 488.917 919.285C488.917 907.351 498.591 897.676 510.526 897.676H515.791C519.918 897.676 523.991 898.627 527.692 900.455L540.042 906.555C549.741 911.346 560.967 912.004 571.159 908.379L601.255 897.676L667.121 869.148C671.066 867.439 675.262 866.377 679.545 866.004L747.139 860.113C759.646 859.022 770.916 852.123 777.575 841.48L822.941 768.975C824.008 767.269 824.945 765.486 825.743 763.64L859.817 684.879C860.854 682.482 861.654 679.988 862.205 677.435L879.12 599.054L888.147 564.275C889.433 559.322 888.529 554.055 885.666 549.814C880.148 541.64 869.045 539.495 860.88 545.026L855.055 548.971C840.464 558.855 820.507 550.838 816.807 533.607L801.867 464.035C801.453 462.104 801.182 460.145 801.057 458.174L793.56 340.206C793.143 333.641 791.113 327.28 787.651 321.687L668.007 128.43L594.497 17.8553C587.083 6.70239 574.579 5.58321e-05 561.187 2.60493e-05L550.168 1.54607e-06C539.143 -2.29729e-05 528.974 5.9473 523.57 15.5573C519.729 22.387 513.408 27.4776 505.916 29.7743L474.125 39.5203C467.603 41.5198 460.678 41.818 454.008 40.3867L414.922 31.9988C412.164 31.4069 409.35 31.1084 406.529 31.1084H280.539C275.331 31.1084 270.173 32.1255 265.355 34.1026L236.424 45.974C228.838 49.0865 222.392 54.4549 217.959 61.3523L215.152 65.7191C211.789 70.9527 207.25 75.3295 201.898 78.5016L193.463 83.5015L135.997 127.292C131.392 130.802 127.603 135.27 124.893 140.388Z" fill="#DEEFFF" fill-opacity="0.1"/>
</g>
<defs>
<filter id="filter0_i_4125_9291" x="0" y="0" width="888.719" height="1026.66" filterUnits="userSpaceOnUse" color-interpolation-filters="sRGB">
<feFlood flood-opacity="0" result="BackgroundImageFix"/>
<feBlend mode="normal" in="SourceGraphic" in2="BackgroundImageFix" result="shape"/>
<feColorMatrix in="SourceAlpha" type="matrix" values="0 0 0 0 0 0 0 0 0 0 0 0 0 0 0 0 0 0 127 0" result="hardAlpha"/>
<feOffset/>
<feGaussianBlur stdDeviation="17.5"/>
<feComposite in2="hardAlpha" operator="arithmetic" k2="-1" k3="1"/>
<feColorMatrix type="matrix" values="0 0 0 0 0.0336538 0 0 0 0 0.339664 0 0 0 0 1 0 0 0 0.1 0"/>
<feBlend mode="normal" in2="shape" result="effect1_innerShadow_4125_9291"/>
</filter>
</defs>
</svg>
