<svg width="60" height="60" viewBox="0 0 60 60" fill="none" xmlns="http://www.w3.org/2000/svg">
<path d="M28.5007 3.39485L24.5222 5.66778C23.9634 5.98734 23.9634 6.78414 24.5222 7.10305L43.9161 18.1827L40.3116 20.2417L20.5002 8.92396C20.2452 8.77865 19.9562 8.70217 19.662 8.70217C19.3678 8.70217 19.0787 8.77865 18.8238 8.92396L14.1965 11.5672C13.6376 11.8874 13.6376 12.6842 14.1965 13.0031L36.0898 25.51C36.3521 25.6594 36.57 25.8746 36.7216 26.1338C36.8731 26.3931 36.9529 26.6873 36.9529 26.9868V51.9999C36.9529 52.6381 37.6501 53.0368 38.2089 52.7176L42.8362 50.0743C43.0909 49.9286 43.3024 49.7192 43.4494 49.467C43.5965 49.2149 43.6738 48.9289 43.6738 48.6378V26.4383L47.2777 24.3793V46.0999C47.2777 46.738 47.9759 47.1367 48.5347 46.8178L52.5132 44.5452C52.965 44.2869 53.3402 43.9155 53.6011 43.4684C53.862 43.0212 53.9994 42.514 53.9996 41.9977V17.9602C53.9994 17.4438 53.862 16.9365 53.6011 16.4893C53.3402 16.0421 52.965 15.6707 52.5132 15.4124L31.4745 3.39389C31.0224 3.13574 30.5096 2.99989 29.9876 3C29.4657 3.00011 28.953 3.13618 28.501 3.39453" fill="#079AE1"/>
<path d="M33.333 34.3415V29.054C33.333 28.4607 33.014 27.9132 32.4966 27.6172L10.1928 14.8553C9.93842 14.71 9.64994 14.6335 9.3563 14.6335C9.06266 14.6335 8.77417 14.71 8.51976 14.8553L7.48428 15.4476C7.03297 15.7059 6.65822 16.0774 6.39768 16.5247C6.13714 16.972 5.99998 17.4794 6 17.9959V42.0368C6.00027 42.5532 6.13755 43.0604 6.39806 43.5076C6.65858 43.9548 7.03318 44.3263 7.48428 44.5847L28.4939 56.6061C28.9452 56.8641 29.4569 56.9999 29.9779 57C30.4989 57.0001 31.0107 56.8645 31.4621 56.6068L32.4957 56.0151C32.7503 55.8696 32.9618 55.6602 33.1089 55.408C33.2559 55.1558 33.3333 54.8696 33.3333 54.5783V40.8528C33.3333 40.2605 33.014 39.712 32.4966 39.416L17.5627 30.8711C17.0053 30.5518 16.3084 30.9509 16.3084 31.5889V37.3553C16.3084 37.6513 16.4676 37.9256 16.726 38.0737L26.6217 43.7354V47.8527L12.7116 39.894V39.84H12.7071V25.2665L12.7116 23.9779L32.0788 35.0593C32.6361 35.3786 33.333 34.9794 33.333 34.3415Z" fill="#2056AE"/>
</svg>
