<svg width="250" height="61" viewBox="0 0 250 61" fill="none" xmlns="http://www.w3.org/2000/svg">
<g clip-path="url(#clip0_2559_10825)">
<path d="M66.2686 49.9087C65.9398 50.0271 65.3829 50.1942 64.8905 50.1942C63.1284 50.1942 62.3877 48.8599 62.3877 47.3607C62.3877 45.6313 63.3993 44.5443 64.8488 44.5443C65.327 44.5443 65.7737 44.6093 66.1566 44.7915V45.4884C65.7342 45.2755 65.2639 45.1492 64.8579 45.1492C63.9489 45.1492 63.1194 45.8706 63.1194 47.2189C63.1194 48.6463 63.6922 49.5904 64.9046 49.5904C65.1265 49.5904 65.4159 49.5348 65.5979 49.4395V47.6939H64.6664V47.0912H66.2686V49.9087ZM68.432 47.813L66.7671 44.601H67.563L68.7913 47.0522L70.0259 44.6006H70.7982L69.1332 47.813V50.1371H68.432V47.813ZM71.2996 44.6006H73.8887V45.2044H72.0008V46.9641H73.8013V47.5679H72.0008V49.5344H73.9924V50.1371H71.2996V44.6006ZM76.6199 49.6218C77.3526 49.6218 77.9744 49.0191 77.9744 47.3138C77.9744 46.1954 77.6235 45.1163 76.683 45.1163C75.9513 45.1163 75.3295 45.7183 75.3295 47.4253C75.3295 48.5438 75.6805 49.6218 76.6199 49.6218ZM76.683 44.5439C77.9186 44.5439 78.7083 45.5996 78.7083 47.3138C78.7083 49.2266 77.9349 50.1938 76.6199 50.1938C75.3843 50.1938 74.5968 49.1374 74.5968 47.4253C74.5968 45.5115 75.369 44.5439 76.683 44.5439ZM79.5418 44.6006H80.4102L82.5065 49.1696H82.521V44.6006H83.1918V50.1371H82.3223L80.2267 45.5996H80.2104V50.1371H79.5418V44.6006ZM87.9062 49.9087C87.5803 50.0271 87.0216 50.1942 86.5281 50.1942C84.7675 50.1942 84.0253 48.8599 84.0253 47.3607C84.0253 45.6313 85.0369 44.5443 86.4871 44.5443C86.9668 44.5443 87.4124 44.6093 87.7953 44.7915V45.4884C87.3729 45.2755 86.9016 45.1492 86.4966 45.1492C85.5876 45.1492 84.7592 45.8706 84.7592 47.2189C84.7592 48.6463 85.3331 49.5904 86.5444 49.5904C86.7663 49.5904 87.0531 49.5348 87.2373 49.4395V47.6939H86.3051V47.0912H87.9062V49.9087ZM92.6203 49.9087C92.294 50.0271 91.736 50.1942 91.2426 50.1942C89.4827 50.1942 88.7398 48.8599 88.7398 47.3607C88.7398 45.6313 89.7513 44.5443 91.2016 44.5443C91.6813 44.5443 92.1269 44.6093 92.5105 44.7915V45.4884C92.0874 45.2755 91.616 45.1492 91.211 45.1492C90.3021 45.1492 89.4736 45.8706 89.4736 47.2189C89.4736 48.6463 90.0465 49.5904 91.2589 49.5904C91.4808 49.5904 91.7676 49.5348 91.9518 49.4395V47.6939H91.0185V47.0912H92.6207L92.6203 49.9087Z" fill="#2056AE"/>
<path d="M93.6875 44.6006H94.3887V50.1368H93.6875V44.6006Z" fill="#2056AE"/>
<path d="M97.2061 44.6006H97.9073V46.9645H99.851V44.6006H100.553V50.1371H99.851V47.5679H97.9073V50.1375H97.2061V44.6006ZM103.411 49.6218C104.146 49.6218 104.767 49.0191 104.767 47.3138C104.767 46.1954 104.416 45.1163 103.475 45.1163C102.742 45.1163 102.12 45.7183 102.12 47.4253C102.12 48.5438 102.472 49.6218 103.411 49.6218ZM103.475 44.5439C104.712 44.5439 105.499 45.5996 105.499 47.3138C105.499 49.2266 104.726 50.1938 103.411 50.1938C102.175 50.1938 101.388 49.1374 101.388 47.4253C101.388 45.5115 102.16 44.5439 103.475 44.5439ZM109.823 48.0981C109.823 48.6463 109.791 48.948 109.601 49.337C109.369 49.7968 108.884 50.1942 108.078 50.1942C107.273 50.1942 106.787 49.7972 106.555 49.337C106.364 48.948 106.333 48.6463 106.333 48.0981V44.601H107.034V48.2027C107.034 49.0667 107.417 49.6218 108.078 49.6218C108.74 49.6218 109.122 49.0667 109.122 48.2024V44.601H109.823V48.0981ZM113.184 45.4022C112.921 45.2441 112.579 45.1488 112.236 45.1488C111.709 45.1488 111.368 45.5054 111.368 45.9717C111.368 46.33 111.511 46.552 112.307 47.0121C113.168 47.5044 113.456 47.9887 113.456 48.6228C113.456 49.5041 112.907 50.1942 111.838 50.1942C111.391 50.1942 110.969 50.0989 110.674 49.9549V49.2327C110.993 49.4229 111.407 49.59 111.734 49.59C112.364 49.59 112.721 49.1699 112.721 48.7181C112.721 48.2904 112.61 48.0432 111.862 47.5903C110.858 46.9876 110.635 46.6473 110.635 45.932C110.635 45.0214 111.335 44.5439 112.18 44.5439C112.547 44.5439 112.937 44.6251 113.184 44.7276L113.184 45.4022Z" fill="#2056AE"/>
<path d="M114.267 44.6006H114.966V50.1368H114.267V44.6006Z" fill="#2056AE"/>
<path d="M116.033 44.6006H116.903L118.998 49.1696H119.014V44.6006H119.683V50.1371H118.815L116.718 45.5996H116.703V50.1371H116.033V44.6006ZM124.399 49.9087C124.072 50.0271 123.514 50.1942 123.021 50.1942C121.259 50.1942 120.518 48.8599 120.518 47.3607C120.518 45.6313 121.53 44.5443 122.98 44.5443C123.46 44.5443 123.905 44.6093 124.287 44.7915V45.4884C123.865 45.2755 123.395 45.1492 122.989 45.1492C122.08 45.1492 121.251 45.8706 121.251 47.2189C121.251 48.6463 121.824 49.5904 123.036 49.5904C123.259 49.5904 123.546 49.5348 123.728 49.4395V47.6939H122.797V47.0912H124.399L124.399 49.9087ZM128.872 45.0846C128.498 45.0846 128.22 45.3228 128.22 45.6793C128.22 45.9648 128.507 46.4156 128.729 46.6873C129.278 46.3459 129.479 46.0684 129.479 45.6884C129.479 45.3783 129.278 45.0846 128.872 45.0846ZM128.491 47.4412C128.075 47.7094 127.748 48.0984 127.748 48.6069C127.748 49.1692 128.14 49.6221 128.769 49.6221C129.136 49.6221 129.543 49.3608 129.718 49.0902L128.491 47.4412ZM130.498 50.1368L130.061 49.5258C129.782 49.9708 129.238 50.1945 128.681 50.1945C127.613 50.1945 127.048 49.4955 127.048 48.6618C127.048 47.8859 127.423 47.3781 128.148 46.9811C127.9 46.6314 127.582 46.1716 127.582 45.7187C127.582 44.9976 128.117 44.5447 128.865 44.5447C129.622 44.5447 130.116 45.0369 130.116 45.6956C130.116 46.1867 129.814 46.6953 129.056 47.124L130.084 48.543C130.292 48.0923 130.387 47.5989 130.419 47.0276H131.089C131.041 47.7256 130.832 48.4723 130.466 49.0415L131.327 50.1368H130.498ZM137.166 48.0981C137.166 48.6463 137.133 48.948 136.942 49.337C136.711 49.7968 136.224 50.1942 135.419 50.1942C134.615 50.1942 134.128 49.7972 133.897 49.337C133.706 48.948 133.675 48.6463 133.675 48.0981V44.601H134.375V48.2027C134.375 49.0667 134.757 49.6218 135.419 49.6218C136.082 49.6218 136.463 49.0667 136.463 48.2024V44.601H137.166V48.0981ZM138.931 47.0601H139.472C140.222 47.0601 140.509 46.5689 140.509 46.0846C140.509 45.4657 140.102 45.1719 139.489 45.1719H138.931V47.0601ZM138.229 44.6006H139.656C140.246 44.6006 140.572 44.7442 140.827 44.9814C141.115 45.2509 141.242 45.6317 141.242 46.037C141.242 46.6227 140.963 47.1882 140.142 47.3615V47.3774C140.477 47.4412 140.635 47.5993 140.747 47.9162L141.528 50.1368H140.772L140.134 48.2648C139.974 47.8057 139.775 47.6318 139.249 47.6318H138.931V50.1368H138.229V44.6006ZM142.905 49.5662H143.502C144.252 49.5662 144.579 49.097 144.579 48.5755C144.579 48.0031 144.261 47.5675 143.582 47.5675H142.905V49.5662ZM142.905 46.9959H143.319C144.101 46.9959 144.459 46.6386 144.459 46.0438C144.459 45.5696 144.173 45.1715 143.439 45.1715H142.905V46.9959ZM142.204 44.6013H143.614C144.69 44.6013 145.16 45.1867 145.16 46.0041C145.16 46.6068 144.801 47.076 144.244 47.2341V47.2503C144.849 47.3373 145.28 47.8451 145.28 48.6217C145.28 49.3919 144.753 50.1364 143.542 50.1364H142.204V44.6013ZM148.569 48.0919L147.716 45.3296H147.7L146.823 48.0919H148.569ZM148.115 44.601L149.931 50.1371H149.197L148.751 48.695H146.632L146.186 50.1375H145.485L147.349 44.6013L148.115 44.601ZM150.448 44.6006H151.316L153.413 49.1696H153.427V44.6006H154.098V50.1371H153.228L151.133 45.5996H151.117V50.1371H150.448V44.6006ZM157.535 49.5344H157.958C159.186 49.5344 159.822 48.7018 159.822 47.2824C159.822 46.124 159.329 45.2047 157.958 45.2047H157.535V49.5344ZM156.834 44.601H158.047C158.787 44.601 159.21 44.7753 159.528 44.9972C160.021 45.3386 160.556 46.0373 160.556 47.2824C160.556 48.8834 159.79 50.1371 157.704 50.1371H156.834V44.601ZM161.327 44.6006H163.915V45.2044H162.026V46.9641H163.828V47.5679H162.026V49.5344H164.019V50.1371H161.327V44.6006ZM164.312 44.6006H165.077L166.368 49.114H166.386L167.747 44.6006H168.449L166.704 50.1371H166.003L164.312 44.6006ZM168.972 44.6006H171.561V45.2044H169.672V46.9641H171.474V47.5679H169.672V49.5344H171.664V50.1371H168.972V44.6006ZM172.501 44.6006H173.2V49.5341H175.026V50.1371H172.501V44.6006ZM177.376 49.6218C178.11 49.6218 178.731 49.0191 178.731 47.3138C178.731 46.1954 178.38 45.1163 177.439 45.1163C176.706 45.1163 176.084 45.7183 176.084 47.4253C176.084 48.5438 176.435 49.6218 177.376 49.6218ZM177.439 44.5439C178.674 44.5439 179.463 45.5996 179.463 47.3138C179.463 49.2266 178.69 50.1938 177.376 50.1938C176.14 50.1938 175.353 49.1374 175.353 47.4253C175.353 45.5115 176.125 44.5439 177.439 44.5439ZM180.998 47.2503H181.381C182.233 47.2503 182.545 46.8533 182.545 46.2351C182.545 45.4736 182.115 45.1715 181.397 45.1715H180.998V47.2503ZM180.297 44.6013H181.635C182.194 44.6013 182.545 44.7511 182.839 45.0286C183.118 45.2993 183.278 45.688 183.278 46.1723C183.278 47.2503 182.648 47.8205 181.469 47.8205H180.998V50.1375H180.297V44.6013ZM183.969 44.6006H185.053L186.447 49.0036H186.462L187.889 44.6006H188.941V50.1371H188.272V45.3625H188.256L186.679 50.1371H186.169L184.654 45.3625H184.638V50.1371H183.969L183.969 44.6006ZM190.006 44.6006H192.596V45.2044H190.707V46.9641H192.507V47.5679H190.707V49.5344H192.7V50.1371H190.006V44.6006ZM193.534 44.6006H194.403L196.498 49.1696H196.515V44.6006H197.183V50.1371H196.315L194.218 45.5996H194.203V50.1371H193.534V44.6006ZM199.054 45.2044H197.778V44.6006H201.03V45.2044H199.755V50.1368H199.054V45.2044ZM206.661 50.0271C206.325 50.1306 205.975 50.1945 205.648 50.1945C203.888 50.1945 203.146 48.8603 203.146 47.3607C203.146 45.6317 204.157 44.5447 205.607 44.5447C206.006 44.5447 206.404 44.6165 206.661 44.7442V45.426C206.358 45.2354 206.007 45.1492 205.617 45.1492C204.708 45.1492 203.879 45.8695 203.879 47.2189C203.879 48.6463 204.453 49.5897 205.663 49.5897C206.022 49.5897 206.372 49.4955 206.661 49.3284V50.0271ZM209.287 49.6218C210.022 49.6218 210.643 49.0191 210.643 47.3138C210.643 46.1954 210.291 45.1163 209.35 45.1163C208.618 45.1163 207.996 45.7183 207.996 47.4253C207.996 48.5438 208.347 49.6218 209.287 49.6218ZM209.35 44.5439C210.585 44.5439 211.375 45.5996 211.375 47.3138C211.375 49.2266 210.602 50.1938 209.287 50.1938C208.053 50.1938 207.264 49.1374 207.264 47.4253C207.264 45.5115 208.036 44.5439 209.35 44.5439ZM212.911 47.0601H213.452C214.202 47.0601 214.488 46.5689 214.488 46.0846C214.488 45.4657 214.082 45.1719 213.468 45.1719H212.911V47.0601ZM212.209 44.6006H213.635C214.226 44.6006 214.551 44.7442 214.806 44.9814C215.095 45.2509 215.222 45.6317 215.222 46.037C215.222 46.6227 214.943 47.1882 214.121 47.3615V47.3774C214.457 47.4412 214.615 47.5993 214.727 47.9162L215.508 50.1368H214.752L214.114 48.2648C213.955 47.8057 213.756 47.6318 213.229 47.6318H212.911V50.1368H212.209V44.6006ZM216.884 47.2503H217.267C218.12 47.2503 218.432 46.8533 218.432 46.2351C218.432 45.4736 218.001 45.1715 217.283 45.1715H216.884V47.2503ZM216.185 44.6013H217.521C218.08 44.6013 218.432 44.7511 218.725 45.0286C219.004 45.2993 219.164 45.688 219.164 46.1723C219.164 47.2503 218.534 47.8205 217.355 47.8205H216.884V50.1375H216.185V44.6013ZM221.647 49.6218C222.382 49.6218 223.004 49.0191 223.004 47.3138C223.004 46.1954 222.652 45.1163 221.71 45.1163C220.979 45.1163 220.357 45.7183 220.357 47.4253C220.357 48.5438 220.708 49.6218 221.647 49.6218ZM221.71 44.5439C222.946 44.5439 223.736 45.5996 223.736 47.3138C223.736 49.2266 222.962 50.1938 221.647 50.1938C220.412 50.1938 219.624 49.1374 219.624 47.4253C219.624 45.5115 220.396 44.5439 221.71 44.5439ZM225.27 47.0601H225.814C226.563 47.0601 226.849 46.5689 226.849 46.0846C226.849 45.4657 226.442 45.1719 225.828 45.1719H225.27V47.0601ZM224.571 44.6006H225.996C226.587 44.6006 226.912 44.7442 227.167 44.9814C227.455 45.2509 227.582 45.6317 227.582 46.037C227.582 46.6227 227.304 47.1882 226.483 47.3615V47.3774C226.819 47.4412 226.977 47.5993 227.089 47.9162L227.87 50.1368H227.113L226.473 48.2648C226.315 47.8057 226.116 47.6318 225.591 47.6318H225.27V50.1368H224.571V44.6006ZM231.078 48.0919L230.226 45.3296H230.21L229.332 48.0919H231.078ZM230.625 44.601L232.441 50.1371H231.708L231.262 48.695H229.142L228.696 50.1375H227.994L229.86 44.6013L230.625 44.601ZM233.403 45.2044H232.128V44.6006H235.38V45.2044H234.104V50.1368H233.403V45.2044Z" fill="#2056AE"/>
<path d="M235.975 44.6006H236.675V50.1368H235.975V44.6006Z" fill="#2056AE"/>
<path d="M239.535 49.6218C240.269 49.6218 240.89 49.0191 240.89 47.3139C240.89 46.1955 240.54 45.1164 239.598 45.1164C238.866 45.1164 238.245 45.7183 238.245 47.4254C238.245 48.5438 238.596 49.6218 239.535 49.6218ZM239.598 44.544C240.834 44.544 241.624 45.5996 241.624 47.3139C241.624 49.2266 240.85 50.1938 239.535 50.1938C238.3 50.1938 237.512 49.1375 237.512 47.4254C237.512 45.5116 238.284 44.544 239.598 44.544ZM242.458 44.6006H243.327L245.423 49.1696H245.438V44.6006H246.107V50.1372H245.239L243.144 45.5996H243.127V50.1372H242.459L242.458 44.6006ZM74.0432 38.1969C73.0723 38.1969 72.2743 37.9103 71.6688 37.343C71.0662 36.7786 70.7609 36.0127 70.7609 35.0675C70.7609 34.1234 71.0673 33.3497 71.6699 32.7661C72.2753 32.1825 73.0734 31.8855 74.0432 31.8855C74.9931 31.8855 75.7727 32.1825 76.3575 32.765C76.9448 33.3486 77.2411 34.1234 77.2411 35.0675C77.2411 36.0138 76.9448 36.7796 76.3597 37.3448C75.7734 37.9103 74.9939 38.1969 74.0432 38.1969ZM76.6008 40.5615C77.4068 40.2829 78.1272 39.8758 78.7482 39.3528C79.3465 38.8292 79.8363 38.2012 80.2018 37.4838C80.5701 36.7616 80.7554 35.9489 80.7554 35.0675C80.7554 34.3393 80.6271 33.6463 80.3736 33.0112C80.144 32.4331 79.8281 31.8929 79.4364 31.4088C80.0571 30.9241 80.564 30.3499 80.9425 29.6981C81.3508 29.0034 81.5574 28.1737 81.5574 27.2368V16.1836H78.125V18.7398H73.8235C73.8018 18.1166 73.635 17.603 73.3257 17.2132C72.9849 16.7856 72.4099 16.5676 71.6129 16.5676H62.3871V19.3811H69.7076C69.9796 19.3811 70.1503 19.4468 70.2152 19.5775C70.2685 19.6821 70.303 19.8987 70.1797 20.3498C69.9149 21.1822 69.5069 21.9625 68.9738 22.6559C68.4218 23.3684 67.7946 24.02 67.103 24.5994C66.3735 25.2113 65.595 25.7629 64.7753 26.2487C63.9404 26.7465 63.0786 27.1983 62.1938 27.602L62.0571 27.6648L63.544 30.4448L63.6662 30.3871C65.9685 29.3242 68.0097 28.0091 69.7341 26.4764C71.4346 24.9642 72.6386 23.2882 73.3134 21.496H78.1254V24.1547H72.8515V26.9102H78.1254V27.1816C78.1254 27.8391 78.0532 28.3891 77.9107 28.8136C77.7888 29.186 77.5881 29.5281 77.3223 29.8169C76.8308 29.6059 76.3222 29.4368 75.802 29.3112C75.2266 29.1707 74.6361 29.1 74.0436 29.1005C73.1292 29.1005 72.254 29.2463 71.44 29.535C70.6286 29.8226 69.9042 30.234 69.2824 30.7566C68.6801 31.2834 68.1897 31.9248 67.8401 32.643C67.4829 33.3735 67.3006 34.1898 67.3006 35.0672C67.3006 35.9478 67.4829 36.7641 67.8401 37.4946C68.1972 38.224 68.6827 38.8512 69.2853 39.3546C69.9031 39.8754 70.6286 40.2825 71.4429 40.5611C72.254 40.8408 73.1285 40.9816 74.0432 40.9816C74.9388 40.9816 75.7999 40.8412 76.6008 40.5615ZM97.4161 18.2671C97.1141 17.6875 96.5144 17.3937 95.633 17.3937H85.8281V20.2325H93.5906C94.0464 20.2325 94.0739 20.4148 94.0852 20.4837C94.1188 20.7277 94.1188 20.9752 94.0852 21.2192C93.8847 22.3225 93.5642 23.3507 93.1305 24.2774C92.6947 25.2067 92.1262 26.1061 91.4359 26.9553C90.7633 27.7879 89.957 28.6096 89.0383 29.3968C88.1152 30.1889 87.0648 30.9941 85.9155 31.7924L85.7976 31.8754L87.6431 34.4335L87.7555 34.3656C89.3018 33.4316 90.6839 32.3893 91.8663 31.2691C93.0461 30.1492 94.0649 28.968 94.8941 27.7554C95.7247 26.545 96.3853 25.2804 96.8563 24.001C97.3276 22.7227 97.6329 21.4401 97.7634 20.1859C97.8203 19.4656 97.7032 18.8203 97.4161 18.2671Z" fill="#2056AE"/>
<path d="M104.887 16.458H101.427V38.6442H104.886L104.887 16.458Z" fill="#2056AE"/>
<path d="M111.156 28.1978C112.537 27.8491 114.057 27.3489 115.674 26.7073C117.258 26.0834 118.785 25.3253 120.239 24.4412C120.788 24.496 121.252 24.6054 121.625 24.7685C122.006 24.936 122.362 25.1557 122.682 25.421C123.179 25.8354 123.67 26.2561 124.156 26.6831C124.775 27.226 125.397 27.7668 126.02 28.3053L126.126 28.3963L128.139 26.1504L128.028 26.0562C127.701 25.7844 127.38 25.5061 127.065 25.2214C126.769 24.9551 126.492 24.7119 126.237 24.495C125.98 24.2563 125.715 24.0248 125.445 23.8009C125.177 23.5812 124.904 23.3614 124.619 23.1333C124.33 22.9429 124.017 22.7901 123.689 22.6786C123.437 22.5928 123.177 22.53 122.913 22.4909C123.421 22.0454 123.894 21.5632 124.33 21.0484C124.827 20.4619 125.218 19.8452 125.501 19.2118C125.734 18.6466 125.747 18.0934 125.542 17.5657C125.327 17.0136 124.83 16.7349 124.071 16.7349H110.951V19.5734H121.368C120.151 20.843 118.627 21.9301 116.829 22.8081C114.914 23.7432 112.674 24.5769 110.171 25.286L110.027 25.3268L111.029 28.2292L111.156 28.1978ZM117.219 39.4433H120.734V32.4065H129.817V29.5952H108.247V32.4065H117.22L117.219 39.4433ZM151.68 30.8879H136.656V33.6978H149.278C149.419 33.6978 149.601 33.7202 149.668 33.8256C149.736 33.931 149.771 34.08 149.771 34.2724V40.4044H152.948L153.286 32.8754C153.304 32.3315 153.169 31.8623 152.884 31.4805C152.591 31.0864 152.186 30.8879 151.68 30.8879ZM150.323 21.2418H147.846V16.1846H144.69V24.8948C143.856 25.3026 142.965 25.586 142.048 25.7357C141.104 25.8898 140.033 25.9678 138.868 25.9678H136.218C135.949 25.9678 135.862 25.9111 135.836 25.8848C135.81 25.8602 135.753 25.7743 135.753 25.5047V23.8605H142.213V21.2418H135.753V19.2432H142.491V16.5686H132.625V25.67C132.625 26.6972 132.882 27.4568 133.387 27.9311C133.89 28.402 134.685 28.642 135.748 28.642H138.703C139.831 28.642 140.921 28.5543 141.943 28.38C142.884 28.2218 143.804 27.9644 144.69 27.612V29.7687H147.846V24.0258H150.323V29.7687H153.478V16.1846H150.323V21.2418ZM177.857 33.4163H168.803V29.1036C169.956 29.0666 171.107 28.9768 172.252 28.8344C173.424 28.6864 174.525 28.4446 175.525 28.114L175.645 28.0725L175.062 25.4152L174.92 25.4506C173.603 25.7779 172.296 26.0078 171.032 26.1345C169.765 26.2612 168.539 26.3258 167.389 26.3258H163.358C163.044 26.3258 162.806 26.2583 162.649 26.1255C162.5 25.9988 162.424 25.7628 162.424 25.4225V19.8466H174.82V17.0089H158.992V25.9176C158.992 27.0007 159.316 27.8152 159.956 28.3349C160.586 28.8485 161.535 29.109 162.778 29.109H165.259V33.4163H156.286V36.2266H177.857L177.857 33.4163ZM188.895 28.8892C189.276 29.3786 189.77 30.1001 190.362 31.0362C191.005 32.0493 191.635 33.0701 192.253 34.0984L192.331 34.2284L194.967 32.3885L194.898 32.2759C194.267 31.2234 193.618 30.1818 192.95 29.1516C192.371 28.2663 191.836 27.4915 191.354 26.8451C190.955 26.3536 190.491 25.9862 189.978 25.748C189.529 25.5407 189.052 25.4 188.562 25.3304C188.801 24.5961 188.983 23.8446 189.106 23.0824C189.244 22.2365 189.315 21.3227 189.315 20.3656C189.315 19.7546 189.258 19.1457 189.147 18.5531C189.034 17.9555 188.815 17.3506 188.497 16.7537L188.442 16.6483L185.107 17.7538L185.18 17.9006C185.339 18.2197 185.48 18.5986 185.597 19.0302C185.716 19.4746 185.775 19.9328 185.772 20.3926C185.772 21.6763 185.643 22.8334 185.389 23.8352C185.136 24.836 184.752 25.77 184.247 26.6149C183.737 27.481 183.09 28.314 182.321 29.0881C181.543 29.8712 180.625 30.6692 179.588 31.4664L179.474 31.5548L181.441 34.054L181.553 33.9761C182.843 33.0572 184.001 32.0857 184.994 31.0878C185.963 30.1141 186.786 29.0433 187.443 27.9036C187.72 28.0061 187.982 28.1397 188.224 28.3017C188.495 28.485 188.722 28.6839 188.895 28.8892Z" fill="#2056AE"/>
<path d="M196.679 38.6442H200.138V16.458H196.679V38.6442Z" fill="#2056AE"/>
<path d="M218.342 18.9454C218.371 18.9696 218.434 19.0609 218.434 19.376C218.434 20.2439 218.388 21.0563 218.298 21.7911C218.206 22.5306 218.047 23.4556 217.829 24.5411L217.799 24.6934L220.866 25.0561L220.896 24.9334C221.157 23.8266 221.361 22.7071 221.506 21.5793C221.653 20.4345 221.728 19.3605 221.728 18.3832C221.708 17.5188 221.481 16.9132 221.052 16.5837C220.632 16.2647 220.013 16.1016 219.211 16.1016H205.955V18.8581H217.942C218.206 18.8581 218.306 18.913 218.342 18.9454ZM217.082 35.3165C217.082 36.2508 216.781 36.9517 216.167 37.4602C215.552 37.968 214.755 38.2253 213.801 38.2253C212.825 38.2253 212.02 37.968 211.405 37.4602C210.79 36.9517 210.491 36.2508 210.491 35.3165C210.491 34.4099 210.8 33.6935 211.406 33.185C212.022 32.6686 212.827 32.4062 213.801 32.4062C214.755 32.4062 215.55 32.6686 216.166 33.185C216.773 33.6939 217.082 34.412 217.082 35.3165ZM218.502 39.4661C219.103 38.9783 219.598 38.3746 219.958 37.6912H219.959C220.327 36.9943 220.513 36.196 220.513 35.3165C220.513 34.4373 220.33 33.634 219.973 32.9298C219.623 32.2375 219.13 31.6264 218.526 31.1365C217.91 30.6526 217.189 30.2754 216.383 30.0152C215.582 29.755 214.713 29.6233 213.801 29.6233C212.888 29.6233 212.014 29.755 211.203 30.0152C210.389 30.2747 209.663 30.6526 209.045 31.1387C208.441 31.6268 207.948 32.2374 207.6 32.9298C207.241 33.6329 207.058 34.4351 207.058 35.3165C207.058 36.196 207.241 36.9993 207.6 37.7024C207.956 38.4043 208.443 38.9991 209.046 39.4682C209.667 39.9525 210.392 40.3254 211.203 40.5762C212.015 40.8266 212.888 40.9544 213.801 40.9544C214.693 40.9544 215.553 40.8266 216.355 40.5755C217.157 40.3243 217.88 39.9525 218.502 39.4661Z" fill="#2056AE"/>
<path d="M224.793 25.7754H213.666V21.7633H210.234V25.775H203.248V28.5309H224.793V25.7754ZM227.936 33.975C229.245 33.0388 230.421 32.0287 231.434 30.9741C232.42 29.9467 233.254 28.8333 233.909 27.6593C234.165 27.7573 234.408 27.8851 234.633 28.04C234.873 28.2013 235.09 28.3944 235.278 28.6139C235.659 29.1018 236.153 29.8229 236.745 30.7601C237.387 31.7738 238.017 32.7947 238.636 33.8227L238.715 33.9533L241.295 32.1117L241.227 31.9991C240.598 30.9524 239.957 29.9123 239.306 28.8791C238.748 27.9924 238.22 27.2165 237.738 26.5694C237.381 26.1203 236.932 25.7518 236.421 25.4881C235.981 25.2591 235.509 25.0962 235.021 25.0049C235.221 24.3325 235.384 23.6212 235.503 22.89C235.632 22.0953 235.698 21.2476 235.698 20.3641C235.698 19.7542 235.641 19.1443 235.531 18.5517C235.417 17.9573 235.199 17.3524 234.88 16.7537L234.824 16.6472L231.49 17.7527L231.562 17.9006C231.723 18.2164 231.863 18.6055 231.981 19.0533C232.096 19.5001 232.155 20.0328 232.155 20.6398C232.155 21.8485 232.036 22.9568 231.8 23.9323C231.57 24.8914 231.204 25.8128 230.712 26.6686C230.205 27.5167 229.558 28.3399 228.787 29.1151C228.011 29.8961 227.066 30.6955 225.975 31.4917L225.855 31.579L227.825 34.0526L227.936 33.975ZM246.107 24.5386V16.457H242.648V38.6443H246.107V27.459H250V24.5382L246.107 24.5386Z" fill="#2056AE"/>
<path d="M25.3127 0.445405L20.8419 3.01499C20.2139 3.37625 20.2139 4.27705 20.8419 4.63759L42.6358 17.1633L38.5852 19.491L16.3221 6.69615C16.0356 6.53188 15.7108 6.44542 15.3802 6.44542C15.0496 6.44542 14.7247 6.53188 14.4382 6.69615L9.23831 9.68438C8.61034 10.0464 8.61034 10.9472 9.23831 11.3077L33.841 25.4469C34.1358 25.6158 34.3807 25.8591 34.5509 26.1522C34.7212 26.4453 34.8109 26.7779 34.8109 27.1164V55.3942C34.8109 56.1156 35.5944 56.5664 36.2223 56.2055L41.4223 53.2173C41.7085 53.0526 41.9462 52.8158 42.1114 52.5307C42.2766 52.2456 42.3635 51.9223 42.3635 51.5932V26.4964L46.4134 24.1686V48.7241C46.4134 49.4455 47.198 49.8963 47.8259 49.5357L52.2967 46.9665C52.8045 46.6745 53.2261 46.2546 53.5193 45.7491C53.8125 45.2436 53.9669 44.6703 53.9671 44.0866V16.9117C53.967 16.3279 53.8125 15.7545 53.5194 15.2489C53.2262 14.7434 52.8045 14.3235 52.2967 14.0314L28.6545 0.444322C28.1465 0.152476 27.5702 -0.00110319 26.9837 -0.000976484C26.3971 -0.000849781 25.821 0.152979 25.3131 0.445044" fill="#079AE1"/>
<path d="M30.7592 35.3892V29.4127C30.7592 28.7422 30.4003 28.1232 29.818 27.7887L4.7182 13.364C4.43189 13.1997 4.10724 13.1133 3.77679 13.1133C3.44634 13.1133 3.1217 13.1997 2.83539 13.364L1.6701 14.0334C1.16222 14.3254 0.740492 14.7453 0.447288 15.2509C0.154084 15.7565 -0.000262423 16.33 -0.000244139 16.9138V44.0872C5.80599e-05 44.6709 0.154544 45.2442 0.44772 45.7497C0.740895 46.2552 1.16245 46.675 1.6701 46.9671L25.3134 60.5549C25.8213 60.8465 26.3972 61 26.9835 61.0001C27.5698 61.0003 28.1458 60.847 28.6538 60.5556L29.8169 59.8869C30.1035 59.7225 30.3415 59.4858 30.507 59.2007C30.6724 58.9156 30.7596 58.5921 30.7596 58.2629V42.749C30.7596 42.0795 30.4003 41.4595 29.818 41.1249L13.0119 31.4666C12.3847 31.1057 11.6004 31.5568 11.6004 32.2779V38.7957C11.6004 39.1302 11.7796 39.4403 12.0703 39.6077L23.2066 46.0071V50.6609L7.55275 41.6652V41.6042H7.54767V25.1318L7.55275 23.6752L29.3477 36.2005C29.975 36.5614 30.7592 36.1103 30.7592 35.3892Z" fill="#2056AE"/>
</g>
<defs>
<clipPath id="clip0_2559_10825">
<rect width="250" height="61" fill="white"/>
</clipPath>
</defs>
</svg>
