<svg width="80" height="80" viewBox="0 0 80 80" fill="none" xmlns="http://www.w3.org/2000/svg">
<path d="M40 5C33.0777 5 26.3107 7.05268 20.555 10.8985C14.7994 14.7443 10.3134 20.2107 7.66427 26.6059C5.01516 33.0015 4.322 40.0387 5.6726 46.8279C7.02319 53.6172 10.3565 59.8535 15.2512 64.7488C20.1461 69.6434 26.3824 72.977 33.1717 74.3276C39.961 75.6779 46.9985 74.9848 53.3937 72.3357C59.7893 69.6865 65.2556 65.2005 69.1015 59.4449C72.9473 53.6892 75 46.9223 75 40C75 35.4038 74.0946 30.8524 72.3357 26.6059C70.5771 22.3595 67.9988 18.5012 64.7488 15.2512C61.4988 12.0012 57.6405 9.42321 53.3937 7.66428C49.1476 5.90536 44.5961 5 40 5ZM40 67.9999C34.4622 67.9999 29.0485 66.3577 24.444 63.2812C19.8396 60.2044 16.2506 55.8315 14.1315 50.7151C12.0122 45.5988 11.4577 39.9687 12.5381 34.5375C13.6184 29.1059 16.2851 24.1169 20.2012 20.2009C24.1169 16.2851 29.1059 13.6184 34.5375 12.5381C39.9687 11.4577 45.5988 12.0122 50.7152 14.1312C55.8315 16.2506 60.2045 19.8393 63.2812 24.444C66.3577 29.0485 68 34.4619 68 40C68 47.4259 65.0503 54.5479 59.7991 59.7991C54.5482 65.0497 47.4259 67.9999 40 67.9999Z" fill="#FF8901"/>
<path d="M29.5033 36.1698C30.1953 36.1698 30.8719 35.9597 31.4473 35.5656C32.0224 35.1717 32.4711 34.6118 32.7359 33.9567C33.0007 33.3019 33.07 32.5809 32.9349 31.8856C32.7999 31.19 32.4666 30.5513 31.9775 30.0499C31.4881 29.5487 30.8648 29.2073 30.1858 29.0689C29.5072 28.9305 28.8038 29.0016 28.1644 29.2729C27.525 29.5442 26.9785 30.0039 26.5941 30.5931C26.2097 31.1827 26.0044 31.8759 26.0044 32.5849C26.0044 33.5357 26.373 34.4475 27.0294 35.1196C27.6854 35.7918 28.5753 36.1698 29.5033 36.1698ZM50.4967 29C49.8046 29 49.1284 29.2104 48.5526 29.6042C47.9775 29.9981 47.5289 30.558 47.2641 31.2131C46.9993 31.8679 46.9299 32.5889 47.065 33.2842C47.2001 33.9798 47.533 34.6185 48.0228 35.1196C48.5122 35.6214 49.1352 35.9625 49.8142 36.1009C50.4928 36.2393 51.1964 36.1683 51.8358 35.897C52.4749 35.6256 53.0215 35.166 53.4059 34.5767C53.7906 33.9868 53.9956 33.294 53.9956 32.5849C53.9956 31.6341 53.6269 30.7224 52.9709 30.0499C52.3146 29.3777 51.4247 29 50.4967 29Z" fill="#FF8901"/>
<rect x="26" y="47" width="28" height="7" rx="3.5" fill="#FF8901"/>
</svg>
